<svg width="864" height="992" viewBox="0 0 864 992" fill="none" xmlns="http://www.w3.org/2000/svg">
<path d="M576.886 248H288.775V496.286H576.886V248Z" fill="#FAEFE4"/>
<path d="M576.886 496H288.775V744.286H576.886V496Z" fill="#C9B9AB"/>
<path d="M864.111 496H576V744.286H864.111V496Z" fill="#FAEFE4"/>
<path d="M289.111 0H1V248H289.111V0Z" fill="#CFBEB0"/>
<path d="M863.999 0H575.889V248H863.999V0Z" fill="#FAEFE4"/>
<path d="M288.776 495.142H0.665039V744.858H288.776V495.142Z" fill="#F4E5DA"/>
<path d="M863.999 744H575.889V992H863.999V744Z" fill="#E3D4C8"/>
<path d="M288.776 248H0.665039V496.286H288.776V248Z" fill="#C9B9AB"/>
<path d="M576.886 0H288.775V248H576.886V0Z" fill="#E5D6CA"/>
<path d="M575.89 744H287.779V992H575.89V744Z" fill="#D6C7BF"/>
<path d="M288.111 744H0V992H288.111V744Z" fill="#FAEFE4"/>
<path d="M857.995 992C856.194 973.407 843.643 932.034 799.891 924.039L748.792 915.784L696.098 915.806L645.009 924.033C601.258 932.042 588.693 973.407 586.889 992H857.995Z" fill="#E2F5FB"/>
<path d="M747.268 877.239L747.331 876.152H694.471L694.421 919.994C694.421 926.771 706.215 932.263 721.883 932.263C737.551 932.263 749.355 926.782 748.358 919.994L747.268 877.239Z" fill="#EE9146"/>
<path d="M749.354 921.633L747.456 876.152H694.47L738.461 929.803C742.708 929.007 749.227 925.28 749.354 921.633Z" fill="#C06827"/>
<path d="M765.227 845.546V809.756C765.227 799.55 755.713 791.277 743.983 791.277H696.675C684.942 791.277 675.428 799.55 675.428 809.756V845.546C675.428 846.713 765.227 846.713 765.227 845.546Z" fill="#622223"/>
<path d="M693.675 866.744L691.369 833.761L690.233 814.747C690.192 814.174 690.291 813.6 690.524 813.062C690.757 812.524 691.118 812.034 691.585 811.624C692.059 811.206 692.629 810.878 693.258 810.661C693.888 810.444 694.563 810.342 695.241 810.362H747.655C748.257 810.346 748.856 810.437 749.415 810.63C749.973 810.823 750.479 811.114 750.901 811.484C751.322 811.855 751.649 812.296 751.861 812.781C752.074 813.266 752.167 813.784 752.135 814.301L749.496 863.747L693.675 866.744Z" fill="#EE9146"/>
<path d="M674.538 844.642C674.794 848.226 678.193 851.183 682.35 850.966H682.487C686.65 850.749 690.339 847.419 690.087 843.835L689.439 834.707C689.186 831.12 685.085 828.635 680.918 828.855H680.785C676.618 829.072 673.637 831.933 673.89 835.517L674.538 844.642Z" fill="#EE9146"/>
<path d="M766.713 844.642C766.461 848.226 763.058 851.183 758.901 850.966H758.764C754.601 850.749 750.912 847.419 751.165 843.835L751.813 834.707C752.065 831.12 756.166 828.635 760.333 828.855H760.466C764.633 829.072 767.614 831.933 767.361 835.517L766.713 844.642Z" fill="#EE9146"/>
<path d="M752.078 816.569C751.859 818.935 750.769 851.847 747.874 854.685C746.578 855.986 744.365 857.065 742.66 857.07L719.538 857.148L699.175 857.07C697.467 857.07 695.253 855.986 693.957 854.685C691.365 851.936 690.332 820.239 689.917 818.071H683.068L681.609 883.83C681.715 888.435 679.764 895.237 691.624 903.306C700.856 908.867 735.998 915.829 752.969 901.333C761.103 895.286 759.774 888.461 760.346 885.048L758.425 818.154L752.078 816.569Z" fill="#622223"/>
<path d="M691.586 816.655C692.055 816.226 692.621 815.884 693.25 815.651C693.879 815.418 694.557 815.299 695.242 815.302H747.656C748.264 815.301 748.864 815.407 749.423 815.612C749.981 815.818 750.485 816.119 750.903 816.498C751.387 816.866 751.763 817.326 752.003 817.842L752.136 813.806C752.165 813.284 752.071 812.762 751.859 812.273C751.647 811.783 751.322 811.335 750.903 810.957C750.484 810.578 749.981 810.277 749.422 810.071C748.864 809.865 748.264 809.759 747.656 809.759H695.231C694.549 809.76 693.874 809.882 693.248 810.116C692.622 810.35 692.059 810.692 691.592 811.121C691.125 811.55 690.765 812.056 690.534 812.609C690.302 813.161 690.205 813.749 690.247 814.335L690.483 818.32C690.701 817.701 691.078 817.132 691.586 816.655Z" fill="#C06827"/>
<path d="M560.496 744C580.641 710.584 550.371 717.924 551.026 691.68C555.562 656.662 537.514 645.67 519.623 639.334C501.472 632.025 488.173 618.99 486.9 594.396C485.571 583.592 488.778 564.965 466.297 551.807C423.007 533.732 393.641 554.224 391.721 576.315C393.405 602.251 344.971 593.418 359.433 625.904C362.045 634.771 372.643 643.21 344.915 654.105C331.167 658.968 322.052 668.567 320.902 679.689C320.658 680.403 320.539 681.144 320.55 681.889C321.574 696.891 330.931 705.716 312.778 722.567C303.244 730.645 306.696 741.16 311.282 743.997L560.496 744Z" fill="#3D9EBC"/>
<path d="M468.783 604.582C468.783 604.582 441.338 593.475 429.846 598.412C421.173 602.131 415.182 612.245 411.433 635.18C395.519 671.325 338.92 645.641 367.442 719.4L505.37 720.582C517.107 680.807 468.647 648.573 468.783 604.582Z" fill="#04475C"/>
<path d="M509.039 679.926C508.849 679.892 459.342 667.626 459.342 667.626H415.81C415.81 667.626 366.296 679.88 366.113 679.926C337.076 689.672 334.019 720.593 320.198 744.286H554.954C541.133 720.582 538.076 689.652 509.039 679.926Z" fill="#FFF4EB"/>
<path d="M459.006 667.34L454.945 621.573H419.239L416.776 667.34C431.103 673.719 445.18 673.719 459.006 667.34Z" fill="#F6A55C"/>
<path d="M457.684 651.502L454.946 621.433H419.239L418.531 634.068L457.684 651.502Z" fill="#D18343"/>
<path d="M476.151 599.577C475.96 600.666 475.522 601.712 474.861 602.655C474.2 603.599 473.33 604.421 472.301 605.075C471.271 605.729 470.102 606.202 468.859 606.467C467.617 606.732 466.327 606.783 465.061 606.619C463.796 606.455 462.58 606.077 461.483 605.509C460.387 604.94 459.431 604.191 458.671 603.304C457.911 602.418 457.362 601.411 457.054 600.341C456.746 599.272 456.686 598.16 456.877 597.071L458.465 588.023C458.851 585.823 460.237 583.845 462.317 582.525C464.397 581.204 467.002 580.649 469.558 580.981C470.823 581.145 472.038 581.523 473.134 582.092C474.23 582.661 475.185 583.41 475.944 584.297C476.704 585.183 477.253 586.19 477.56 587.259C477.868 588.329 477.927 589.44 477.736 590.529L476.151 599.577Z" fill="#D18343"/>
<path d="M471.74 599.628C471.74 600.159 471.558 600.679 471.215 601.121C470.873 601.563 470.385 601.908 469.815 602.112C469.245 602.315 468.617 602.369 468.011 602.265C467.406 602.162 466.85 601.906 466.413 601.53C465.976 601.154 465.679 600.675 465.559 600.154C465.439 599.633 465.501 599.092 465.737 598.602C465.974 598.111 466.374 597.691 466.888 597.396C467.402 597.101 468.005 596.944 468.623 596.945C469.449 596.945 470.242 597.228 470.827 597.731C471.411 598.234 471.74 598.916 471.74 599.628Z" fill="#FFF4EB"/>
<path d="M446.14 556.229C443.026 556.181 440.132 556.172 437.387 556.198H436.802C434.054 556.172 431.153 556.181 428.049 556.229C418.246 556.721 404.395 562.196 404.402 577.328C404.352 586.787 408.722 616.402 412.862 620.632C418.983 627.706 431.156 632.838 436.4 633.052L437.789 633.004C443.033 632.789 455.205 627.706 461.329 620.632C465.48 616.402 469.833 586.787 469.783 577.328C469.787 562.196 455.926 556.721 446.14 556.229Z" fill="#F6A55C"/>
<path d="M449.99 551.747C403.168 532.468 383.908 592.48 394.568 607.345C403.59 596.095 419.953 590.881 433.146 582.963C444.989 575.855 457.009 563.489 449.99 551.747Z" fill="#3D9EBC"/>
<path d="M435.987 586.424C447.791 580.131 459.737 569.885 458.202 559.43C456.131 558.392 453.91 557.594 451.596 557.056C453.075 567.068 442.883 576.922 432.817 582.963C424.293 588.077 414.45 592.068 406.116 597.282C406.276 598.289 406.449 599.302 406.615 600.306C415.962 595.38 426.643 591.41 435.987 586.424Z" fill="#D18343"/>
<path d="M502.982 392.212L508.21 400.616C517.999 398.219 525.965 395.152 531.215 391.397C523.197 352.781 493.312 361.491 480.704 345.893C475.637 330.947 475.693 312.949 456.077 307.849C412.212 301.33 397.95 310.252 390.971 337.884C385.355 359.391 337.29 357.163 332.033 384.812C355.335 406.451 449.757 412.664 502.354 401.917L502.982 392.212Z" fill="#221926"/>
<path d="M504.055 431.926C503.866 431.892 454.359 419.626 454.359 419.626H410.826C410.826 419.626 361.313 431.88 361.13 431.926C332.093 441.672 329.036 472.593 315.215 496.286H549.97C536.15 472.582 533.092 441.652 504.055 431.926Z" fill="#98F4EF" fill-opacity="0.5"/>
<path d="M454.023 419.34L449.962 373.573H414.255L411.793 419.34C426.12 425.719 440.196 425.719 454.023 419.34Z" fill="#BC732E"/>
<path d="M452.7 403.502L449.962 373.433H414.256L413.548 386.068L452.7 403.502Z" fill="#995414"/>
<path d="M459.164 345.675C453.07 350.884 450.524 357.214 453.515 359.817C456.506 362.42 463.816 360.301 469.924 355.092C476.032 349.883 476.776 345.066 473.812 342.466C470.848 339.866 465.265 340.461 459.164 345.675Z" fill="#995414"/>
<path d="M466.076 380.882C464.191 381.433 462.198 381.658 460.212 381.543C458.227 381.428 456.287 380.975 454.505 380.211C452.723 379.447 451.135 378.387 449.832 377.092C448.528 375.797 447.536 374.293 446.912 372.666C446.288 371.039 446.044 369.322 446.195 367.614C446.346 365.905 446.888 364.239 447.791 362.712C448.694 361.185 449.939 359.827 451.454 358.717C452.97 357.606 454.726 356.765 456.622 356.242C457.057 356.119 458.283 357.192 458.283 357.192C455.002 357.819 452.108 359.471 450.161 361.83C448.215 364.188 447.354 367.084 447.746 369.957C448.137 372.831 449.754 375.477 452.282 377.383C454.81 379.289 458.07 380.32 461.43 380.277C464.791 380.233 468.013 379.117 470.473 377.146C472.933 375.174 474.455 372.487 474.745 369.605C475.036 366.723 474.073 363.85 472.044 361.544C470.015 359.238 467.065 357.661 463.763 357.12L464.042 355.85C467.308 356.39 470.275 357.844 472.482 359.986C474.688 362.128 476.01 364.838 476.242 367.694C476.473 370.549 475.602 373.391 473.763 375.776C471.923 378.161 469.22 379.956 466.073 380.882H466.076Z" fill="#FCCD01"/>
<path d="M408.075 345.675C414.169 350.884 416.715 357.214 413.74 359.817C410.766 362.42 403.439 360.301 397.331 355.092C391.223 349.883 390.479 345.066 393.443 342.466C396.407 339.866 401.97 340.461 408.075 345.675Z" fill="#995414"/>
<path d="M400.519 380.882C402.4 381.421 404.386 381.635 406.363 381.513C408.34 381.391 410.27 380.934 412.042 380.168C413.814 379.403 415.393 378.344 416.689 377.053C417.985 375.761 418.972 374.262 419.594 372.642C420.216 371.022 420.461 369.311 420.314 367.61C420.167 365.908 419.631 364.248 418.738 362.724C417.844 361.201 416.611 359.844 415.107 358.732C413.604 357.619 411.86 356.773 409.976 356.242C409.537 356.119 408.315 357.192 408.315 357.192C411.596 357.819 414.49 359.471 416.436 361.83C418.383 364.188 419.244 367.084 418.852 369.957C418.46 372.831 416.844 375.477 414.316 377.383C411.788 379.289 408.528 380.32 405.167 380.277C401.807 380.233 398.585 379.117 396.125 377.146C393.665 375.174 392.143 372.487 391.852 369.605C391.562 366.723 392.525 363.85 394.553 361.544C396.582 359.238 399.533 357.661 402.835 357.12L402.556 355.85C399.29 356.39 396.322 357.844 394.116 359.986C391.91 362.128 390.588 364.838 390.356 367.694C390.124 370.549 390.996 373.391 392.835 375.776C394.674 378.161 397.378 379.956 400.525 380.882H400.519Z" fill="#FCCD01"/>
<path d="M441.485 317.995C438.69 317.952 436.088 317.941 433.623 317.966H433.094C430.629 317.941 428.027 317.966 425.235 317.995C416.432 318.432 403.991 323.352 403.997 336.945C403.951 345.441 407.862 372.04 411.594 375.847C417.094 382.2 428.027 386.808 432.735 387.003L433.985 386.96C438.694 386.766 449.627 382.2 455.126 375.847C458.855 372.046 462.769 345.446 462.72 336.945C462.726 323.352 450.278 318.432 441.485 317.995Z" fill="#BC732E"/>
<path d="M404.177 334.225C404.107 334.76 404.054 335.306 404.027 335.87L462.514 341.385C462.646 339.634 462.716 338.112 462.71 336.945C462.73 334.965 462.432 332.992 461.826 331.081L443.595 320.655L404.177 334.225Z" fill="#995414"/>
<path d="M401.428 335.243H441.205L442.534 322.234L446.399 335.704L466.59 335.876C475.007 307.077 404.681 294.053 401.428 335.243Z" fill="#221926"/>
<path d="M281.222 496.286C279.421 477.693 266.866 436.32 223.115 428.325L172.016 420.07L119.325 420.092L68.2326 428.319C24.4843 436.314 11.9163 477.693 10.1152 496.286H281.222Z" fill="#3D9EBC"/>
<path d="M215.525 378.722C210.709 371.702 203.409 365.959 207.629 354.76C213.69 341.267 198.361 337.597 197.46 328.104C198.357 318.058 187.069 308.756 172.713 302.514C162.721 296.619 131.421 297.554 119.511 302.134C104.736 308.375 92.9594 317.866 93.8766 328.104C92.976 337.595 77.6466 341.262 83.7079 354.76C87.9282 365.959 80.6274 371.702 75.8123 378.722C69.0299 387.22 69.1197 395.513 76.2875 400.607C79.1853 405.559 78.9725 409.895 77.5702 413.041H213.767C212.364 409.895 212.152 405.559 215.049 400.607C222.217 395.518 222.314 387.226 215.525 378.722Z" fill="#FFD079"/>
<path d="M160.335 288.332C160.336 290.716 159.515 293.047 157.977 295.03C156.438 297.012 154.251 298.558 151.693 299.471C149.134 300.383 146.318 300.622 143.602 300.158C140.885 299.693 138.39 298.545 136.431 296.859C134.472 295.174 133.138 293.026 132.597 290.688C132.057 288.349 132.334 285.926 133.394 283.723C134.454 281.52 136.248 279.637 138.551 278.313C140.854 276.988 143.562 276.281 146.332 276.281C150.045 276.281 153.606 277.551 156.232 279.811C158.858 282.071 160.334 285.136 160.335 288.332Z" fill="#FFD079"/>
<path d="M176.123 418.742C176.123 426.523 164.877 432.833 146.88 432.833C128.882 432.833 117.637 426.523 117.637 418.742V379.84L113.101 320.114C135.309 313.421 157.258 313.821 178.854 320.114L176.123 376.494V418.742Z" fill="#B86C26"/>
<path d="M176.708 418.368V378.436L132.591 379.389L166.403 429.418C172.983 426.838 176.708 422.85 176.708 418.368Z" fill="#9E5816"/>
<path d="M114.873 355.146C114.933 355.914 114.817 356.685 114.532 357.414C114.246 358.143 113.796 358.816 113.208 359.396C112.62 359.975 111.905 360.449 111.104 360.79C110.302 361.132 109.431 361.334 108.539 361.385C107.647 361.437 106.753 361.337 105.906 361.092C105.059 360.846 104.277 360.459 103.603 359.953C102.93 359.447 102.38 358.832 101.983 358.142C101.586 357.453 101.351 356.703 101.291 355.936L100.035 339.917C99.9129 338.37 100.509 336.843 101.693 335.674C102.877 334.504 104.551 333.787 106.349 333.679C108.147 333.573 109.92 334.087 111.279 335.106C112.638 336.125 113.471 337.566 113.597 339.114L114.873 355.146Z" fill="#B86C26"/>
<path d="M175.092 355.146C174.969 356.694 175.565 358.221 176.749 359.391C177.933 360.561 179.608 361.278 181.406 361.385C182.298 361.437 183.192 361.337 184.039 361.092C184.886 360.846 185.668 360.459 186.341 359.953C187.015 359.447 187.565 358.832 187.962 358.142C188.359 357.453 188.594 356.703 188.654 355.936L189.91 339.917C189.97 339.15 189.854 338.38 189.569 337.651C189.284 336.922 188.834 336.248 188.246 335.669C187.658 335.09 186.944 334.616 186.143 334.274C185.342 333.933 184.471 333.73 183.579 333.679C181.781 333.573 180.008 334.087 178.649 335.106C177.29 336.125 176.457 337.566 176.332 339.114L175.092 355.146Z" fill="#B86C26"/>
<path d="M149.635 323.027V322.998L149.615 322.958C149.62 322.981 149.627 323.004 149.635 323.027Z" fill="#CF8548"/>
<path d="M173.577 347.695V351.542C173.577 353.421 172.377 355.773 171.032 357.214C169.686 358.656 167.376 359.855 165.615 359.86L145.66 359.946L125.901 359.86C124.126 359.86 121.827 358.659 120.481 357.214C119.135 355.77 117.929 353.421 117.935 351.542V347.695H110.007L109.934 371.405C108.96 377.498 115.473 390.733 126.918 390.461C139.213 391.605 151.665 391.746 164.392 390.361C177.236 389.165 181.549 376.886 181.376 371.379L181.303 347.695H173.577Z" fill="#D4A040"/>
<path d="M117.969 347.695C117.969 347.309 117.952 330.381 117.942 329.997C118.361 325.055 117.069 319.03 124.13 317.3H110.13V347.695H117.969Z" fill="#FFD079"/>
<path d="M173.597 347.695C173.597 347.309 173.507 330.567 173.517 330.183C172.956 325.143 174.308 318.919 167.439 317.311H181.44V347.706L173.597 347.695Z" fill="#FFD079"/>
<path d="M173.518 329.68C172.973 324.817 174.222 318.784 168.081 316.934C153.353 314.019 138.472 313.876 123.465 316.934C117.152 318.879 118.354 324.725 117.952 329.502C117.952 329.628 117.218 323.438 123.465 321.51C138.472 318.455 153.287 318.598 168.015 321.51C172.022 322.065 173.016 325.627 173.518 329.68Z" fill="#9E5816"/>
<path d="M157.061 367.183C157.062 367.698 156.944 368.209 156.715 368.685C156.487 369.161 156.151 369.593 155.728 369.958C155.305 370.322 154.802 370.612 154.249 370.809C153.696 371.006 153.104 371.108 152.505 371.108H138.831C137.622 371.108 136.462 370.694 135.607 369.958C134.752 369.222 134.271 368.224 134.271 367.183C134.271 366.668 134.389 366.158 134.619 365.682C134.848 365.206 135.184 364.773 135.607 364.409C136.03 364.045 136.533 363.756 137.086 363.559C137.639 363.362 138.232 363.261 138.831 363.261H152.505C153.103 363.261 153.696 363.363 154.249 363.56C154.801 363.757 155.304 364.046 155.727 364.41C156.15 364.774 156.485 365.206 156.714 365.682C156.943 366.158 157.061 366.668 157.061 367.183Z" fill="#B86C26"/>
<path d="M855.107 743.033C853.306 724.44 840.751 683.066 796.999 675.071L745.9 666.816L693.21 666.839L642.117 675.066C598.369 683.061 585.801 724.44 584 743.033H855.107Z" fill="#72767F" fill-opacity="0.5"/>
<path d="M697.74 633.918L697.54 665.355C697.494 673.138 706.785 679.497 721.719 679.579C736.653 679.662 746.024 673.404 746.074 665.621L746.273 634.184L697.74 633.918Z" fill="#F29E57"/>
<path d="M744.027 670.377C746.164 668.235 746.057 663.764 746.074 661.044L746.273 629.607L697.74 629.341L697.62 648.34L744.027 670.377Z" fill="#D38448"/>
<path d="M770.711 585.663C770.186 585.254 769.634 584.865 769.076 584.487C775.47 573.574 769.043 566.787 761.539 564.87C763.28 551.864 747.28 547.379 737.005 551.821C726.079 541.889 708.812 540.928 699.208 551.764C697.315 551.402 695.39 551.178 693.453 551.091C686.547 550.782 680.443 554.347 676.814 559.121C673.823 563.045 673.823 568.303 676.116 572.519C673.441 573.983 671.193 575.958 669.55 578.291C666.632 582.273 665.894 586.835 667.018 591.375C668.619 597.885 673.169 602.173 679.463 605.54C673.039 618.149 679.712 624.133 691.316 625.986C704.342 628.066 750.274 625.986 752.517 625.986C759.243 625.986 765.258 622.9 767.414 617.803C768.471 615.239 768.471 612.44 767.414 609.876C776.347 605.637 780.737 592.897 770.711 585.663Z" fill="#B5463A"/>
<path d="M723.52 569.773V569.744L723.5 569.704C723.506 569.728 723.512 569.751 723.52 569.773Z" fill="#CF8548"/>
<path d="M724.184 582.874V582.848L724.161 582.811C724.171 582.848 724.177 582.848 724.184 582.874Z" fill="#CF8548"/>
<path d="M723.509 582.874V582.851L723.489 582.814L723.509 582.874Z" fill="#CF8548"/>
<path d="M701.591 601.023C701.95 602.965 701.398 604.949 700.058 606.541C698.718 608.132 696.698 609.2 694.443 609.51C693.326 609.663 692.185 609.625 691.086 609.399C689.986 609.172 688.949 608.761 688.034 608.19C687.118 607.618 686.343 606.897 685.751 606.067C685.16 605.238 684.764 604.316 684.587 603.355L682.593 592.571C682.415 591.609 682.458 590.627 682.721 589.68C682.984 588.733 683.462 587.84 684.126 587.052C684.79 586.264 685.628 585.596 686.592 585.087C687.556 584.577 688.627 584.237 689.744 584.084C690.861 583.931 692.002 583.969 693.101 584.195C694.201 584.422 695.238 584.833 696.153 585.404C697.069 585.976 697.844 586.697 698.436 587.527C699.027 588.356 699.423 589.278 699.6 590.239L701.591 601.023Z" fill="#D67F43"/>
<path d="M741.407 601.023C741.048 602.965 741.599 604.949 742.94 606.541C744.28 608.132 746.3 609.2 748.555 609.51C750.811 609.819 753.117 609.344 754.966 608.19C756.814 607.035 758.055 605.296 758.414 603.355L760.408 592.571C760.586 591.609 760.543 590.627 760.28 589.681C760.017 588.734 759.54 587.841 758.877 587.053C758.213 586.265 757.375 585.597 756.412 585.087C755.448 584.578 754.377 584.237 753.26 584.084C752.144 583.931 751.003 583.969 749.903 584.195C748.803 584.422 747.766 584.833 746.851 585.404C745.936 585.976 745.16 586.697 744.569 587.527C743.977 588.356 743.582 589.278 743.404 590.239L741.407 601.023Z" fill="#D67F43"/>
<path d="M747.206 576.183C712.506 582.677 713.812 562.908 694.771 575.188C692.229 588.174 689.524 609.599 691.933 624.874C694.671 639.21 704.783 649.811 720.894 648.653C737.004 649.811 747.116 639.213 749.854 624.874C752.207 609.979 749.595 589.476 747.206 576.183Z" fill="#F29E57"/>
<path d="M747.874 581.798C747.651 580.445 747.429 576.847 747.209 575.611C712.51 582.104 713.816 562.336 694.775 574.616C694.608 575.474 694.775 574.873 694.625 575.791C713.048 565.883 712.703 587.556 747.874 581.798Z" fill="#D67F43"/>
<path d="M572.323 992C570.522 973.407 557.968 932.034 514.216 924.039L463.117 915.783L410.426 915.806L359.334 924.033C315.586 932.042 303.018 973.407 301.217 992H572.323Z" fill="#F7567C"/>
<path d="M414.956 882.885L414.76 914.322C414.71 922.105 424.001 928.464 438.935 928.547C453.869 928.63 463.24 922.371 463.29 914.588L463.49 883.151L414.956 882.885Z" fill="#F29E57"/>
<path d="M461.244 919.345C463.38 917.202 463.274 912.731 463.291 910.011L463.49 878.575L414.956 878.309L414.837 897.308L461.244 919.345Z" fill="#E28C4B"/>
<path d="M442.913 812.828C442.914 812.817 442.914 812.807 442.913 812.796L442.887 812.75L442.913 812.828Z" fill="#CF8548"/>
<path d="M443.678 827.485C443.679 827.475 443.679 827.466 443.678 827.456L443.651 827.413C443.661 827.442 443.668 827.462 443.678 827.485Z" fill="#CF8548"/>
<path d="M442.902 827.485V827.456L442.879 827.413C442.886 827.442 442.892 827.462 442.902 827.485Z" fill="#CF8548"/>
<path d="M417.804 851.306C418.661 855.829 414.996 860.079 409.619 860.797C404.242 861.518 399.188 858.437 398.32 853.915L396.037 841.85C395.18 837.327 398.845 833.077 404.222 832.359C409.602 831.638 414.653 834.719 415.521 839.241L417.804 851.306Z" fill="#D67F43"/>
<path d="M463.4 851.947C462.542 856.469 466.208 860.72 471.585 861.438C476.961 862.159 482.016 859.075 482.883 854.556L485.166 842.488C486.023 837.968 482.358 833.718 476.981 832.997C471.601 832.279 466.55 835.359 465.683 839.882L463.4 851.947Z" fill="#D67F43"/>
<path d="M470.036 819.996C432.987 811.129 432.731 799.544 409.998 818.883C407.087 833.411 403.987 853.921 406.748 871.009C409.885 887.045 421.463 898.904 439.909 897.611C458.359 898.904 469.936 887.045 473.073 871.009C475.765 854.347 472.774 834.867 470.036 819.996Z" fill="#F29E57"/>
<path d="M473.073 871.003C474.887 859.776 474.12 849.158 472.588 836.618L467.686 836.675L467.713 851.383C467.713 853.157 466.546 855.388 465.244 856.738C463.941 858.088 461.698 859.23 459.973 859.235L439.623 859.315L420.136 859.235C418.412 859.235 416.179 858.091 414.869 856.738C413.56 855.385 412.387 853.157 412.394 851.383L412.427 836.675L407.166 836.624C405.644 849.129 404.94 859.81 406.748 871.003C409.885 887.039 421.462 898.898 439.909 897.605C458.358 898.904 469.936 887.045 473.073 871.003Z" fill="#B86C26"/>
<path d="M475.41 801.941C458.326 784.898 420.058 781.346 415.326 801.188C398.684 800.33 400.332 815.797 402.106 832.253C402.605 832.133 404.193 832.979 406.872 832.985L406.656 843.454L412.365 843.615C413.192 831.14 414.658 820.657 417.781 816.569C431.738 802.344 445.28 818.746 464.484 820.502C466.926 824.882 467.887 833.818 467.538 843.543H473.247L471.934 831.509L477.098 831.684C484.19 816.409 483.216 809.218 475.41 801.941Z" fill="#F4E5DA"/>
<path d="M416.961 819.349C432.45 808.194 446.082 822.419 465.628 823.122C465.336 822.188 464.952 821.276 464.481 820.396C445.277 818.64 431.732 802.344 417.779 816.569C416.759 817.905 415.918 819.922 415.217 822.465C415.638 821.365 416.224 820.318 416.961 819.349Z" fill="#E28C4B"/>
<path d="M446.541 830.791C446.161 830.786 445.784 830.845 445.43 830.965C445.077 831.086 444.754 831.265 444.481 831.492C444.211 831.716 443.996 831.985 443.85 832.283C443.704 832.58 443.629 832.9 443.63 833.223V832.673H436.984V833.363C436.994 833.018 436.922 832.675 436.773 832.355C436.623 832.036 436.399 831.746 436.113 831.504C435.474 831.013 434.644 830.747 433.787 830.76L401.44 831.283V833.223H404.132L406.475 836.847L408.06 837.133C409.12 837.442 409.805 837.53 410.369 839.707C411.559 844.813 413.995 849.261 418.72 849.807C420.714 850.093 429.387 849.807 430.836 849.404C435.319 848.26 437.316 844.138 437.639 837.273H443.298C443.673 844.138 445.498 848.672 449.994 849.404C451.443 849.802 460.136 849.993 462.116 849.69C466.842 849.141 469.274 844.75 470.464 839.644C471.029 837.473 471.7 837.413 472.757 837.104L474.312 836.841L476.539 833.225H477.536V831.123L446.541 830.791ZM431.003 846.976C430.006 847.596 421.751 847.834 420.119 847.611C417.006 847.305 415.57 844.018 414.979 840.211C414.822 839.353 414.666 837.819 414.567 836.249C414.567 834.484 415.78 833.657 417.557 833.675L430.614 833.343C432.588 833.357 433.791 833.217 433.734 835.494C434.193 841.046 433.611 845.345 431.003 846.976ZM465.895 840.211C465.303 844.018 463.864 847.305 460.751 847.611C459.119 847.834 450.861 847.611 449.868 846.976C447.252 845.339 446.674 841.04 447.149 835.485C447.096 833.197 448.296 833.349 450.273 833.334L463.326 833.666C465.094 833.666 466.297 834.484 466.317 836.24C466.191 837.822 466.034 839.344 465.895 840.216V840.211Z" fill="#662E3C"/>
<path d="M452.347 867.142C452.347 869.01 450.546 870.431 448.326 870.431H432.585C430.365 870.431 428.567 869.001 428.567 867.142C428.567 865.274 430.365 863.852 432.585 863.852H448.326C450.546 863.852 452.347 865.282 452.347 867.142Z" fill="#F29E57"/>
<path d="M403.232 122.427H402.946C400.455 122.427 398.437 124.165 398.437 126.308V138.568C398.437 140.712 400.455 142.45 402.946 142.45H403.232C405.722 142.45 407.741 140.712 407.741 138.568V126.308C407.741 124.165 405.722 122.427 403.232 122.427Z" fill="#F09065"/>
<path d="M505.887 183.64C505.698 183.606 456.191 171.34 456.191 171.34H412.658C412.658 171.34 363.145 183.594 362.958 183.64C333.925 193.386 330.868 224.307 317.047 248H551.809C537.978 224.296 534.924 193.366 505.887 183.64Z" fill="#FFB1C3"/>
<path d="M455.536 171.054L451.476 131.294H415.769L413.307 171.054C427.634 177.433 441.71 177.433 455.536 171.054Z" fill="#6E2910"/>
<path d="M454.216 161.223L451.475 131.154H415.772L415.061 143.789L454.216 161.223Z" fill="#4A1C0B"/>
<path d="M492.771 56.1218C491.791 53.8261 490.26 51.7342 488.277 49.9825C486.294 48.2307 483.904 46.8587 481.263 45.9558L455.29 34.7543C452.153 33.671 448.902 32.8473 445.583 32.2944C442.529 31.7881 439.429 31.5105 436.319 31.4648H432.175C425.61 31.5416 419.116 32.6536 413.017 34.7458L387.037 45.9472C384.395 46.8559 382.004 48.2326 380.019 49.9879C378.034 51.7433 376.501 53.8381 375.517 56.1366C374.533 58.435 374.122 60.8858 374.31 63.3299C374.497 65.774 375.28 68.1568 376.606 70.3239L404.214 113.845H464.083L491.691 70.3325C493.018 68.1612 493.8 65.7741 493.986 63.326C494.172 60.8778 493.758 58.4234 492.771 56.1218Z" fill="#FFB1C3"/>
<path d="M386.369 85.6588L393.288 96.5513C405.759 90.3871 418.756 83.7909 430.134 72.4207L419.447 63.7278C413.313 74.0854 400.645 80.7674 386.369 85.6588Z" fill="#F09065"/>
<path d="M482.303 85.0667C468.722 80.2297 454.765 73.6764 448.876 63.7278L440.236 72.4207C451.136 83.3161 463.524 89.8264 475.511 95.7704L482.303 85.0667Z" fill="#F09065"/>
<path d="M403.297 111.843H402.878C398.773 111.843 395.444 114.708 395.444 118.242V118.602C395.444 122.136 398.773 125.001 402.878 125.001H403.297C407.402 125.001 410.73 122.136 410.73 118.602V118.242C410.73 114.708 407.402 111.843 403.297 111.843Z" fill="#FFB345"/>
<path d="M466.036 122.427H465.751C463.26 122.427 461.241 124.165 461.241 126.308V138.568C461.241 140.712 463.26 142.45 465.751 142.45H466.036C468.527 142.45 470.546 140.712 470.546 138.568V126.308C470.546 124.165 468.527 122.427 466.036 122.427Z" fill="#F09065"/>
<path d="M465.771 111.843H465.353C461.247 111.843 457.919 114.708 457.919 118.242V118.602C457.919 122.136 461.247 125.001 465.353 125.001H465.771C469.877 125.001 473.205 122.136 473.205 118.602V118.242C473.205 114.708 469.877 111.843 465.771 111.843Z" fill="#FFB345"/>
<path d="M434.521 72.6552H433.814C414.723 73.2272 399.948 79.8434 402.331 103.216C403.471 115.825 405.445 125.279 408.359 128.368C414.673 135.985 427.712 141.769 433.405 142.175H434.877C440.573 141.769 453.573 135.982 459.9 128.365C462.814 125.276 464.828 115.825 465.964 103.216C468.35 79.8434 453.573 73.2272 434.521 72.6552Z" fill="#6E2910"/>
<path d="M433.813 80.3785H434.521C450.87 80.9506 464.073 85.7389 465.98 101.898C468.277 78.6622 453.526 72.0832 434.521 71.5111H433.813C414.768 72.0832 400.021 78.6622 402.314 101.895C404.221 85.7389 417.427 80.9506 433.813 80.3785Z" fill="#56200F"/>
<path d="M434.026 55.3009C422.328 55.3009 412.848 62.1888 412.848 72.2576C412.848 82.3263 422.328 86.6713 434.026 86.6713C445.723 86.6713 455.204 82.3263 455.204 72.2576C455.204 62.1888 445.72 55.3009 434.026 55.3009Z" fill="#F09065"/>
<path d="M449.568 68.8937C449.797 74.3715 442.965 76.9459 434.435 77.2319C425.904 77.518 418.873 75.3497 418.643 69.872C418.414 64.3943 425.18 60.4326 433.717 60.1637C442.254 59.8948 449.339 63.416 449.568 68.8937Z" fill="#FFB1C3"/>
<path d="M849.8 248C847.999 229.407 842.423 188.034 798.671 180.039L747.572 171.784L694.882 171.807L643.789 180.033C600.041 188.028 594.451 229.407 592.65 248H849.8Z" fill="#3D9EBC"/>
<path d="M750.682 173.843C750.682 180.422 738.503 185.737 722.768 185.737C707.034 185.737 694.854 180.411 694.854 173.843V145.882H750.682V173.843Z" fill="#F09446"/>
<path d="M695.311 148.975L750.437 175.605C750.617 175.031 750.7 174.438 750.683 173.843V146.191L695.311 148.975Z" fill="#CF772E"/>
<path d="M696.268 99.9239C704.061 103.394 707.752 110.57 704.516 115.942C701.279 121.314 692.337 122.873 684.547 119.401C676.758 115.928 675.502 109.838 678.739 104.455C681.975 99.0715 688.475 96.4513 696.268 99.9239Z" fill="#F09446"/>
<path d="M747.972 99.9239C740.179 103.394 736.487 110.57 739.724 115.942C742.96 121.314 751.899 122.873 759.692 119.401C767.485 115.928 768.737 109.838 765.501 104.455C762.264 99.0715 755.761 96.4513 747.972 99.9239Z" fill="#F09446"/>
<path d="M687.368 107.267H757.724C757.81 106.357 760.652 83.4277 760.652 83.4277C760.652 70.2182 749.609 59.4973 735.988 59.4973H709.107C695.483 59.4973 684.443 70.2182 684.443 83.4277L687.235 104.461C687.235 105.425 687.281 106.357 687.368 107.267Z" fill="#FFC14F"/>
<path d="M724.605 80.0758C724.606 80.0681 724.606 80.0603 724.605 80.0526L724.587 80.0179L724.605 80.0758Z" fill="#CF8548"/>
<path d="M724.007 80.0758C724.006 80.0681 724.006 80.0603 724.007 80.0526L723.989 80.0179C723.996 80.0382 724 80.0584 724.007 80.0758Z" fill="#CF8548"/>
<path d="M752.839 89.609C752.841 88.4348 752.575 87.2718 752.054 86.1865C751.533 85.1012 750.769 84.1149 749.805 83.2841C748.841 82.4533 747.697 81.7943 746.436 81.3448C745.176 80.8952 743.825 80.6641 742.461 80.6644H702.634C701.348 80.6659 700.075 80.8857 698.887 81.3111C697.699 81.7366 696.621 82.3594 695.713 83.1439C694.805 83.9284 694.086 84.8593 693.597 85.8832C693.108 86.9071 692.857 88.0041 692.861 89.1113L693.858 107.418H688.418L691.429 140.313C691.429 143.174 693.276 146.523 695.396 148.714C697.517 150.905 701.109 152.499 703.894 152.519L741.129 152.553C743.92 152.533 747.506 150.928 749.629 148.737C751.753 146.546 753.6 143.174 753.597 140.319L756.628 107.267L752.038 107.123L752.839 89.609Z" fill="#F09446"/>
<path d="M695.722 86.8458C696.63 86.0638 697.707 85.4437 698.893 85.0211C700.079 84.5984 701.351 84.3816 702.635 84.383H742.462C744.924 84.3809 747.306 85.1338 749.182 86.5066C751.057 87.8794 752.303 89.7824 752.697 91.8745L752.84 88.7509C752.842 87.5767 752.575 86.4137 752.054 85.3283C751.534 84.243 750.77 83.2567 749.806 82.4259C748.842 81.5951 747.697 80.9361 746.437 80.4866C745.177 80.0371 743.826 79.8059 742.462 79.8063H702.635C701.348 79.8078 700.075 80.0275 698.887 80.453C697.7 80.8784 696.621 81.5012 695.714 82.2857C694.806 83.0703 694.087 84.0011 693.597 85.025C693.108 86.049 692.858 87.1459 692.861 88.2531L693.028 91.2909C693.381 89.6082 694.321 88.0578 695.722 86.8458Z" fill="#CF772E"/>
<path d="M282.105 744.286C280.303 725.693 267.752 684.32 224.001 676.325L175.892 668.07L117.217 668.092L69.1186 676.319C25.367 684.328 12.8025 725.693 10.998 744.286H282.105Z" fill="#FFB1C3"/>
<path d="M140.671 536.418C119.13 539.193 99.358 550.829 101.352 571.158L103.857 609.004C104.735 611.919 104.755 618.799 114.392 618.564C131.592 618.444 160.107 618.441 177.55 618.564C186.473 618.421 188.068 612.923 188.576 610.131L191.158 571.161C193.152 550.789 173.3 539.15 151.703 536.401C150.095 536.192 142.339 536.201 140.671 536.418Z" fill="#36263B"/>
<path d="M176.787 668.324C176.787 676.293 165.156 682.755 146.713 682.755C128.27 682.755 116.639 676.293 116.639 668.324V628.47L112.236 567.511H179.495L176.787 625.043V668.324Z" fill="#BC732E"/>
<path d="M177.118 667.309V623.89L129.814 624.319L166.551 679.068C173.29 676.319 177.118 672.077 177.118 667.309Z" fill="#A36021"/>
<path d="M114.39 599.637C114.609 602.417 111.671 604.854 107.833 605.071C103.988 605.294 100.702 603.224 100.482 600.44L99.3992 586.63C99.1799 583.847 102.117 581.413 105.959 581.195C109.797 580.972 113.09 583.046 113.306 585.829L114.39 599.637Z" fill="#BC732E"/>
<path d="M176.019 599.07C175.719 601.856 178.584 604.239 182.419 604.391C186.257 604.542 189.607 602.408 189.906 599.622L191.398 585.789C191.697 583 188.829 580.62 184.997 580.466C181.163 580.314 177.81 582.448 177.511 585.234L176.019 599.07Z" fill="#BC732E"/>
<path d="M150.953 572.053V572.025L150.93 571.985C150.936 572.013 150.943 572.033 150.953 572.053Z" fill="#CC8348"/>
<path d="M148.797 572.053C148.795 572.044 148.795 572.034 148.797 572.025L148.773 571.985C148.78 572.008 148.787 572.031 148.797 572.053Z" fill="#CC8348"/>
<path d="M182.104 567.225C177.222 565.96 171.935 565.795 166.057 567.225C174.162 568.655 174.221 580.669 173.862 595.543L173.959 599.491C173.959 601.416 172.729 603.83 171.354 605.306C169.978 606.782 167.622 608.012 165.804 608.018H125.326C123.508 608.018 121.155 606.785 119.776 605.309C118.397 603.833 117.164 601.413 117.171 599.488C117.171 599.488 117.304 595.314 117.304 595.197V594.971H117.171C116.839 580.291 116.995 568.655 124.993 567.225C119.676 565.795 114.33 565.531 108.996 567.225L109.016 610.309C108.315 614.903 114.964 635.521 129.101 639.308C139.07 642.566 149.491 643.252 161.999 640.023C178.897 635.97 181.718 614.459 182.147 610.274L182.104 567.225Z" fill="#36263B"/>
<path d="M124.847 570.961C137.335 569.942 154.186 569.639 166.491 570.961C170.599 571.802 172.669 575.174 173.666 580.2C173.001 573.066 171.067 568.146 166.056 567.105C154.585 566.207 136.866 566.229 124.993 567.105C119.161 568.315 117.493 574.774 117.15 583.87C117.838 576.836 119.809 571.993 124.847 570.961Z" fill="#A36021"/>
<path d="M183.729 550.242C176.305 542.625 164.305 537.142 151.714 535.54C150.096 535.334 142.34 535.342 140.672 535.56C128.423 537.139 116.745 542.442 109.318 549.722C118.693 546.181 131.613 545.486 145.872 545.486C160.813 545.486 174.268 546.138 183.729 550.242Z" fill="#DE9457"/>
<path d="M242.75 923.092C243.866 921.198 243.577 919.451 242.195 917.82C240.533 916.644 240.865 915.097 241.663 913.475C242.61 911.673 242.726 910.003 240.998 908.612C239.686 907.488 239.174 906.172 240.334 904.445C241.248 902.477 240.782 900.898 239.473 899.553C237.841 897.505 236.15 895.489 237.931 891.988C239.028 890.46 238.486 889.193 237.024 888.069C235.16 886.547 234.974 884.799 235.715 882.934C236.183 880.746 236.755 878.583 233.85 876.452C231.989 874.956 231.597 873.223 232.189 871.329C233.239 868.672 231.993 867.468 230.448 866.45C228.194 865.197 227.693 863.429 228.42 861.301C228.929 858.621 228.42 856.358 225.659 855.008C222.16 852.697 220.442 849.822 221.153 846.166C221.698 843.592 221.306 841.152 216.896 839.015C213.573 837.187 212.121 834.933 212.29 832.307C212.324 829.759 211.958 827.313 206.824 825.422C203.015 824.081 200.972 821.961 200.875 818.986C200.507 816.984 199.822 815.133 196.147 814.51C192.338 813.365 190.012 811.526 189.324 808.869C188.477 806.123 186.274 804.578 182.775 804.224C177.79 803.689 176.202 801.663 174.975 799.51C174.005 797.336 171.28 796.077 167.189 795.545C159.836 792.856 133.354 792.63 123.953 795.545C119.862 796.083 117.134 797.336 116.167 799.51C114.941 801.663 113.342 803.689 108.368 804.224C104.865 804.587 102.665 806.123 101.818 808.869C101.127 811.526 98.8005 813.377 94.9956 814.51C91.317 815.133 90.6357 816.987 90.2668 818.986C90.1671 821.961 88.1268 824.081 84.3185 825.422C79.201 827.313 78.8189 829.759 78.8521 832.307C79.0216 834.933 77.556 837.187 74.2429 839.015C69.8365 841.14 69.4412 843.592 69.9861 846.166C70.7006 849.822 68.9892 852.697 65.4833 855.008C62.7152 856.349 62.2134 858.612 62.7219 861.301C63.4496 863.432 62.9478 865.2 60.6947 866.45C59.1495 867.468 57.9 868.672 58.9535 871.329C59.5483 873.223 59.1528 874.956 57.2919 876.452C54.3875 878.583 54.9658 880.743 55.4277 882.934C56.1688 884.799 55.986 886.547 54.1184 888.069C52.653 889.193 52.1245 890.46 53.2112 891.988C54.9824 895.489 53.3009 897.505 51.6693 899.553C50.36 900.898 49.8947 902.477 50.8086 904.445C51.975 906.161 51.4732 907.488 50.144 908.612C48.406 909.997 48.5223 911.667 49.4794 913.475C50.2702 915.097 50.6225 916.644 48.9477 917.82C47.5653 919.451 47.2861 921.198 48.3927 923.092C49.9911 924.988 47.6318 928.415 46.5352 929.74C72.6413 932.151 218.494 932.151 244.591 929.74C243.511 928.415 241.151 924.988 242.75 923.092Z" fill="#2E2232"/>
<path d="M223.745 925.964C223.549 925.924 172.799 913.338 172.799 913.338H128.133C128.133 913.338 77.3633 925.924 77.1706 925.964C47.3958 935.955 44.2722 967.692 30.0859 992H270.83C256.653 967.686 253.52 935.955 223.745 925.964Z" fill="#04475C"/>
<path d="M172.436 913.083L168.272 866.141H131.659L129.13 913.077C143.822 919.62 158.258 919.622 172.436 913.083Z" fill="#91512A"/>
<path d="M171.08 896.853L168.272 866.018H131.658L130.931 878.975L171.08 896.853Z" fill="#66391E"/>
<path d="M159.64 801.02C156.523 800.971 153.622 800.96 150.873 800.986H150.285C147.534 800.96 144.636 800.986 141.519 801.02C131.699 801.509 117.829 806.995 117.835 822.15C117.786 831.624 122.155 861.286 126.306 865.526C132.437 872.614 144.633 877.751 149.883 877.966L151.275 877.92C156.529 877.702 168.718 872.614 174.853 865.526C179.013 861.286 183.373 831.624 183.323 822.15C183.327 806.995 169.456 801.509 159.64 801.02Z" fill="#91512A"/>
<path d="M183.652 817.776C180.673 813.146 177.267 808.728 173.467 804.567C169.517 802.475 165.027 801.256 160.397 801.02C157.28 800.971 154.379 800.96 151.631 800.986H151.043C148.295 800.96 145.394 800.986 142.277 801.02C140.223 801.127 138.19 801.426 136.212 801.912C135.365 802.962 134.467 804.106 133.514 805.359C136.046 805.136 135.637 808.792 136.401 810.671C136.956 812.639 138.369 813.714 140.785 813.763C143.928 813.737 147.288 813.165 148.198 815.854C148.67 817.304 149.547 818.448 151.751 818.694C155.665 818.694 156.845 821.077 157.583 823.755C158.54 826.406 160.002 828.572 163.262 829.29C165.355 829.421 166.442 830.72 166.688 833.008C167.21 837.299 169.948 839.035 172.872 840.58C174.507 842.794 175.977 845.094 177.275 847.468C186.068 858.746 189.926 835.053 184.078 822.147C184.081 820.682 183.939 819.22 183.652 817.776Z" fill="#66391E"/>
<path d="M206.332 864.424C198.948 838.108 192.322 813.809 173.789 801.672C152.505 789.841 142.22 793.605 123.185 800.502C106.739 812.853 97.4112 830.957 90.9512 850.694H116.399C116.507 849.761 116.757 848.845 117.144 847.968C116.718 844.976 116.399 842.187 116.227 839.673C117.16 837.487 118.27 835.36 119.55 833.308C122.208 831.698 124.67 829.939 124.534 826.192C124.435 824.189 125.315 822.971 127.372 822.656C130.499 821.721 131.619 819.715 132.167 817.341C132.5 814.967 133.31 812.816 137.192 812.424C139.335 811.998 140.033 810.928 140.282 809.635C140.777 807.235 142.276 805.611 145.38 805.33C145.844 805.278 146.299 805.182 146.739 805.044C147.158 806.683 148.371 807.687 150.497 807.971C153.618 808.297 155.1 810.167 155.598 812.933C155.844 814.427 156.545 815.659 158.689 816.149C162.567 816.6 163.381 819.078 163.71 821.818C164.258 824.553 165.372 826.861 168.509 827.939C170.562 828.303 171.446 829.71 171.346 832.01C171.213 836.332 173.673 838.351 176.331 840.211C177.614 842.59 178.724 845.035 179.654 847.533C179.478 850.431 179.162 853.686 178.734 857.133C179.657 859.559 179.923 862.133 178.564 864.421L206.332 864.424Z" fill="#2E2232"/>
<path d="M110.684 829.73C106.869 831.446 106.175 836.73 109.126 841.521C112.077 846.312 117.56 848.806 121.371 847.087C125.183 845.368 125.884 840.091 122.933 835.296C119.982 830.502 114.499 828.014 110.684 829.73Z" fill="#91512A"/>
<path d="M117.768 844.973H117.502C114.639 844.973 112.318 846.971 112.318 849.436V855.957C112.318 858.422 114.639 860.42 117.502 860.42H117.768C120.631 860.42 122.952 858.422 122.952 855.957V849.436C122.952 846.971 120.631 844.973 117.768 844.973Z" fill="#F59B5B"/>
<path d="M837.289 496L810.207 427.845C806.627 419.564 797.257 414.198 785.857 412.788C785.685 412.736 785.525 412.747 785.346 412.702L738.56 406.183H697.126L649.809 412.81C649.547 412.882 649.291 412.928 649.032 413.005C638.253 414.658 629.467 419.907 626.027 427.862L598.955 496H837.289Z" fill="#72767F" fill-opacity="0.5"/>
<path d="M807.442 421.842C791.919 399.917 761.888 399.579 760.247 370.986C765.145 357.041 765.494 344.621 763.9 332.856C760.599 314.401 746.58 298.188 738 293.448C728.749 286.932 706.037 285.299 693.485 293.448C678.695 303.892 669.478 315.571 667.163 332.856C665.327 345.502 666.795 357.531 672.808 371.115C670.099 398.189 641.22 400.371 626.019 421.842C621.463 429.279 617.418 437.002 616.502 446.708C675.591 478.172 740.411 486.253 816.925 446.708C816.052 437.014 812.008 429.268 807.442 421.842Z" fill="#C54160"/>
<path d="M692.346 367.729L714.032 412.457L736.907 369.296L692.346 367.729Z" fill="#EB5276"/>
<path d="M724.307 308.592C721.319 308.549 718.536 308.537 715.9 308.563H715.338C712.699 308.537 709.916 308.549 706.931 308.592C697.52 309.041 684.218 314.069 684.225 327.965C684.175 336.65 688.359 363.844 692.347 367.725C698.228 374.224 709.916 378.933 714.953 379.133L716.281 379.087C721.319 378.887 733.007 374.224 738.887 367.725C742.872 363.841 747.056 336.647 747.006 327.965C747.009 314.075 733.727 309.041 724.307 308.592Z" fill="#A95E1F"/>
<path d="M684.443 323.864C705.446 307.184 725.85 307.313 746.537 323.578C746.179 315.594 735.111 301.875 716.855 300.342C699.751 300.11 686.047 314.107 684.443 323.864Z" fill="#72767F" fill-opacity="0.5"/>
<path d="M746.494 323.537C725.907 307.381 705.602 307.198 684.699 323.666C684.46 324.716 684.313 325.78 684.258 326.849C705.018 314.998 725.698 315.147 746.979 326.978C746.926 325.822 746.764 324.671 746.494 323.537Z" fill="#944B10"/>
<path d="M280.107 248.256C278.306 229.663 265.751 188.29 221.999 180.295L170.9 172.04L118.21 172.063L67.1173 180.289C23.369 188.299 10.8011 229.663 9 248.256H280.107Z" fill="#04475C"/>
<path d="M122.739 139.142L122.543 170.578C122.493 178.361 131.785 184.72 146.719 184.803C161.652 184.886 171.024 178.627 171.073 170.844L171.273 139.408L122.739 139.142Z" fill="#F29E57"/>
<path d="M169.026 175.601C171.163 173.459 171.056 168.988 171.073 166.267L171.272 134.831L122.739 134.565L122.619 156.139L169.026 175.601Z" fill="#D38448"/>
<path d="M176.338 69.7649H119.845C116.175 69.7649 113.199 72.3262 113.199 75.4858V126.688C113.199 129.847 116.175 132.408 119.845 132.408H176.338C180.008 132.408 182.984 129.847 182.984 126.688V75.4858C182.984 72.3262 180.008 69.7649 176.338 69.7649Z" fill="#E59C5B"/>
<path d="M148.068 69.682L113.199 95.0942V98.5267L142.672 80.0997C144.241 79.1198 146.131 78.5921 148.07 78.5921C150.009 78.5921 151.899 79.1198 153.468 80.0997L182.984 98.561V95.1285L148.068 69.682Z" fill="#D38448"/>
<path d="M179.57 85.7833L179.826 112.085C175.144 113.664 172.166 116.513 172.539 121.856L172.419 129.168L168.737 129.946L168.754 127.943C168.772 126.588 168.48 125.244 167.893 123.986C167.307 122.729 166.438 121.583 165.336 120.615C164.234 119.648 162.921 118.877 161.473 118.346C160.024 117.816 158.468 117.537 156.894 117.526H139.245C137.666 117.527 136.105 117.801 134.652 118.333C133.2 118.865 131.887 119.643 130.791 120.621C129.688 121.59 128.819 122.738 128.234 123.999C127.649 125.259 127.361 126.606 127.385 127.963L127.405 129.946L123.719 129.165L123.603 121.851C123.972 116.507 120.998 113.655 116.312 112.076L115.857 85.7833H109.477L110.018 136.854C110.051 138.849 110.728 140.797 111.972 142.48C113.217 144.164 114.981 145.517 117.067 146.387L141.538 159.92C143.514 160.931 145.77 161.465 148.069 161.465C150.368 161.465 152.624 160.931 154.601 159.92L179.072 146.387C181.159 145.518 182.923 144.166 184.168 142.482C185.413 140.798 186.089 138.849 186.12 136.854L186.682 85.7833H179.57Z" fill="#36263B"/>
<path d="M174.922 48.8436L196.442 64.659C197.891 65.7178 198.911 67.1451 199.357 68.7351C199.799 70.3162 199.64 71.9778 198.901 73.4749L186.639 98.6553L145.832 68.9067L174.922 48.8436Z" fill="#EB5276"/>
<path d="M150.772 30.8086C149.898 30.2483 148.826 29.9641 147.737 30.0036C146.648 30.0432 145.607 30.4042 144.791 31.0259L130.116 42.3046L99.6968 64.6618C98.2485 65.7206 97.228 67.1479 96.7825 68.738C96.3418 70.3218 96.5048 71.9856 97.2477 73.4834L109.5 98.6553L176.457 49.8362L150.772 30.8086Z" fill="#EB5276"/>
</svg>
