<svg width="438" height="270" viewBox="0 0 438 270" fill="none" xmlns="http://www.w3.org/2000/svg">
<path fill-rule="evenodd" clip-rule="evenodd" d="M133.259 267.381H319.316C291.477 89.5958 266.247 0.703369 243.626 0.703369C209.693 0.703369 197.271 56.0544 178.658 77.431C160.045 98.8077 149.223 108.246 118.79 92.8386C88.357 77.431 25.0283 83.9644 25.0283 135.598C25.0283 170.02 33.9282 213.892 51.7278 267.213L133.259 267.381Z" fill="#E2F5FB"/>
<path fill-rule="evenodd" clip-rule="evenodd" d="M204.266 267.386C219.35 213.182 229.959 186.081 236.091 186.081C245.29 186.081 274.6 209.83 283.23 209.83C288.984 209.83 304.646 229.015 330.216 267.386H204.266Z" fill="#3D9EBC"/>
<path fill-rule="evenodd" clip-rule="evenodd" d="M9.53769 244.08C20.3323 251.808 31.3073 259.004 43.4676 264.208C42.9601 263.687 42.4499 263.081 41.808 262.858C41.2618 262.669 40.9477 262.376 40.624 261.973C40.0996 261.319 39.5796 260.655 39.0028 260.049C36.684 257.608 34.2857 255.242 32.0263 252.747C28.6171 248.983 24.881 245.61 20.6928 242.755C19.0873 241.661 17.4112 240.685 15.4703 240.291C14.545 240.104 13.671 240.226 12.8548 240.699C11.4818 241.494 10.4448 242.626 9.53769 244.08ZM43.8854 265.812C43.9031 265.723 43.9213 265.634 43.9391 265.545C31.451 260.163 20.1058 252.823 9.02582 244.903C8.83003 245.192 8.64716 245.414 8.51636 245.664C8.03517 246.582 7.5782 247.514 7.09942 248.435C6.48703 249.612 6.63962 250.625 7.53823 251.638C10.5227 255.008 14.0235 257.672 18.0773 259.582C21.1489 261.03 24.3377 262.171 27.6071 263.081C31.7832 264.244 36.053 264.892 40.3454 265.408C41.5246 265.549 42.7054 265.677 43.8854 265.812ZM45.4892 264.296C45.5409 264.243 45.5922 264.189 45.6434 264.136C45.5591 263.861 45.4807 263.585 45.3903 263.312C43.8325 258.635 42.3534 253.933 41.2146 249.131C38.8865 239.317 36.5754 229.499 34.255 219.683C34.1779 219.358 34.075 219.038 33.9527 218.605C33.6967 218.879 33.5231 219.023 33.4008 219.202C32.5276 220.486 31.6319 221.757 30.8075 223.073C29.9602 224.427 29.6377 225.92 29.7063 227.535C29.8375 230.622 30.1624 233.683 30.7264 236.72C31.5911 241.373 32.9265 245.859 35.2097 250.03C36.4543 252.304 37.7162 254.575 38.8155 256.921C39.9058 259.247 41.4802 261.108 43.4744 262.659C44.1575 263.19 44.8183 263.75 45.4892 264.296ZM46.9716 264.388C47.043 264.377 47.1145 264.366 47.1855 264.355C47.1351 263.06 47.0995 261.765 47.0317 260.471C46.7168 254.435 46.4161 248.398 46.0616 242.365C45.8864 239.382 45.6765 236.397 45.3528 233.428C44.9438 229.683 44.434 225.949 43.9056 222.22C43.6004 220.069 43.1943 217.93 42.7873 215.795C42.6033 214.83 42.2286 213.927 41.5056 213.218C40.5873 212.317 40.0455 212.258 39.1009 213.139C37.8943 214.263 36.7829 215.492 35.5787 216.619C34.9352 217.222 34.7996 217.801 35.0224 218.675C36.3284 223.803 37.5846 228.943 38.8175 234.089C39.8687 238.475 40.8404 242.88 41.8924 247.266C43.0522 252.096 44.4182 256.867 46.0366 261.564C46.3596 262.501 46.6607 263.447 46.9716 264.388ZM47.9856 265.615C48.0022 265.718 48.0183 265.821 48.0345 265.924C48.6271 266.016 49.2189 266.178 49.8127 266.185C52.0685 266.21 54.3279 266.25 56.5817 266.162C59.835 266.034 63.0831 265.786 66.3348 265.617C68.5575 265.501 70.7826 265.434 73.0065 265.345C77.2287 265.177 81.4496 264.98 85.673 264.85C91.0889 264.683 96.5092 264.6 101.867 263.652C103.421 263.377 104.968 263.071 106.419 262.392C107.442 261.913 107.998 261.178 107.867 260.016C107.729 258.791 107.61 257.561 107.398 256.348C107.21 255.273 106.905 254.218 106.644 253.12C106.381 253.172 106.228 253.199 106.075 253.232C100.436 254.454 94.7991 255.685 89.158 256.895C84.116 257.977 79.0743 259.06 74.0238 260.101C68.566 261.226 63.096 262.294 57.6349 263.403C54.7292 263.994 51.8299 264.614 48.9311 265.237C48.6041 265.308 48.3001 265.486 47.9856 265.615ZM49.3101 263.931C49.346 264.016 49.3816 264.1 49.4171 264.185C68.3609 260.115 87.4133 256.562 106.306 252.03C105.775 250.302 105.162 248.701 104.301 247.206C103.682 246.131 102.816 245.297 101.638 244.911C100.602 244.571 99.5344 244.271 98.4574 244.129C95.4677 243.735 92.4622 243.818 89.4753 244.156C83.2844 244.856 77.3135 246.454 71.5843 248.911C63.7968 252.249 56.7553 256.758 50.6302 262.672C50.193 263.095 49.7501 263.511 49.3101 263.931ZM107.466 251.815C108.106 251.698 108.641 251.601 109.176 251.502C109.335 251.473 109.491 251.425 109.65 251.403C109.945 251.362 110.262 251.325 110.365 251.704C110.468 252.082 110.201 252.23 109.904 252.316C109.594 252.406 109.277 252.469 108.965 252.549C108.597 252.644 108.231 252.745 107.808 252.858C107.861 253.181 107.899 253.429 107.945 253.676C108.26 255.365 108.58 257.054 108.889 258.745C108.937 258.999 108.937 259.262 108.964 259.52C109.219 261.983 107.984 262.905 106.392 263.571C104.53 264.35 102.545 264.644 100.571 264.955C95.8063 265.704 90.9956 265.767 86.1921 265.942C81.7738 266.104 77.3554 266.268 72.9379 266.449C69.3261 266.597 65.7159 266.769 62.1058 266.936C59.108 267.075 56.1122 267.276 53.1136 267.346C51.5086 267.384 49.8971 267.219 48.29 267.119C46.4879 267.006 44.6839 266.902 42.8871 266.727C34.9954 265.956 27.2377 264.622 19.8571 261.507C14.8292 259.385 10.4371 256.421 6.84066 252.285C6.60773 252.016 6.38409 251.736 6.18386 251.442C5.54321 250.502 5.49921 249.482 5.95215 248.476C6.48461 247.294 7.06632 246.132 7.69284 244.999C7.96412 244.508 8.12196 244.087 7.75622 243.639C7.82404 243.536 7.85916 243.436 7.89428 243.436C8.62738 243.432 8.95558 242.896 9.37057 242.404C9.99466 241.666 10.6648 240.95 11.4011 240.328C12.812 239.138 14.4344 238.86 16.2163 239.359C17.7592 239.791 19.1636 240.508 20.4946 241.37C24.7781 244.146 28.6216 247.45 32.0683 251.226C33.465 252.758 34.8799 254.272 36.2936 255.787C36.6436 256.163 37.0199 256.512 37.5128 256.806C37.4518 256.619 37.4163 256.42 37.3271 256.248C36.0587 253.8 34.7625 251.367 33.5147 248.909C31.4813 244.905 30.4252 240.594 29.6393 236.2C29.1238 233.317 28.8779 230.407 28.7374 227.486C28.6583 225.853 28.9558 224.288 29.8205 222.911C30.8701 221.24 32.0037 219.619 33.1703 218.027C33.5332 217.532 33.7076 217.125 33.5066 216.533C33.3197 215.983 33.2022 215.407 33.0734 214.837C32.9862 214.454 32.6714 213.92 33.2672 213.774C33.8412 213.633 33.8416 214.269 33.9757 214.632C34.1646 215.146 34.2946 215.682 34.4835 216.321C34.7407 216.106 34.9389 215.963 35.1112 215.792C36.1463 214.767 37.1491 213.708 38.2132 212.714C39.8307 211.205 41.2937 211.375 42.615 213.173C43.346 214.167 43.6827 215.327 43.8825 216.512C44.4275 219.745 44.9523 222.982 45.421 226.227C45.8243 229.022 46.1945 231.825 46.4791 234.634C46.7738 237.541 46.9804 240.459 47.1682 243.376C47.4374 247.558 47.6619 251.743 47.8899 255.927C47.9993 257.939 48.0756 259.952 48.1596 261.965C48.177 262.382 48.162 262.799 48.162 263.256C48.6901 263.268 48.8689 262.916 49.1172 262.7C51.3616 260.746 53.5149 258.675 55.8575 256.849C60.9351 252.891 66.529 249.807 72.4874 247.399C77.0834 245.541 81.8351 244.23 86.721 243.441C90.5245 242.826 94.3591 242.616 98.2002 243.017C99.3136 243.133 100.419 243.423 101.5 243.735C103.405 244.286 104.769 245.534 105.612 247.324C106.15 248.467 106.599 249.651 107.083 250.818C107.206 251.116 107.314 251.42 107.466 251.815Z" fill="black"/>
<path fill-rule="evenodd" clip-rule="evenodd" d="M334.102 244.08C344.897 251.808 355.872 259.004 368.032 264.208C367.525 263.687 367.014 263.081 366.372 262.858C365.826 262.669 365.512 262.376 365.188 261.973C364.664 261.319 364.144 260.655 363.567 260.049C361.248 257.608 358.85 255.242 356.591 252.747C353.182 248.983 349.445 245.61 345.257 242.755C343.652 241.661 341.976 240.685 340.035 240.291C339.109 240.104 338.235 240.226 337.419 240.699C336.046 241.494 335.009 242.626 334.102 244.08ZM368.45 265.812C368.468 265.723 368.486 265.634 368.503 265.545C356.015 260.163 344.67 252.823 333.59 244.903C333.394 245.192 333.212 245.414 333.081 245.664C332.6 246.582 332.143 247.514 331.664 248.435C331.051 249.612 331.204 250.625 332.103 251.638C335.087 255.008 338.588 257.672 342.642 259.582C345.713 261.03 348.902 262.171 352.172 263.081C356.348 264.244 360.617 264.892 364.91 265.408C366.089 265.549 367.27 265.677 368.45 265.812ZM370.054 264.296C370.105 264.243 370.157 264.189 370.208 264.136C370.123 263.861 370.045 263.585 369.955 263.312C368.397 258.635 366.918 253.933 365.779 249.131C363.451 239.317 361.14 229.499 358.819 219.683C358.742 219.358 358.639 219.038 358.517 218.605C358.261 218.879 358.088 219.023 357.965 219.202C357.092 220.486 356.196 221.757 355.372 223.073C354.525 224.427 354.202 225.92 354.271 227.535C354.402 230.622 354.727 233.683 355.291 236.72C356.156 241.373 357.491 245.859 359.774 250.03C361.019 252.304 362.281 254.575 363.38 256.921C364.47 259.247 366.045 261.108 368.039 262.659C368.722 263.19 369.383 263.75 370.054 264.296ZM371.536 264.388C371.607 264.377 371.679 264.366 371.75 264.355C371.699 263.06 371.664 261.765 371.596 260.471C371.281 254.435 370.981 248.398 370.626 242.365C370.451 239.382 370.241 236.397 369.917 233.428C369.508 229.683 368.998 225.949 368.47 222.22C368.165 220.069 367.759 217.93 367.352 215.795C367.168 214.83 366.793 213.927 366.07 213.218C365.152 212.317 364.61 212.258 363.665 213.139C362.459 214.263 361.347 215.492 360.143 216.619C359.5 217.222 359.364 217.801 359.587 218.675C360.893 223.803 362.149 228.943 363.382 234.089C364.433 238.475 365.405 242.88 366.457 247.266C367.617 252.096 368.983 256.867 370.601 261.564C370.924 262.501 371.225 263.447 371.536 264.388ZM372.55 265.615C372.567 265.718 372.583 265.821 372.599 265.924C373.191 266.016 373.783 266.178 374.377 266.185C376.633 266.21 378.892 266.25 381.146 266.162C384.399 266.034 387.647 265.786 390.899 265.617C393.122 265.501 395.347 265.434 397.571 265.345C401.793 265.177 406.014 264.98 410.237 264.85C415.653 264.683 421.074 264.6 426.431 263.652C427.985 263.377 429.533 263.071 430.983 262.392C432.006 261.913 432.562 261.178 432.432 260.016C432.294 258.791 432.175 257.561 431.963 256.348C431.774 255.273 431.47 254.218 431.208 253.12C430.945 253.172 430.792 253.199 430.64 253.232C425.001 254.454 419.364 255.685 413.722 256.895C408.68 257.977 403.639 259.06 398.588 260.101C393.13 261.226 387.66 262.294 382.199 263.403C379.294 263.994 376.394 264.614 373.495 265.237C373.168 265.308 372.865 265.486 372.55 265.615ZM373.875 263.931C373.91 264.016 373.946 264.1 373.982 264.185C392.925 260.115 411.978 256.562 430.87 252.03C430.339 250.302 429.726 248.701 428.865 247.206C428.247 246.131 427.38 245.297 426.202 244.911C425.167 244.571 424.099 244.271 423.022 244.129C420.032 243.735 417.027 243.818 414.04 244.156C407.849 244.856 401.878 246.454 396.149 248.911C388.361 252.249 381.32 256.758 375.195 262.672C374.757 263.095 374.315 263.511 373.875 263.931ZM432.03 251.815C432.67 251.698 433.206 251.601 433.74 251.502C433.899 251.473 434.055 251.425 434.214 251.403C434.509 251.362 434.826 251.325 434.93 251.704C435.032 252.082 434.765 252.23 434.468 252.316C434.159 252.406 433.841 252.469 433.529 252.549C433.162 252.644 432.795 252.745 432.372 252.858C432.426 253.181 432.464 253.429 432.51 253.676C432.825 255.365 433.144 257.054 433.454 258.745C433.501 258.999 433.502 259.262 433.528 259.52C433.783 261.983 432.549 262.905 430.957 263.571C429.094 264.35 427.11 264.644 425.135 264.955C420.371 265.704 415.56 265.767 410.757 265.942C406.338 266.104 401.92 266.268 397.502 266.449C393.891 266.597 390.28 266.769 386.67 266.936C383.672 267.075 380.677 267.276 377.678 267.346C376.073 267.384 374.461 267.219 372.854 267.119C371.052 267.006 369.248 266.902 367.451 266.727C359.56 265.956 351.802 264.622 344.422 261.507C339.394 259.385 335.002 256.421 331.405 252.285C331.172 252.016 330.949 251.736 330.748 251.442C330.108 250.502 330.064 249.482 330.517 248.476C331.049 247.294 331.631 246.132 332.257 244.999C332.529 244.508 332.686 244.087 332.321 243.639C332.388 243.536 332.424 243.436 332.459 243.436C333.192 243.432 333.52 242.896 333.935 242.404C334.559 241.666 335.229 240.95 335.966 240.328C337.376 239.138 338.999 238.86 340.781 239.359C342.324 239.791 343.728 240.508 345.059 241.37C349.343 244.146 353.186 247.45 356.633 251.226C358.029 252.758 359.444 254.272 360.858 255.787C361.208 256.163 361.584 256.512 362.077 256.806C362.016 256.619 361.981 256.42 361.892 256.248C360.623 253.8 359.327 251.367 358.079 248.909C356.046 244.905 354.99 240.594 354.204 236.2C353.688 233.317 353.442 230.407 353.302 227.486C353.223 225.853 353.52 224.288 354.385 222.911C355.435 221.24 356.568 219.619 357.735 218.027C358.098 217.532 358.272 217.125 358.071 216.533C357.884 215.983 357.767 215.407 357.638 214.837C357.551 214.454 357.236 213.92 357.832 213.774C358.406 213.633 358.406 214.269 358.54 214.632C358.729 215.146 358.859 215.682 359.048 216.321C359.305 216.106 359.503 215.963 359.676 215.792C360.711 214.767 361.713 213.708 362.778 212.714C364.395 211.205 365.858 211.375 367.179 213.173C367.91 214.167 368.247 215.327 368.447 216.512C368.992 219.745 369.517 222.982 369.985 226.227C370.389 229.022 370.759 231.825 371.043 234.634C371.338 237.541 371.545 240.459 371.733 243.376C372.002 247.558 372.226 251.743 372.454 255.927C372.564 257.939 372.64 259.952 372.724 261.965C372.741 262.382 372.726 262.799 372.726 263.256C373.254 263.268 373.433 262.916 373.682 262.7C375.926 260.746 378.079 258.675 380.422 256.849C385.499 252.891 391.093 249.807 397.052 247.399C401.648 245.541 406.4 244.23 411.285 243.441C415.089 242.826 418.924 242.616 422.765 243.017C423.878 243.133 424.984 243.423 426.064 243.735C427.969 244.286 429.334 245.534 430.176 247.324C430.714 248.467 431.163 249.651 431.648 250.818C431.771 251.116 431.879 251.42 432.03 251.815Z" fill="black"/>
<path d="M247.46 100.71C250.119 84.318 254.41 78.8542 260.334 84.318C269.22 92.5138 275.415 102.381 282.984 96.3399C290.554 90.2985 293.021 69.0002 304.631 69.0002C312.371 69.0002 316.997 70.8566 318.509 74.5695" stroke="#333333"/>
<path fill-rule="evenodd" clip-rule="evenodd" d="M123.203 143.983C130.238 141.719 134.701 140.559 136.59 140.502C139.424 140.416 146.109 141.189 154.553 141.933C160.182 142.429 164.17 141.923 166.516 140.416L184.445 185.774C185.333 187.706 185.776 188.976 185.776 189.583C185.776 190.19 186.467 203.277 187.847 228.843H190.075V233.868V234.858C184.746 234.858 181.481 234.858 180.282 234.858C179.083 234.858 175.435 235.429 169.337 236.571L168.955 230.964L170.491 230.294L165.319 190.708L159.828 179.543L148.778 158.844H143.917L142.963 162.821L141.366 233.11L143.858 233.868L144.524 242.374L129.051 243.491L116.429 243.386V236.571H118.239L123.203 143.983Z" fill="white"/>
<path fill-rule="evenodd" clip-rule="evenodd" d="M136.966 93.2989C136.966 93.2989 122.526 97.2525 119.223 99.7955C115.172 102.914 107.838 105.909 107.838 105.909L102.065 109.86C102.065 109.86 107.091 118.565 110.519 125.041C113.621 121.796 123.926 118.63 124.416 118.544C125.729 118.312 124.161 143.392 124.161 143.392C124.034 144.999 129.177 139.272 141.252 140.593C149.053 141.446 168.712 139.031 168.712 139.031C168.712 139.031 167.813 136.554 166.279 129.266C166.257 129.16 164.735 120.456 165.539 119.313C168.512 119.501 172.03 115.853 175.635 113.549C176.804 108.906 177.855 106.719 177.855 106.719L161.36 89.4385C161.36 89.4385 150.201 90.2014 149.065 92.5335C149.945 95.1601 149.895 102.277 145.422 102.386C140.95 102.497 136.966 93.2989 136.966 93.2989Z" fill="#EB5276"/>
<path fill-rule="evenodd" clip-rule="evenodd" d="M168.863 243.857C168.863 243.857 172.715 251.775 172.396 253.524C172.076 255.273 170.485 263.436 170.485 263.436H208.107C208.107 263.436 209.697 255.076 205.491 253.093C201.286 251.111 189.402 249.415 189.612 248.365C189.823 247.316 190.459 241.53 190.459 241.53L168.863 243.857Z" fill="#F4D916"/>
<path fill-rule="evenodd" clip-rule="evenodd" d="M120.642 265.53C120.642 265.53 122.433 256.984 122.836 253.407C123.145 250.663 120.477 248.444 120.477 248.444L125.691 248.726L138.46 247.747C138.46 247.747 137.9 254.99 140.207 255.924C142.513 256.858 143.44 258.405 144.753 259.838C146.392 261.626 146.392 265.372 146.392 265.372L120.642 265.53Z" fill="#F4D916"/>
<path fill-rule="evenodd" clip-rule="evenodd" d="M120.598 265.521C121.033 266.007 121.033 266.007 121.568 265.521H120.598ZM122.481 265.461C122.946 266.333 123.671 266.318 124.426 265.461H122.481ZM131.549 249.919C131.548 249.994 131.546 250.068 131.545 250.142C132.137 250.231 132.729 250.32 133.433 250.426C133.383 250.063 133.353 249.839 133.316 249.565C132.666 249.695 132.108 249.807 131.549 249.919ZM133.594 251.269C132.574 251.082 131.633 250.993 130.745 250.724C129.526 250.357 128.478 250.722 127.44 251.218V253.644C129.592 253.214 131.697 252.794 133.872 252.36C133.796 252.062 133.701 251.688 133.594 251.269ZM146.063 265.429C139.023 265.062 132.109 265.1 125.153 265.482C125.491 265.872 125.836 266.221 126.25 266.416C127.012 266.773 127.54 265.977 128.253 265.86C128.389 266.006 128.516 266.15 128.651 266.286C129.095 266.73 129.254 266.744 129.713 266.366C129.864 266.242 129.975 266.025 130.14 265.974C130.359 265.906 130.72 265.855 130.835 265.977C131.62 266.819 132.412 266.536 133.199 266.045C133.638 265.771 133.998 265.786 134.45 266.048C135.252 266.513 136.048 266.467 136.77 265.807C136.929 265.662 137.141 265.578 137.326 265.466C138.414 266.324 139.512 266.284 140.614 265.64C140.967 265.434 141.245 265.505 141.607 265.628C142.048 265.776 142.592 265.92 142.999 265.781C143.614 265.569 144.085 265.632 144.641 265.925C145.264 266.252 145.554 266.117 146.063 265.429ZM133.435 248.738C133.209 248.222 133.076 247.853 132.891 247.515C132.787 247.327 132.624 247.139 132.442 247.036C130.707 246.055 128.917 246.113 127.124 246.833C126.517 247.077 126.423 247.372 126.525 248.114C126.647 249.011 126.829 249.223 127.494 249.378C128.645 249.646 129.766 249.675 130.915 249.28C131.698 249.012 132.541 248.924 133.435 248.738ZM137.918 247.008C136.837 247.207 135.739 247.391 134.649 247.619C134.106 247.732 134.159 248.113 134.322 248.514C135.84 248.415 135.84 248.415 136.226 248.786C135.957 249.216 135.708 249.579 135.085 249.302C134.858 249.201 134.532 249.339 134.161 249.377C134.205 249.793 134.242 250.136 134.27 250.399C134.917 250.835 135.273 250.421 135.634 250.037C136.126 250.606 135.535 250.897 135.525 251.307C135.311 251.331 135.155 251.35 134.998 251.367C134.844 251.383 134.69 251.397 134.534 251.412C134.699 252.642 134.783 252.718 135.824 252.935C136.453 253.066 137.069 253.261 137.693 253.42C138.025 253.504 138.362 253.573 138.66 253.641C138.379 252.508 137.998 251.448 137.878 250.359C137.757 249.267 137.894 248.144 137.918 247.008ZM137 243.896C131.931 244.147 126.962 244.393 121.918 244.642C121.98 245.529 121.828 246.35 122.222 247.188C123.064 247.217 123.9 247.231 124.733 247.279C125.302 247.311 125.805 247.296 126.122 246.676C126.228 246.467 126.503 246.31 126.735 246.215C128.91 245.329 131.045 245.156 133.081 246.63C133.306 246.793 133.599 247 133.838 246.973C134.85 246.856 135.853 246.659 136.865 246.491C136.913 245.564 136.954 244.778 137 243.896ZM120.762 247.796C120.791 248.051 120.79 248.245 120.838 248.426C121.09 249.381 121.345 250.336 121.616 251.286C122.065 252.86 122.293 254.443 121.926 256.073C121.88 256.275 121.919 256.497 121.919 256.748C123.41 255.928 124.824 255.157 126.226 254.366C126.374 254.283 126.526 254.086 126.552 253.923C126.673 253.148 126.771 252.365 126.527 251.473C126.164 251.616 125.853 251.786 125.522 251.848C125.354 251.88 125.151 251.72 124.964 251.646C125.05 251.491 125.099 251.266 125.229 251.193C125.591 250.99 125.987 250.851 126.351 250.695C126.484 250.147 126.269 249.904 125.786 249.874C125.564 249.86 125.34 249.878 125.12 249.849C125.044 249.839 124.929 249.74 124.92 249.669C124.904 249.555 124.925 249.366 124.996 249.324C125.264 249.163 125.56 249.049 125.839 248.919C125.579 248.011 125.579 248.005 124.848 247.977C124.333 247.958 123.816 247.972 123.301 247.948C122.473 247.908 121.647 247.85 120.762 247.796ZM123.802 151.737C125.944 151.494 128.693 149.42 129.827 147.291C130.794 145.478 131.22 143.415 130.776 142.506C128.776 143.203 126.762 143.889 124.763 144.62C124.548 144.699 124.294 145.022 124.274 145.252C124.092 147.381 123.957 149.514 123.802 151.737ZM160.24 142.635C160.998 146.041 166.448 150.084 169.353 149.38C168.475 146.579 167.597 143.778 166.733 141.025C164.588 141.557 162.413 142.096 160.24 142.635ZM173.202 264.449C173.455 264.63 173.678 264.814 173.923 264.961C174.812 265.494 175.752 265.715 176.648 265.064C177.184 264.675 177.62 264.672 178.149 264.998C178.422 265.165 178.737 265.273 179.045 265.364C179.759 265.573 180.433 265.523 181.069 265.06C181.791 264.534 181.805 264.554 182.547 265.11C183.529 265.846 184.499 265.922 185.506 265.246C185.949 264.949 186.302 264.914 186.738 265.204C187.553 265.746 188.366 265.633 189.046 264.988C189.622 264.442 190.09 264.434 190.744 264.865C191.745 265.522 192.886 265.744 193.951 265.09C194.678 264.643 195.227 264.755 195.905 265.123C197.391 265.93 198.923 266.04 200.426 265.152C200.917 264.862 201.295 264.863 201.713 265.283C202.457 266.029 203.334 266.125 204.313 265.809C204.691 265.688 205.135 265.649 205.523 265.721C206.724 265.946 207.382 265.387 207.34 263.96H170.829C171.049 265.503 171.613 265.651 173.202 264.449ZM177.114 107.034C177.036 107.003 176.959 106.97 176.882 106.938C176.554 107.14 176.215 107.323 175.902 107.546C173.072 109.565 170.251 111.596 167.418 113.611C166.604 114.19 165.76 114.727 164.857 115.333C165.076 116.66 165.31 118.072 165.539 119.456C165.676 119.467 165.715 119.483 165.738 119.47C168.462 117.969 171.192 116.48 173.902 114.952C174.519 114.605 175.083 114.151 175.636 113.699C175.815 113.553 175.926 113.271 175.988 113.03C176.196 112.234 176.399 111.434 176.546 110.624C176.761 109.432 176.927 108.231 177.114 107.034ZM115.008 123.46C112.361 117.739 110.56 111.689 106.814 106.617C105.268 107.713 103.215 109.588 102.772 110.3C106.11 115.009 108.507 120.289 111.321 125.384C112.566 124.734 113.711 124.137 115.008 123.46ZM170.02 236.901C173.365 236.386 176.595 235.779 179.851 235.418C183.136 235.054 186.447 234.934 189.711 234.71V229.171C188.82 229.252 188.051 229.308 187.285 229.394C184.116 229.748 180.945 230.089 177.779 230.476C175.286 230.781 172.799 231.15 170.309 231.481C169.919 231.533 169.739 231.733 169.737 232.129C169.729 233.707 169.691 235.287 170.02 236.901ZM121.997 138.023C122.166 136.631 122.296 135.29 122.497 133.96C122.823 131.809 123.327 129.677 123.516 127.515C123.733 125.021 123.691 122.503 123.754 119.996C123.756 119.917 123.676 119.838 123.611 119.714C121.227 120.843 118.868 121.959 116.485 123.088C116.471 123.278 116.456 123.496 116.446 123.639C114.701 124.52 113.023 125.368 111.308 126.234C112.025 127.011 112.736 127.688 113.342 128.453C115.998 131.81 119.256 134.6 121.878 137.988C121.894 138.008 121.936 138.006 121.997 138.023ZM143.534 234.291C142.974 234.291 142.59 234.278 142.208 234.293C140.628 234.354 139.047 234.408 137.468 234.497C136.373 234.558 135.261 234.567 134.192 234.786C132.046 235.225 129.91 235.74 127.795 236.317C124.877 237.114 121.934 237.607 118.905 237.46C118.335 237.432 117.762 237.456 117.14 237.456C116.806 239.452 116.81 241.418 116.844 243.461C117.22 243.532 117.528 243.623 117.841 243.642C118.999 243.715 120.161 243.84 121.318 243.807C125.221 243.695 129.128 243.602 133.023 243.351C136.175 243.149 139.315 242.739 142.458 242.399C143.05 242.334 143.631 242.165 144.21 242.046C143.981 239.418 143.764 236.932 143.534 234.291ZM146.149 264.641C146.231 264.324 146.351 264.053 146.365 263.776C146.417 262.74 146.322 261.711 145.855 260.779C144.928 258.929 143.657 257.351 142.007 256.135C140.358 254.918 138.452 254.311 136.498 253.811C134.584 253.321 132.678 253.258 130.749 253.632C127.879 254.187 125.312 255.471 122.882 257.077C122.157 257.557 121.665 258.256 121.337 259.066C120.702 260.634 120.283 262.258 120.155 263.954C120.139 264.171 120.171 264.392 120.181 264.602C120.337 264.651 120.428 264.707 120.517 264.705C129.032 264.505 137.546 264.203 146.149 264.641ZM121.018 144.938C120.991 145.456 120.939 145.871 120.953 146.283C121.003 147.736 121.071 149.187 121.142 150.639C121.183 151.476 120.857 152.071 120.168 152.545C119.07 153.298 118.017 154.121 116.952 154.924C116.743 155.082 116.416 155.212 116.676 155.711C118.383 154.551 120.055 153.415 121.883 152.172C121.883 152.569 121.949 152.787 121.871 152.912C121.511 153.497 121.113 154.059 120.722 154.625C120.455 155.01 120.109 155.234 119.644 155.034C119.199 154.845 118.905 155.021 118.606 155.435C118.843 155.605 119.063 155.792 119.309 155.933C119.994 156.325 120.044 156.312 120.677 155.794C121.788 154.886 122.453 153.761 122.552 152.258C122.72 149.687 122.932 147.117 123.201 144.555C123.356 143.079 123.069 141.746 122.389 140.457C121.509 138.787 120.431 137.278 119.158 135.898C117.163 133.737 115.219 131.526 113.224 129.364C112.25 128.309 111.221 127.306 110.196 126.302C109.848 125.962 109.418 125.71 109.063 125.377C108.959 125.278 108.985 125.036 108.952 124.859C109.122 124.838 109.32 124.751 109.459 124.81C109.727 124.922 109.962 125.117 110.211 125.278C110.264 125.222 110.317 125.166 110.369 125.11C108.043 120.799 105.948 116.353 103.188 112.214C102.843 112.445 102.572 112.615 102.312 112.802C99.8657 114.557 97.7972 116.745 95.7094 118.907C95.1224 119.514 94.5899 120.19 94.1063 120.887C92.6236 123.027 92.3983 125.347 93.3696 127.754C94.4721 130.485 96.2176 132.742 98.6809 134.273C100.576 135.451 102.58 136.477 104.616 137.379C109.527 139.555 114.482 141.627 119.428 143.721C120.109 144.01 120.64 144.444 121.018 144.938ZM188.303 252.066C188.278 251.957 188.224 251.857 188.242 251.773C188.305 251.484 188.379 251.196 188.473 250.916C189.424 248.08 189.38 245.206 188.837 242.3C188.737 241.765 188.493 241.551 187.989 241.6C187.764 241.622 187.541 241.655 187.316 241.678C184.397 241.989 181.481 242.334 178.557 242.598C176.468 242.786 174.369 242.86 172.276 242.998C171.905 243.022 171.538 243.113 171.051 243.193C171.866 246.517 172.198 249.797 172.214 253.104C172.231 256.446 171.652 259.72 170.936 262.97C171.147 263.028 171.239 263.073 171.331 263.075C175.655 263.167 179.978 263.311 184.301 263.332C191.5 263.366 198.699 263.32 205.899 263.307C206.31 263.307 206.722 263.307 207.198 263.307C207.43 262.136 207.754 261.08 207.826 260.005C208 257.444 207.159 255.324 204.922 253.95C204.341 253.594 203.765 253.19 203.133 252.97C201.06 252.247 198.964 251.597 196.874 250.926C196.797 250.902 196.694 250.956 196.595 250.976C196.233 251.709 196.262 252.596 195.74 253.26C195.244 252.912 195.238 252.91 195.36 252.433C195.512 251.84 195.674 251.249 195.851 250.588C195.058 250.362 194.388 250.171 193.646 249.959C193.488 250.673 193.367 251.317 193.192 251.944C193.143 252.117 192.933 252.368 192.799 252.366C192.448 252.361 192.446 252.052 192.501 251.776C192.547 251.551 192.637 251.333 192.676 251.106C192.753 250.666 192.808 250.221 192.871 249.782C191.804 249.29 190.842 248.845 189.831 248.379C189.767 248.645 189.725 248.834 189.675 249.019C189.446 249.879 189.221 250.739 188.981 251.595C188.889 251.923 188.753 252.227 188.303 252.066ZM187.985 80.3462C187.929 80.2834 187.873 80.2201 187.817 80.1568C187.516 80.3247 187.2 80.4708 186.916 80.6639C186.164 81.1748 185.405 81.6803 184.685 82.2371C183.736 82.9706 182.778 83.7036 181.902 84.5235C180.907 85.4534 180.429 86.6659 180.392 88.0583C180.366 89.0135 180.358 89.9745 180.247 90.9214C180.089 92.2642 179.836 93.5954 179.638 94.9332C179.046 98.9152 178.501 102.904 177.856 106.877C177.56 108.696 177.571 110.57 176.955 112.336C176.772 112.863 176.63 113.409 176.512 113.955C175.787 117.343 175.075 120.734 174.35 124.122C174.295 124.382 174.169 124.626 174.031 125.002C173.472 124.495 173.654 124.026 173.74 123.607C174.265 121.056 174.811 118.508 175.341 115.958C175.389 115.73 175.376 115.489 175.399 115.144C174.652 115.485 174.021 115.731 173.428 116.052C171.46 117.116 169.504 118.202 167.549 119.289C167.096 119.541 166.675 119.854 166.218 120.098C165.745 120.352 165.629 120.707 165.707 121.236C165.938 122.813 166.306 124.34 167.05 125.754C167.265 126.161 167.442 126.588 167.652 126.997C169.108 129.833 170.513 132.697 172.044 135.489C173.071 137.36 174.278 139.126 175.764 140.666C177.173 142.126 178.812 142.757 180.848 142.413C183.793 141.916 186.345 139.572 187.054 136.602C187.556 134.501 187.695 132.361 187.795 130.215C187.867 128.663 187.845 127.106 187.937 125.556C188.204 121.071 188.502 116.587 188.796 112.104C188.926 110.127 189.054 108.15 189.216 106.176C189.447 103.38 189.734 100.589 189.946 97.7921C190.104 95.7171 190.161 93.6351 190.299 91.5588C190.476 88.9002 190.671 88.4369 193.255 87.2364C194.866 86.4885 196.546 85.8957 198.199 85.2466C198.736 85.0356 199.266 84.8346 199.563 84.2608C198.715 83.8831 198.676 83.8956 197.852 84.0544C195.426 84.521 193.095 85.2404 190.987 86.6076C190.841 86.7023 190.492 86.7139 190.405 86.6126C190.183 86.3548 190.394 86.1319 190.618 85.9705C190.803 85.8382 190.992 85.7099 191.189 85.5962C192.77 84.6791 194.447 84.0139 196.222 83.6122C196.869 83.4657 197.517 83.321 198.165 83.1749C198.159 83.1092 198.152 83.0438 198.146 82.9784C197.838 82.9784 197.521 82.9296 197.223 82.9867C196.084 83.2043 194.909 83.333 193.827 83.7255C192.377 84.2521 190.996 84.9835 189.595 85.6491C189.326 85.7765 189.102 86.004 188.843 85.5345C189.543 84.4069 190.916 84.2741 191.849 83.4724C191.199 83.6527 190.589 83.9311 189.958 84.1392C189.338 84.3431 188.82 84.8913 187.995 84.768C188.196 83.7706 189.083 83.7888 189.669 83.4624C190.295 83.1137 190.985 82.8845 191.647 82.6032C190.841 82.5921 190.076 82.6976 189.33 82.8816C188.642 83.0512 187.964 83.2755 187.301 83.5299C186.314 83.9096 185.263 84.1711 184.5 85.0145C184.278 85.2603 183.973 85.7062 183.64 85.3107C183.33 84.9438 183.774 84.6654 184.026 84.4362C184.943 83.6018 185.876 82.7869 186.798 81.9587C187.304 81.5041 187.779 81.0218 187.985 80.3462ZM149.633 92.7717C149.667 93.0944 149.699 93.3844 149.726 93.6752C149.881 95.3315 149.889 96.9908 149.416 98.5913C149.177 99.3992 148.812 100.199 148.354 100.9C147.707 101.888 146.755 102.358 145.534 102.294C144.037 102.216 142.912 101.452 141.914 100.423C140.206 98.6633 139.015 96.5519 138.027 94.3077C137.899 94.0161 137.753 93.7327 137.665 93.5499C126.899 96.0298 117.28 100.901 108.12 107.018C108.316 107.385 108.461 107.672 108.62 107.951C110.045 110.465 111.499 112.959 112.501 115.701C113.088 117.308 113.799 118.868 114.473 120.442C114.79 121.183 115.15 121.905 115.496 122.65C116.965 121.983 118.321 121.378 119.667 120.751C120.9 120.176 122.112 119.557 123.35 118.996C124.214 118.603 124.462 118.776 124.463 119.75C124.464 121.304 124.468 122.859 124.407 124.411C124.351 125.862 124.289 127.321 124.088 128.756C123.783 130.945 123.278 133.107 123.005 135.299C122.762 137.248 122.496 139.237 123.513 141.102C123.726 141.492 123.779 141.981 123.873 142.432C123.965 142.872 124.016 143.321 124.088 143.783C125.727 143.284 127.303 142.836 128.859 142.322C130.481 141.787 132.096 141.255 133.77 140.894C137.472 140.098 141.181 139.93 144.92 140.568C147.209 140.958 149.499 141.345 151.795 141.686C154.133 142.033 156.494 142.198 158.842 141.929C161.696 141.602 164.509 141.022 167.187 139.894C167.622 139.71 168.074 139.569 168.597 139.379C168.316 137.966 168.076 136.639 167.78 135.326C167.629 134.656 167.365 134.013 167.173 133.351C166.815 132.118 166.341 130.9 166.149 129.639C165.567 125.823 165.13 121.984 164.572 118.164C164.215 115.715 163.836 113.262 162.8 110.982C162.498 110.316 162.24 109.676 161.39 109.526C160.964 109.451 160.567 109.157 160.177 108.926C160.004 108.824 159.881 108.632 159.699 108.443C160.54 107.761 161.065 108.859 161.874 108.689C161.693 108.129 161.499 107.615 161.372 107.084C161.329 106.904 161.39 106.583 161.513 106.5C161.81 106.301 161.986 106.564 162.077 106.826C162.24 107.291 162.433 107.757 162.506 108.24C162.576 108.709 162.698 109.114 162.965 109.511C163.536 110.359 163.917 111.301 164.162 112.305C164.332 113 164.555 113.682 164.801 114.534C168.897 111.615 172.881 108.776 176.919 105.899C176.525 105.458 176.159 105.044 175.789 104.635C173.841 102.474 171.901 100.304 169.938 98.1569C168.482 96.5651 167.042 94.9539 165.504 93.4473C164.651 92.6116 163.654 91.9059 162.649 91.2627C161.345 90.4291 159.875 90.1354 158.366 90.4866C155.792 91.0856 153.235 91.7611 150.673 92.4139C150.336 92.4995 150.012 92.6394 149.633 92.7717ZM143.324 159.668C142.81 159.559 142.464 159.484 142.117 159.41C140.571 159.081 139.023 158.764 137.483 158.41C137.325 158.373 137.214 158.123 137.081 157.972C137.25 157.858 137.406 157.687 137.589 157.648C137.763 157.612 137.964 157.716 138.154 157.753C140.243 158.154 142.322 158.624 144.425 158.926C145.465 159.076 146.547 158.943 147.609 158.892C149.141 158.818 150.264 159.372 150.994 160.831C152.392 163.624 153.967 166.329 155.283 169.16C158.101 175.221 160.954 181.258 164.268 187.055C165.411 189.053 166.034 191.199 166.276 193.514C166.751 198.049 167.335 202.571 167.899 207.094C168.299 210.305 168.748 213.509 169.161 216.718C169.643 220.452 170.102 224.188 170.588 227.921C170.701 228.792 170.881 229.653 171.05 230.63C176.797 229.579 182.542 229.437 188.237 228.489C188.204 227.834 188.183 227.275 188.147 226.718C187.971 224.013 187.774 221.309 187.616 218.603C187.454 215.83 187.344 213.054 187.184 210.281C186.88 204.966 186.547 199.653 186.244 194.338C186.092 191.661 185.97 188.985 184.906 186.47C184.636 185.835 184.446 185.164 184.188 184.524C180.987 176.583 177.817 168.627 174.552 160.715C173.385 157.886 171.977 155.163 170.688 152.387C170.372 151.704 170.091 151.003 169.779 150.277C167.349 150.49 165.367 149.328 163.448 148.115C161.464 146.862 160.248 144.897 159.358 142.793C159.21 142.759 159.147 142.728 159.086 142.732C154.797 143.023 150.587 142.407 146.395 141.581C142.424 140.798 138.451 140.676 134.477 141.554C133.576 141.754 132.683 141.982 131.802 142.194C131.614 147.931 128.689 151.287 123.538 152.793C123.512 153.166 123.485 153.492 123.466 153.82C123.253 157.582 123.045 161.345 122.825 165.108C122.527 170.157 122.217 175.205 121.919 180.254C121.761 182.927 121.622 185.602 121.464 188.275C121.17 193.258 120.865 198.24 120.572 203.223C120.409 205.996 120.267 208.77 120.104 211.542C119.811 216.526 119.511 221.508 119.212 226.491C119.032 229.494 118.846 232.497 118.669 235.501C118.648 235.854 118.666 236.21 118.666 236.637C119.036 236.665 119.349 236.7 119.663 236.71C122.366 236.787 124.986 236.276 127.591 235.589C129.743 235.022 131.895 234.42 134.083 234.044C135.792 233.751 137.553 233.781 139.292 233.67C140.086 233.62 140.881 233.576 141.76 233.524C142.282 208.853 142.802 184.295 143.324 159.668ZM142.508 233.421C142.697 233.47 142.816 233.518 142.938 233.53C144.145 233.65 144.157 233.647 144.319 234.831C144.399 235.42 144.429 236.016 144.484 236.609C144.626 238.121 144.78 239.631 144.903 241.144C144.945 241.659 144.91 242.181 144.91 242.78C142.494 243.123 140.175 243.453 137.791 243.792C137.743 244.408 137.696 244.992 137.65 245.588C138.094 245.909 138.507 246.208 138.845 246.453C138.748 247.593 138.63 248.635 138.575 249.679C138.484 251.395 139.211 252.821 140.192 254.132C140.358 254.353 140.641 254.505 140.898 254.631C143.162 255.742 144.787 257.544 146.092 259.682C147.022 261.203 147.327 262.854 146.963 264.623C146.936 264.751 146.922 264.882 146.916 265.013C146.863 266.318 145.931 267.087 144.723 266.724C144.065 266.526 143.456 266.31 142.771 266.582C142.575 266.66 142.287 266.667 142.104 266.575C141.331 266.186 140.645 266.482 139.902 266.704C139.023 266.968 138.114 266.888 137.283 266.411C136.246 267.133 135.176 267.299 134.068 266.708C133.693 266.509 133.456 266.753 133.176 266.883C132.274 267.305 131.386 267.446 130.501 266.733C129.694 267.331 128.867 267.822 128.033 266.765C126.856 267.443 125.781 267.396 124.84 266.342C124.575 266.453 124.35 266.594 124.108 266.639C123.672 266.719 123.173 266.893 122.795 266.755C122.198 266.538 121.685 266.402 121.077 266.689C120.901 266.772 120.551 266.644 120.368 266.498C119.671 265.944 119.256 265.249 119.37 264.278C119.593 262.399 119.958 260.565 120.662 258.802C120.866 258.294 120.912 257.719 121.016 257.171C121.077 256.849 121.088 256.515 121.164 256.198C121.531 254.678 121.419 253.183 121.005 251.693C120.652 250.422 120.316 249.146 119.975 247.871C119.666 246.716 119.732 246.616 120.911 246.371C120.971 246.359 121.026 246.321 121.14 246.268V244.654C120.837 244.627 120.56 244.599 120.284 244.578C119.222 244.497 118.157 244.454 117.102 244.326C116.277 244.225 116.105 244.011 116.127 243.162C116.177 241.18 116.261 239.2 116.351 237.22C116.364 236.944 116.493 236.673 116.58 236.352C117.039 236.43 117.407 236.491 117.841 236.564C117.881 236.276 117.936 236.026 117.951 235.774C118.138 232.673 118.319 229.571 118.504 226.47C118.795 221.618 119.09 216.768 119.381 211.916C119.524 209.54 119.662 207.164 119.803 204.788C120.119 199.442 120.441 194.096 120.753 188.75C120.967 185.087 121.165 181.422 121.377 177.758C121.698 172.213 122.042 166.669 122.34 161.123C122.429 159.476 122.397 157.821 122.414 156.17C122.415 156.048 122.364 155.925 122.339 155.815C121.806 155.636 121.611 156.037 121.365 156.321C120.608 157.197 120.22 157.282 119.198 156.74C118.713 156.484 118.243 156.194 117.774 155.923C117.424 156.084 117.112 156.268 116.776 156.372C116.086 156.587 115.639 156.253 115.773 155.54C115.87 155.027 116.201 154.562 116.502 153.915C116.481 153.838 116.412 153.55 116.326 153.267C116.188 152.805 116.213 152.44 116.717 152.2C116.855 152.133 116.918 151.846 116.964 151.648C117.103 151.05 117.447 150.867 117.928 151.232C118.336 151.542 118.676 151.945 119.09 152.349C119.358 152.164 119.611 151.972 119.88 151.807C120.281 151.561 120.461 151.208 120.437 150.734C120.355 149.085 120.3 147.433 120.184 145.787C120.134 145.066 119.672 144.613 119.025 144.34C116.701 143.358 114.369 142.39 112.059 141.373C108.12 139.638 104.157 137.951 100.274 136.092C96.8248 134.441 94.2492 131.791 92.7407 128.167C91.5885 125.399 91.8497 122.743 93.5807 120.277C93.8819 119.848 94.1895 119.417 94.5464 119.037C96.9907 116.443 99.4346 113.847 102.382 111.827C102.486 111.755 102.574 111.658 102.707 111.539C102.553 111.31 102.414 111.098 102.27 110.891C101.751 110.144 101.736 110.045 102.426 109.407C103.696 108.234 104.996 107.095 106.279 105.938C106.561 105.683 106.837 105.63 107.142 105.886C107.29 106.01 107.443 106.129 107.658 106.302C108.134 106.007 108.617 105.694 109.113 105.404C112.277 103.55 115.384 101.583 118.623 99.8795C122.81 97.6771 127.086 95.655 131.693 94.4781C133.409 94.0405 135.083 93.4233 136.769 92.8661C137.185 92.7283 137.576 92.5066 137.972 92.3262C138.446 93.3997 138.813 94.4612 139.361 95.4139C140.129 96.7475 140.972 98.0465 141.898 99.2681C142.399 99.9303 143.084 100.496 143.785 100.941C145.69 102.149 147.447 101.561 148.397 99.4724C148.883 98.406 149.077 97.2597 149.09 96.0989C149.101 95.1119 149.017 94.1203 148.921 93.1362C148.831 92.2145 148.861 92.0739 149.7 91.8583C152.262 91.2006 154.836 90.588 157.395 89.9195C160.078 89.2187 162.493 89.8359 164.551 91.6221C166.245 93.0927 167.818 94.7214 169.351 96.3707C171.823 99.0269 174.218 101.759 176.649 104.456C176.819 104.645 177.017 104.808 177.336 105.11C177.487 104.278 177.627 103.588 177.734 102.893C178.231 99.6946 178.751 96.4993 179.195 93.2934C179.408 91.7599 179.568 90.2053 179.584 88.659C179.606 86.3672 180.452 84.538 182.213 83.1787C183.731 82.008 185.295 80.8993 186.868 79.8076C187.196 79.5809 187.645 79.4808 188.049 79.4411C188.686 79.3774 188.973 79.7212 188.778 80.3541C188.627 80.8447 188.329 81.2948 188.056 81.7374C187.889 82.0084 187.646 82.2301 187.315 82.6169C187.684 82.5524 187.88 82.5201 188.076 82.4841C190.201 82.0932 192.319 81.6605 194.453 81.3312C195.302 81.2001 196.185 81.2898 197.053 81.2964C197.241 81.2981 197.466 81.3242 197.61 81.4296C198.284 81.9248 198.974 82.3612 199.798 82.5581C199.94 82.5917 200.082 82.8357 200.132 83.0103C200.239 83.3818 200.351 83.7752 200.334 84.1537C200.321 84.4462 200.192 84.8338 199.98 84.9963C199.473 85.3873 198.913 85.7339 198.329 85.9838C196.723 86.6696 195.09 87.2873 193.477 87.9545C193.061 88.1266 192.672 88.3719 192.281 88.6015C191.322 89.1645 190.922 90.0502 190.88 91.1514C190.764 94.1559 190.686 97.1629 190.502 100.163C190.346 102.702 190.007 105.23 189.849 107.769C189.561 112.388 189.358 117.013 189.101 121.634C188.96 124.173 188.793 126.711 188.615 129.249C188.481 131.159 188.364 133.073 188.139 134.973C187.98 136.314 187.726 137.659 187.019 138.845C185.254 141.802 182.629 143.239 179.291 143.274C177.954 143.288 176.81 142.636 175.815 141.727C174.18 140.234 172.902 138.438 171.826 136.515C170.19 133.593 168.673 130.601 167.104 127.639C167.048 127.534 166.98 127.436 166.839 127.205C166.777 129.089 167.37 130.662 167.923 132.228C168.756 134.583 169.137 137.018 169.337 139.496C169.345 139.589 169.31 139.687 169.286 139.837C168.783 140.07 168.261 140.312 167.759 140.545C167.553 141.431 167.856 142.204 168.084 142.989C169.492 147.854 171.537 152.44 173.657 157.018C176.049 162.179 178.159 167.479 180.303 172.756C182.175 177.362 183.931 182.018 185.727 186.656C186.423 188.454 186.743 190.325 186.849 192.261C187.171 198.138 187.567 204.009 187.914 209.884C188.076 212.623 188.173 215.366 188.332 218.105C188.495 220.91 188.701 223.713 188.885 226.516C188.927 227.135 188.959 227.755 188.998 228.44H190.436C190.466 228.723 190.503 228.943 190.509 229.163C190.556 230.98 190.587 232.796 190.646 234.612C190.672 235.416 190.652 235.467 189.809 235.521C188.979 235.574 188.149 235.62 187.332 235.668C187.277 236.892 187.226 238.044 187.173 239.196C187.162 239.428 187.159 239.66 187.126 239.889C187.089 240.145 187.062 240.502 186.716 240.412C186.572 240.374 186.42 240.007 186.424 239.793C186.441 238.835 186.518 237.878 186.561 236.919C186.578 236.532 186.564 236.142 186.564 235.607C181.451 235.813 176.474 236.333 171.506 237.499C171.163 239.062 171.611 240.584 171.547 242.209C172.083 242.209 172.523 242.231 172.959 242.205C174.796 242.097 176.635 242.018 178.466 241.848C181.389 241.576 184.306 241.241 187.226 240.931C187.578 240.893 187.93 240.831 188.283 240.809C189.153 240.755 189.357 240.866 189.462 241.723C189.656 243.294 189.779 244.874 189.92 246.451C189.949 246.777 189.924 247.109 189.924 247.531C190.763 247.964 191.612 248.401 192.609 248.916C192.59 248.62 192.602 248.502 192.571 248.398C192.486 248.114 192.483 247.845 192.807 247.755C193.166 247.655 193.262 247.976 193.297 248.222C193.421 249.093 194.004 249.393 194.747 249.534C195.089 249.598 195.425 249.696 195.935 249.821C195.807 249.093 195.699 248.484 195.585 247.834C196.382 248.003 196.403 248.046 196.752 250.104C197.47 250.318 198.237 250.543 199.003 250.775C201.011 251.386 202.994 252.028 204.869 253.044C208.406 254.961 209.155 258.869 208.27 261.967C208.179 262.283 208.048 262.596 208.01 262.919C207.961 263.34 207.92 263.781 207.993 264.192C208.235 265.568 207.12 266.809 205.805 266.519C205.279 266.404 204.821 266.409 204.303 266.568C203.328 266.865 202.386 266.715 201.548 266.073C201.395 265.956 201.235 265.848 201.048 265.713C199.946 266.372 198.761 266.662 197.513 266.397C196.827 266.251 196.165 265.97 195.505 265.717C195.204 265.601 194.953 265.424 194.604 265.627C193.171 266.462 191.759 266.265 190.368 265.489C190.257 265.427 190.135 265.382 189.973 265.309C189.773 265.445 189.556 265.58 189.351 265.732C188.549 266.328 187.687 266.391 186.784 266.028C186.455 265.896 186.179 265.745 185.794 265.973C184.581 266.69 183.385 266.536 182.235 265.772C182.102 265.685 181.958 265.616 181.761 265.507C180.548 266.486 179.264 266.334 177.951 265.709C177.74 265.608 177.4 265.532 177.234 265.636C175.873 266.493 174.581 266.178 173.276 265.462C173.199 265.493 173.099 265.511 173.027 265.566C172.422 266.044 171.781 266.283 171.07 265.823C170.311 265.334 169.924 264.396 170.082 263.525C170.453 261.479 170.901 259.444 171.173 257.384C171.724 253.22 171.515 249.072 170.681 244.958C170.577 244.44 170.462 243.923 170.397 243.399C170.351 243.031 170.194 242.6 170.718 242.384C170.799 242.351 170.833 242.101 170.827 241.953C170.777 240.57 170.713 239.187 170.655 237.834C170.564 237.77 170.517 237.707 170.464 237.702C169.312 237.595 169.265 237.601 169.17 236.437C169.057 235.055 168.999 233.665 168.983 232.279C168.97 231.015 169.01 231.014 170.267 230.632C170.172 229.908 170.073 229.166 169.976 228.424C168.968 220.66 167.947 212.898 166.958 205.133C166.41 200.841 165.902 196.542 165.402 192.244C165.258 191.009 164.901 189.848 164.339 188.764C163.295 186.75 162.146 184.792 161.142 182.758C158.854 178.129 156.657 173.453 154.365 168.827C153.067 166.204 151.633 163.653 150.305 161.046C149.786 160.026 148.993 159.638 147.941 159.668C146.749 159.703 145.558 159.76 144.338 159.808C144.022 160.224 144.024 160.716 144.015 161.208C143.928 165.772 143.845 170.335 143.751 174.899C143.623 181.214 143.487 187.53 143.353 193.846C143.229 199.731 143.107 205.617 142.977 211.502C142.825 218.379 142.664 225.257 142.51 232.134C142.5 232.558 142.508 232.983 142.508 233.421Z" fill="black"/>
<path fill-rule="evenodd" clip-rule="evenodd" d="M147.192 143.202C147.776 143.19 147.848 143.565 147.904 143.976C148.063 145.151 148.225 146.327 148.403 147.5C148.616 148.899 148.848 150.295 149.069 151.694C149.11 151.954 149.158 152.216 149.168 152.478C149.197 153.264 148.972 153.679 148.225 153.874C147.516 154.058 146.769 154.099 146.036 154.183C145.62 154.231 145.199 154.276 144.784 154.252C144.612 154.242 144.45 154.048 144.284 153.937C144.441 153.802 144.578 153.606 144.759 153.546C144.996 153.466 145.268 153.498 145.524 153.472C146.261 153.4 147.005 153.365 147.732 153.238C148.362 153.128 148.469 152.928 148.411 152.274C148.379 151.914 148.322 151.554 148.267 151.196C147.889 148.722 147.504 146.248 147.133 143.773C147.106 143.596 147.169 143.406 147.192 143.202Z" fill="black"/>
<path fill-rule="evenodd" clip-rule="evenodd" d="M187.981 245.674C187.836 245.531 187.658 245.435 187.654 245.331C187.65 245.218 187.836 244.988 187.887 245.003C188.042 245.046 188.174 245.183 188.314 245.283C188.219 245.395 188.124 245.506 187.981 245.674Z" fill="black"/>
<path fill-rule="evenodd" clip-rule="evenodd" d="M188.309 248.243C188.181 248.023 188.043 247.884 188.035 247.739C188.031 247.646 188.218 247.543 188.319 247.444C188.43 247.577 188.581 247.697 188.632 247.85C188.654 247.918 188.469 248.056 188.309 248.243Z" fill="black"/>
<path fill-rule="evenodd" clip-rule="evenodd" d="M140.998 72.5073C141.65 72.1479 142.245 71.7564 142.889 71.4848C143.491 71.2312 144.458 71.0897 145.091 70.9068C145.062 70.8222 145.043 70.6978 145.014 70.6132C143.402 70.2978 141.308 71.5808 140.723 72.2617C140.911 72.3886 140.941 72.3621 140.998 72.5073ZM129.221 84.3287C129.906 83.5457 130.297 82.605 130.512 81.3773C130.629 80.7078 130.729 80.0333 130.884 79.3723C131.071 78.5759 131.59 78.0572 132.385 77.897C132.917 77.7893 133.468 77.7787 134.011 77.7303C134.641 77.6734 135.272 77.6226 135.902 77.5694C135.902 77.4941 133.729 76.8506 132.603 76.9705C131.215 77.1185 130.478 77.9051 130.333 79.3109C130.32 79.4398 130.319 79.5699 130.312 79.6996C130.228 81.3013 129.921 82.8481 129.221 84.3287ZM141.777 64.6352C140.7 63.7884 139.231 63.7945 138.22 64.7466C137.62 65.3117 137.177 66.0524 136.696 66.7374C136.344 67.2391 136.085 67.8106 135.711 68.294C135.162 69.0038 134.787 69.0351 134.086 68.4631C133.485 67.9732 132.942 67.411 132.343 66.9195C129.816 64.8491 127.046 64.8104 124.151 65.9796C123.551 66.2219 123.072 66.6366 122.734 67.2244C122.939 67.2232 123.111 67.1586 123.281 67.0899C127.117 65.5385 130.766 66.3227 133.631 69.3144C133.855 69.5485 134.071 69.7904 134.302 70.016C134.487 70.1961 134.682 70.3685 134.888 70.5238C135.27 70.8124 135.623 70.7429 135.887 70.3596C136.069 70.0945 136.226 69.8055 136.349 69.5083C136.722 68.6103 137.039 67.6875 137.439 66.8024C138.154 65.2166 139.35 64.51 141.064 64.5925C141.281 64.6031 141.498 64.6186 141.777 64.6352ZM147.391 86.078C145.765 86.2674 144.474 85.7036 143.243 84.9564C142.97 84.7909 142.704 84.5803 142.507 84.3328C142.401 84.1982 142.445 83.9417 142.421 83.7401C142.624 83.7474 142.865 83.6864 143.025 83.7746C143.615 84.1006 144.175 84.4807 144.753 84.8283C144.918 84.9271 145.105 84.9913 145.286 85.0584C146.84 85.6337 147.4 85.4141 148.107 83.9023C149.069 81.8436 149.373 79.6199 149.666 77.3958C149.703 77.1063 149.666 76.8014 149.739 76.5238C149.942 75.7509 149.626 75.2623 149.039 74.7806C148.122 74.0289 147.285 73.1801 146.482 72.4353C145.563 72.9492 144.584 73.4923 143.609 74.0419C142.553 74.6379 141.6 75.3713 141.009 76.4538C140.707 77.0088 140.549 77.6462 140.347 78.2531C140.25 78.5458 140.201 78.8544 140.124 79.1829C139.535 79.1129 139.347 78.743 139.109 78.3958C138.98 78.2092 138.635 77.9527 138.545 78.0043C138.325 78.1304 138.113 78.397 138.049 78.6462C137.89 79.2756 138.254 79.8967 138.883 80.2541C139.258 80.4675 139.873 80.4106 139.957 80.9496C140.024 81.3793 139.883 81.8444 139.826 82.2924C139.633 83.8059 139.469 85.3243 139.232 86.8309C139.001 88.3042 138.693 89.7656 138.418 91.2324C138.388 91.3917 138.395 91.5759 138.314 91.7044C138.206 91.8767 138.029 92.0064 137.882 92.1544C137.76 91.9584 137.522 91.7531 137.537 91.5682C137.576 91.0877 137.755 90.621 137.826 90.1408C138.215 87.5082 138.592 84.8743 138.965 82.2391C139.009 81.9229 139 81.5989 139.016 81.2606C138.786 81.1318 138.554 81.061 138.407 80.909C138.03 80.522 137.596 80.1472 137.359 79.678C137.022 79.0105 137.046 78.2686 137.567 77.6641C138.075 77.0742 138.719 76.9949 139.466 77.4169C139.537 77.1401 139.606 76.9388 139.638 76.7327C139.821 75.5745 140.041 74.431 140.611 73.3841C140.717 73.191 140.709 72.9345 140.753 72.7073C140.688 72.68 140.637 72.5751 140.572 72.5479C140.466 72.676 140.319 72.8683 140.247 73.0134C139.947 73.624 139.648 74.237 139.379 74.8623C138.446 77.0344 136.668 77.8665 134.464 78.0291C133.95 78.0674 133.43 78.0503 132.919 78.1072C131.815 78.2308 131.319 78.6922 131.093 79.7927C130.943 80.5232 130.911 81.2895 130.674 81.9875C130.355 82.9315 129.933 83.8478 129.473 84.7324C129.133 85.3877 128.518 85.7499 127.802 85.9658C125.499 86.6597 123.406 86.1105 121.42 84.9161C120.743 84.5088 120.32 83.8722 120.274 83.0892C120.233 82.3684 119.904 81.9408 119.372 81.4924C118.577 80.822 117.997 79.9439 117.667 78.9316C117.089 77.1563 117.815 75.9042 119.626 75.5461C119.971 75.4778 120.32 75.4269 120.79 75.3469C120.633 74.955 120.498 74.611 120.358 74.2687C119.439 72.0276 119.742 70.0189 121.471 68.2753C121.63 68.1155 121.801 67.9505 121.902 67.7549C122.78 66.0634 124.294 65.3641 126.049 65.0625C128.73 64.6011 131.104 65.2223 133.102 67.1411C133.634 67.6517 134.202 68.1245 134.723 68.5871C135.426 68.3924 135.673 67.8793 135.956 67.4204C136.263 66.9248 136.504 66.3862 136.83 65.9056C137.138 65.4524 137.482 65.0129 137.873 64.6332C138.722 63.8079 139.728 63.5449 140.902 63.821C143.211 64.3641 145.211 66.6028 145.41 68.9835C145.447 69.4237 145.33 69.8766 145.295 70.3246C145.28 70.5071 145.292 70.6921 145.292 70.9429C145.602 70.9742 145.891 70.973 146.165 71.0372C146.69 71.16 147.217 71.2893 147.724 71.469C149.891 72.2385 150.796 74.1687 150.551 76.7506C150.419 78.1377 150.156 79.5122 149.928 80.8883C149.682 82.3757 149.194 83.7909 148.427 85.0808C148.137 85.5686 148.161 85.9654 148.303 86.4516C148.757 88.0086 149.189 89.5729 149.628 91.134C149.681 91.3214 149.73 91.5104 149.774 91.7003C149.836 91.9666 149.863 92.2918 149.54 92.3268C149.387 92.3434 149.157 92.0617 149.039 91.8678C148.926 91.6828 148.915 91.4356 148.853 91.2169C148.375 89.5343 147.896 87.8513 147.391 86.078Z" fill="black"/>
<path fill-rule="evenodd" clip-rule="evenodd" d="M146.495 77.043L147.112 79.5008L146.213 79.5915L146.495 77.043Z" fill="black"/>
<path fill-rule="evenodd" clip-rule="evenodd" d="M146.497 77.0672L146.217 79.5864L147.107 79.497L146.497 77.0672ZM146.213 79.5958C146.211 79.5958 146.21 79.595 146.209 79.5942C146.209 79.5934 146.208 79.5921 146.208 79.5909L146.491 77.0424C146.491 77.0408 146.493 77.0391 146.495 77.0391C146.497 77.0387 146.499 77.0403 146.499 77.042L147.116 79.4994C147.116 79.5007 147.116 79.5019 147.115 79.5031C147.114 79.5039 147.114 79.5047 147.112 79.5047L146.213 79.5954L146.213 79.5958Z" fill="black"/>
<path fill-rule="evenodd" clip-rule="evenodd" d="M145.941 75.1045C145.941 75.1045 146.007 75.8554 145.848 76.0196C145.216 75.868 143.465 75.9208 142.506 76.6644C142.788 75.596 145.941 75.1045 145.941 75.1045Z" fill="black"/>
<path fill-rule="evenodd" clip-rule="evenodd" d="M145.937 75.1097C145.871 75.1199 145.112 75.2447 144.331 75.4882C143.852 75.637 143.46 75.8 143.164 75.9736C142.8 76.1862 142.581 76.4151 142.513 76.6529C143.451 75.9346 145.177 75.8553 145.845 76.015C145.994 75.8573 145.942 75.1727 145.937 75.1097ZM142.506 76.6687C142.504 76.6687 142.504 76.6683 142.503 76.6679C142.501 76.6667 142.501 76.6647 142.501 76.6631C142.566 76.4183 142.787 76.1842 143.159 75.9659C143.456 75.7927 143.849 75.6284 144.328 75.4796C145.142 75.2264 145.932 75.1016 145.94 75.1008C145.941 75.1003 145.943 75.1008 145.944 75.1012C145.945 75.102 145.945 75.1028 145.945 75.104C145.948 75.1349 146.01 75.8589 145.85 76.0224C145.849 76.0236 145.847 76.024 145.846 76.0236C145.178 75.8634 143.443 75.9427 142.508 76.6675C142.507 76.6683 142.506 76.6687 142.506 76.6687Z" fill="black"/>
<path fill-rule="evenodd" clip-rule="evenodd" d="M147.028 75.1023C147.028 75.1023 146.871 75.8263 147.003 75.9898C147.715 75.778 148.832 75.9389 149.573 76.306C149.345 75.2397 147.028 75.1023 147.028 75.1023Z" fill="black"/>
<path fill-rule="evenodd" clip-rule="evenodd" d="M147.747 75.8913C147.917 75.8913 148.095 75.9031 148.278 75.9267C148.746 75.9868 149.202 76.1193 149.567 76.2982C149.514 76.06 149.349 75.849 149.078 75.6718C148.857 75.5278 148.567 75.4059 148.215 75.3087C147.639 75.1502 147.083 75.1103 147.032 75.1071C147.021 75.1624 146.884 75.8271 147.005 75.9848C147.216 75.9226 147.469 75.8913 147.747 75.8913ZM149.573 76.3104C149.573 76.3104 149.572 76.31 149.572 76.31C149.207 76.1291 148.747 75.9962 148.277 75.9352C147.794 75.8726 147.342 75.8937 147.004 75.9941C147.003 75.9945 147.001 75.9937 147 75.9925C146.945 75.9238 146.932 75.7531 146.963 75.4843C146.985 75.2851 147.025 75.1034 147.025 75.1018C147.025 75.0998 147.027 75.0981 147.029 75.0981H147.029C147.035 75.0986 147.616 75.1347 148.217 75.3002C148.57 75.3978 148.861 75.5205 149.082 75.6644C149.359 75.8453 149.525 76.0608 149.578 76.3055C149.578 76.3068 149.577 76.3084 149.576 76.3092C149.575 76.31 149.574 76.3104 149.573 76.3104Z" fill="black"/>
<path fill-rule="evenodd" clip-rule="evenodd" d="M145.974 80.6676C145.841 80.6676 145.712 80.6456 145.589 80.6021C145.069 80.4168 144.845 79.9086 144.835 79.887C144.816 79.8435 144.836 79.7927 144.88 79.7736C144.923 79.7549 144.973 79.7748 144.992 79.8183C144.994 79.8228 145.198 80.281 145.647 80.4399C145.947 80.5456 146.289 80.4989 146.667 80.3005C146.708 80.2785 146.76 80.2948 146.782 80.3371C146.804 80.3794 146.788 80.4314 146.746 80.4533C146.474 80.596 146.216 80.6676 145.974 80.6676Z" fill="black"/>
<path fill-rule="evenodd" clip-rule="evenodd" d="M144.479 78.2331C144.258 78.2465 144.038 78.2059 143.832 78.1384C143.906 78.1596 143.986 78.1713 144.069 78.1713C144.494 78.1713 144.84 77.866 144.84 77.4904C144.84 77.3392 144.723 77.1583 144.613 77.0331C145.158 77.0839 145.636 77.3693 145.813 77.4867C145.654 77.6754 145.163 78.1909 144.479 78.2331ZM143.318 77.3034C143.306 77.368 143.298 77.4388 143.298 77.4904C143.298 77.7599 143.477 77.9937 143.735 78.1039C143.337 77.9538 143.008 77.716 142.868 77.6042C142.95 77.5335 143.104 77.4148 143.318 77.3034ZM145.988 77.3993C145.96 77.3778 145.276 76.8631 144.472 76.853C143.368 76.84 142.703 77.5189 142.675 77.5477C142.659 77.5644 142.651 77.5876 142.651 77.6111C142.652 77.6347 142.663 77.6567 142.68 77.6721C142.715 77.7034 143.517 78.4083 144.391 78.4083C144.424 78.4083 144.457 78.4075 144.49 78.4051C145.407 78.3482 145.982 77.5522 146.006 77.5185C146.034 77.4802 146.025 77.4278 145.988 77.3993Z" fill="black"/>
<path fill-rule="evenodd" clip-rule="evenodd" d="M148.242 78.0598C148.046 78.0736 147.85 78.0252 147.67 77.9496C147.701 77.9557 147.732 77.9598 147.763 77.9598C148.105 77.9598 148.384 77.6793 148.384 77.3345C148.384 77.1841 148.331 77.0422 148.237 76.9304C148.275 76.9284 148.313 76.9268 148.352 76.9268C148.785 76.9268 149.18 77.2337 149.319 77.3544C149.196 77.5264 148.796 78.0195 148.242 78.0598ZM146.949 77.4744C146.994 77.4353 147.061 77.3813 147.147 77.3223C147.164 77.467 147.226 77.6122 147.324 77.7305C147.35 77.7626 147.378 77.7906 147.407 77.8158C147.2 77.6927 147.034 77.5524 146.949 77.4744ZM149.492 77.2796C149.47 77.2581 148.959 76.7544 148.352 76.7544C147.415 76.7544 146.788 77.3857 146.762 77.4122C146.729 77.4459 146.729 77.4992 146.761 77.5329C146.769 77.5406 146.947 77.7232 147.218 77.9008C147.555 78.1224 147.875 78.2346 148.171 78.2346C148.199 78.2346 148.226 78.2338 148.254 78.2317C149.012 78.1768 149.485 77.4183 149.505 77.3861C149.526 77.352 149.52 77.3077 149.492 77.2796Z" fill="black"/>
</svg>
