<svg width="258" height="252" viewBox="0 0 258 252" fill="none" xmlns="http://www.w3.org/2000/svg">
<path fill-rule="evenodd" clip-rule="evenodd" d="M39.9233 190.044C40.2378 216.302 70.0741 212.286 66.1058 188.121C64.8051 180.983 56.4326 178.551 49.8486 179.155C43.3879 176.826 39.7446 186.332 39.9233 190.044ZM98.5168 152.533C79.0138 151.85 69.1594 177.176 90.4959 183.485C111.286 190.265 123.091 151.801 98.5168 152.533ZM92.9289 213.943C81.3535 209.44 65.8733 219.018 68.3326 231.711C68.7568 234.252 69.9116 236.431 66.0957 235.724C46.8641 236.287 37.6259 219.576 30.4031 204.805C23.4212 193.689 30.6736 179.651 36.112 171.17C38.3569 170.204 41.5582 161.807 43.5748 164.088C55.5756 179.4 76.1855 153.029 59.9097 143.954C65.1099 138.206 72.4074 131.782 79.6212 127.008C82.3224 125.36 80.76 135.595 83.2332 137.457C89.0222 148.197 103.357 140.558 105.621 131.367C118.373 146.49 135.211 157.909 146.021 174.752C143.905 176.981 141.902 169.872 138.607 170.013C131.008 168.386 127.324 175.463 124.329 180.267C97.0017 186.905 97.8223 188.327 92.9289 213.943Z" fill="#EB5276"/>
<path fill-rule="evenodd" clip-rule="evenodd" d="M111.42 135.219C111.338 135.069 111.206 135.047 111.144 135.21C111.192 135.383 111.323 135.366 111.42 135.219ZM165.263 129.998C165.196 129.857 165.089 129.83 165.03 129.98C165.064 130.137 165.174 130.128 165.263 129.998ZM113.196 114.628C113.462 114.527 113.69 114.359 113.408 114.173C113.108 114.245 112.955 114.368 113.196 114.628ZM164.65 130.868C164.554 130.857 164.458 130.846 164.361 130.835C164.452 130.938 164.535 130.939 164.65 130.868ZM139.542 135.13C139.745 135.109 139.695 135.026 139.647 134.888C139.44 134.908 139.493 134.991 139.542 135.13ZM141.598 125.096C141.228 125.211 141.244 125.371 141.418 125.66C141.739 125.476 141.967 125.382 141.598 125.096ZM113.504 120.128C113.102 119.701 112.851 119.243 112.567 119.81C112.727 120.31 112.873 120.4 113.504 120.128ZM114.084 119.348C114.624 118.85 114.695 118.773 114.421 118.226C113.667 118.354 114.001 118.667 114.084 119.348ZM166.718 128.557C166.436 127.776 166.248 128.248 165.964 128.706C166.099 129.307 166.45 128.888 166.718 128.557ZM140.951 134.555C141.204 133.955 141.432 133.699 140.741 133.438C140.398 133.983 140.169 134.115 140.951 134.555ZM112.704 66.0641C112.112 65.161 111.671 65.4231 111.274 66.2084C111.559 67.1599 112.115 66.8565 112.704 66.0641ZM116.308 37.1124C115.218 37.9968 116.028 38.174 116.533 38.9383C117.683 38.2147 117.022 37.9528 116.308 37.1124ZM139.847 125.993C138.414 127.178 138.32 127.449 139.164 128.77C139.9 127.858 139.686 127.419 139.847 125.993ZM111.062 68.5785C108.894 69.3631 112.659 70.7174 113.155 70.4305C113.487 69.3977 111.636 69.3683 111.062 68.5785ZM108.485 92.9739C107.268 91.8264 107.068 94.7366 105.873 95.0526C107.189 95.6175 107.631 93.6646 108.485 92.9739ZM145.929 125.66C144.741 124.086 144.398 123.376 143.056 125.034C144.108 125.808 144.479 126.657 145.929 125.66ZM170.545 162.851C171.972 162.965 172.204 159.577 172.779 158.318C171.221 159.098 171.341 161.421 170.545 162.851ZM111.101 128.522C112.532 127.848 115.27 124.389 114.563 122.272C113.164 124.215 112.251 126.437 111.101 128.522ZM105.627 29.9214C107.051 34.6316 106.547 30.1714 109.541 29.0634C108.589 28.2681 105.259 27.7222 105.627 29.9214ZM180.719 110.183C184.49 110.413 183.597 106.522 183.849 103.555C183.811 101.341 176.196 102.592 174.315 103.14C167.983 103.735 161.494 103.527 155.115 103.781C134.271 104.488 110.118 104.082 90.9854 104.149C92.0671 107.683 89.5609 114.017 95.1707 112.245C103.157 111.775 111.14 111.13 119.14 110.946C139.964 111.175 159.747 109.921 180.719 110.183ZM109.521 116.944C106.649 124.09 111.616 118.177 112.773 114.898C111.656 115.181 111.391 113.192 110.056 113.958C108.271 114.181 108.117 115.813 109.521 116.944ZM165.813 122.375C164.412 120.96 162.164 127.211 165.833 122.355C165.757 123.829 164.932 124.83 165.623 126.148C167.724 126.744 170.908 116.973 165.813 122.375ZM103.953 87.9754C111.027 89.9779 107.411 83.8934 106.398 86.6403C106.397 86.7181 106.076 86.865 105.917 86.8504C104.114 85.9255 102.568 90.0417 103.953 87.9754ZM167.879 153.783C167.171 156.224 163.192 160.051 164.327 161.852C167.15 156.92 174.308 141.594 167.879 153.783ZM107.396 57.1985C109.054 55.8387 104.675 55.4872 105.559 56.3516C107.194 57.171 104.779 58.2535 106.106 59.2824C109.959 58.4294 106.274 61.2012 108.764 62.4524C108.843 62.3486 109 62.1623 108.991 62.1538C106.923 59.8212 113.017 60.4933 110.949 61.5808C110.933 62.4957 110.91 63.3411 112.19 63.0511C111.126 62.198 112.927 61.7659 112.509 61.0076C112.751 59.3894 115.242 61.6545 114.857 59.5612C113.871 54.406 109.903 63.0831 107.396 57.1985ZM109.005 74.9537C109.006 76.1844 108.945 77.4249 109.91 78.3444C110.074 78.7071 109.401 79.7754 110.694 79.1939C112.541 78.3154 112.063 80.5386 114.73 80.322C116.164 80.8649 117.059 79.8345 116.659 78.4233C115.23 76.0885 111.794 75.4013 109.646 75.2799C108.681 74.0333 111.762 71.9622 108.408 71.5664C107.685 71.546 108.24 71.2358 108.261 70.9248C107.731 69.4199 105.532 66.6046 106.35 65.3835C106.494 65.2793 106.295 64.7323 106.255 64.3903C103.776 65.3436 102.964 67.8257 106.262 67.7499C105.735 68.459 105.869 69.0296 106.361 69.7065C100.972 68.8557 106.979 72.2419 105.345 73.5876C103.787 73.2655 104.106 73.952 104.283 74.9349C105.783 74.5071 108.003 72.6307 109.005 74.9537ZM143.018 130.375C141.259 129.584 140.591 134.682 142.848 131.364C143.032 131.113 142.96 130.686 143.004 130.339C147.315 128.954 144.627 125.399 143.018 130.375ZM120.067 57.0163C120.3 55.1897 118.313 55.7435 117.739 54.3668C115.946 53.3616 115.172 52.1067 113.378 52.8517C112.814 52.2567 113.997 50.7132 112.848 50.3456C112.093 49.4391 113.305 48.1962 111.578 48.439C109.552 48.7254 109.964 47.2983 109.536 45.9414C106.234 45.9728 111.498 49.1525 105.715 47.3022C104.889 47.9922 104.908 50.6566 106.46 50.191C107.112 47.9951 110.16 48.544 110.351 50.3584C109.346 52.2203 104.765 49.8824 105.1 52.8981C106.304 54.6019 108.533 52.3532 109.853 51.6817C111.637 50.0932 111.829 52.7861 111.758 54.2417C111.136 56.9707 116.192 56.544 117.949 57.5406C120.36 59.5594 117.192 58.5039 116.228 59.661C116.672 60.4495 116.717 62.6566 118.035 61.7273C118.44 60.8605 119.038 60.4504 120.031 60.4892C121.055 59.1902 121.818 57.8248 120.035 56.9725L120.067 57.0163ZM112.004 132.365L111.648 132.119C112.218 132.837 111.352 133.791 111.882 134.593C112.809 134.18 113.873 131.022 112.004 132.365ZM166.267 120.623C166.632 120.191 166.995 119.759 167.359 119.327C166.962 119.054 165.691 121.669 166.267 120.623ZM140.706 124.563C141.286 121.527 143.42 124.297 144.277 121.945C144.988 121.933 145.448 122.752 146.016 123.118C146.808 119.849 147.048 116.761 147.837 113.583C146.095 114.717 144.106 112.538 142.344 114.177C142.973 116.751 141.141 117.823 139.018 118.918C137.966 119.708 138.425 120.229 139.475 120.526C138.514 121.819 136.168 122.661 137.04 124.516C138.628 123.954 139.171 122.089 140.246 120.917C141.863 122.577 140.949 122.948 140.504 124.746C140.571 124.685 140.639 124.624 140.706 124.563ZM167.167 116.696C163.54 117.019 172.436 110.973 164.345 113.351C161.458 112.658 162.482 115.062 162.895 116.644C162.523 117.355 162.099 118.088 163.531 117.999C162.362 119.578 163.947 119.727 164.067 118.04L164.027 118.089C165.503 116.208 166.529 118.388 167.374 116.516C167.306 116.576 167.236 116.636 167.167 116.696ZM110.689 87.2026C111.552 88.0546 109.854 90.8333 108.814 89.9099C107.974 88.4529 107.335 90.4384 107.861 91.0105C108.899 90.9839 112.413 91.4529 111.937 92.5565C110.136 93.087 109.611 93.7504 110.64 95.4543C110.981 96.9271 109.624 96.6436 109.227 95.4992C108.671 96.2969 108.811 96.9943 109.409 97.7261C108.077 99.7691 106.845 100.037 105.177 98.6881C99.7874 101.609 108.011 101.819 110.259 99.9739C113.393 101.022 119.662 101.735 121.428 98.4054C122.04 99.3735 121.041 100.592 122.754 100.437C138.47 100.104 154.191 99.8781 169.898 99.2641C175.505 101.923 173.241 76.9064 174.298 72.9687C174.955 61.1975 175.848 49.4326 176.688 37.6634C176.084 34.7192 180.121 26.6323 176.384 26.1711C166.402 26.7049 155.427 26.6913 146.192 27.5043C144.734 27.4618 136.717 26.7491 138.087 29.2192C137.141 29.0002 136.213 28.9283 136.066 27.7996C135.838 28.7633 134.83 31.1777 136.67 30.8449C137.044 31.971 133.903 35.103 133.176 32.8412C132.923 32.18 132.517 31.3897 133.491 30.7487C135.572 29.4958 133.452 27.0252 132.215 29.3679C131.497 30.1041 130.914 28.6692 130.941 28.2503C129.33 28.2043 126.197 26.979 125.957 29.4304C125.096 30.281 124.509 28.665 123.823 29.5588C122.773 30.2318 122.76 29.2001 123.011 28.7964C121.099 29.4699 120.375 27.6505 118.785 30.0975C118.567 30.0568 118.184 30.0638 118.156 29.9714C117.49 27.4424 114.267 28.451 112.489 28.7404C112.707 31.5519 113.542 29.6599 114.417 30.4325C114.176 31.9954 114.694 33.7241 112.526 33.4065C114.243 35.7243 115.834 36.6087 117.767 33.9292C120.846 36.3947 116.641 38.7659 120.261 39.7785C121.006 40.0614 121.569 39.1922 121.287 38.3054C121.61 37.4051 122.319 37.7017 122.962 37.7965C123.024 38.1829 122.403 39.0937 123.616 38.5972C125.914 36.9503 125.726 42.5936 123.593 41.8851C120.739 38.5872 118.861 43.0378 116.272 40.6204C115.938 40.348 115.132 40.0367 115.077 40.1121C113.801 42.1771 112.278 39.4431 108.739 39.7626C109.528 38.2603 109.509 38.2335 107.609 38.1736C104.801 36.3339 109.111 40.0252 106.272 39.267C104.344 36.9383 105.242 44.4455 106.153 42.4173C105.924 39.7068 109.439 40.9726 110.818 41.5399C112.108 42.64 111.952 44.2229 112.353 45.6149C112.958 45.8605 113.389 46.1314 113.154 46.8849C114.596 48.5837 115.518 45.1688 117.249 45.0773C118.235 46.0225 119.205 47.5529 120.262 48.2895C125.956 51.9999 118.164 51.7831 115.265 50.0908C112.684 50.7429 116.053 51.9149 116.904 52.1497C118.005 53.3109 119.05 53.5595 120.318 52.5058C119.594 55.9091 124.203 54.0503 125.223 56.4778C124.824 57.6729 125.824 59.3925 123.828 59.9888C123.981 60.1908 124.134 60.3931 124.287 60.5951C124.295 62.601 121.279 61.5893 122.939 60.7041C120.874 60.0875 119.702 62.1529 119.276 63.8699C117.173 64.0784 119.256 66.4958 117.551 66.7003C115.917 63.8017 115.796 68.2712 114.659 69.6375C114.398 69.2199 114.145 68.0386 113.79 68.9529C113.659 70.3074 115.099 69.1628 114.497 70.6533C112.8 71.2895 117.769 73.8707 113.823 73.3224C113.396 72.2124 112.239 71.0576 111.784 72.7244C112.764 72.6575 113.18 74.2194 113.661 74.3615C115.371 73.993 116.042 75.6583 117.323 76.0443C118.843 75.6313 118.844 76.3688 118.476 77.4029C118.053 79.3208 120.135 76.5789 120.408 78.0036C120.215 80.001 116.878 79.8225 116.882 82.1298C115.602 82.4687 113.569 82.426 112.202 82.062C112.09 83.1576 111.14 84.2755 112.951 84.3206C112.917 86.9284 110.776 85.652 110.713 83.7786C109.785 83.7313 108.946 83.6946 108.829 82.4323C108.746 81.5346 107.922 81.1933 107.381 81.9666C106.441 83.3117 106.003 82.7649 105.439 81.758C103.468 80.3039 106.348 78.2494 108.307 78.9448C108.352 78.9723 108.517 78.8067 108.626 78.7308C107.537 77.8915 105.903 78.1058 105.268 76.6549C103.135 77.992 103.073 83.5475 105.864 83.9915C106.971 84.0787 108.022 83.973 108.431 85.2858C109.813 85.5367 107.995 86.6634 110.689 87.2026ZM114.681 126.304C114.734 126.234 114.787 126.164 114.84 126.093C114.134 126.501 113.862 127.717 114.437 128.259C114.073 127.717 114.165 126.751 114.681 126.304ZM116.329 142.088C111.552 138.743 107.96 133.565 103.964 129.295C102.836 125.993 108.667 113.528 103.432 114.207C99.6186 113.364 88.5482 116.96 88.0703 112.358C88.7753 105.433 86.3221 99.1833 96.317 101.353C97.9368 101.488 98.1262 101.437 98.2008 99.8321C98.5114 86.5991 99.7019 73.4516 100.446 60.2344C105.184 24.5533 92.2551 25.8237 127.447 24.94C131.346 23.694 125.82 14.6414 131.293 13.905C157.683 11.6648 145.224 11.5115 151.254 24.027C156.246 25.2041 180.71 21.1269 180.419 25.6906C181.331 46.3082 178.623 67.03 177.835 87.5921C178.276 90.47 175.046 99.1281 178.293 99.7861C189.712 98.9283 186.845 100.224 186.575 111.222C184.091 114.892 172.81 109.845 171.616 113.773C174.501 135.15 176.408 156.651 177.962 178.159C173.935 177.145 170.616 173.823 166.608 173.669C165.999 174.946 159.411 172.921 159.641 171.879C159.13 163.524 159.373 155.156 159.402 146.793C159.433 139.147 159.752 130.709 159.271 122.684C159.476 115.657 161.857 111.353 152.272 113.076C147.968 112.056 151.256 127.506 146.605 132.536C145.581 131.717 145.226 133.292 144.391 133.117C144.713 132.415 144.533 132.195 143.895 132.576C133.34 145.392 135.914 136.3 134.424 125.847C134.755 123.707 132.501 119.246 135.036 118.36C137.45 118.706 139.287 114.577 139.196 114.386C139.001 114.966 137.755 115.235 138.643 116.128C137.846 115.424 135.74 118.77 134.68 117.152C133.438 115.945 134.173 113.508 131.94 113.753C127.944 113.751 123.948 113.744 119.953 113.709C118.849 113.699 118.419 114.085 118.365 115.226C117.945 124.196 117.1 133.141 116.329 142.088Z" fill="#100F10"/>
<path fill-rule="evenodd" clip-rule="evenodd" d="M211.733 192.569C212.7 188.658 203.624 194.891 211.008 194.085C211.349 194.046 211.558 192.963 211.733 192.569ZM213.565 182.068C212.676 182.762 212.283 187.213 214.17 186.018C217.398 183.912 217.684 183.017 213.565 182.068ZM199.557 206.291C198.681 204.485 199.649 199.263 197.41 199.258C196.593 199.536 195.567 199.876 196.242 201.092C197.595 202.174 198.239 209.402 199.557 206.291ZM196.313 171.468C197.049 165.406 188.947 170.228 185.5 169.935C184.842 171.778 191.601 172.201 193.484 173.37C196.332 174.293 196.391 174.808 196.313 171.468ZM212.059 168.985C211.05 165.36 203.348 168.552 200.211 168.122C197.565 168.326 197.827 175.06 200.163 175.648C211.552 179.055 211.965 183.066 212.059 168.985ZM199.003 181.04C200.193 183.657 197.605 195.327 202.654 193.536C206.625 190.924 212.74 189.241 211.622 183.424C211.537 179.258 205.684 179.883 202.745 178.214C198.001 176.666 199.09 177.23 199.003 181.04ZM207.918 195.168C198.347 193.775 201.165 202.348 202.143 208.252C202.516 209.547 202.124 211.777 203.397 212.54C204.719 212.241 206.118 214.428 207.375 212.44C209.002 213.106 209.503 211.078 211.123 211.075C214.227 208.34 210.954 202.202 211.638 198.313C211.677 194.617 211.464 195.195 207.918 195.168ZM216.161 167.363C211.236 167.529 214.188 174.841 213.239 178.101C213.17 179.069 212.788 180.431 213.795 180.535C215.742 180.735 217.334 182.569 219.461 181.644C232.157 168.856 237.39 167.595 216.161 167.363ZM204.986 165.819C215.122 167.653 212.434 160.489 214.625 153.369C216.749 149.441 198.392 152.227 199.507 155.24C199.727 161.405 195.024 168.563 204.986 165.819ZM174.843 141.145C175.385 137.977 183.537 140.984 186.806 140.238C188.833 139.87 189.193 143.742 191.021 141.56C194.16 138.16 201.106 141.55 201.85 135.75C208.092 139.375 212.797 140.988 202.575 141.476C206.494 143.232 211.557 141.51 215.017 144.534C211.155 145.324 202.827 140.838 201.279 145.052C201.134 146.752 198.632 151.827 202.206 150.92C207.016 149.572 212.803 150.656 217.036 148.124C217.447 147.653 218.635 146.64 218.114 148.63C218.786 149.811 221.055 149.444 222.098 150.691C219.766 151.701 216.367 149.932 216.057 153.336C211.952 167.829 214.842 165.533 228.17 166.368C234.056 168.164 231.559 161.72 234.665 162.412C235.855 162.975 234.284 164.64 234.763 165.852C234.724 167.954 236.704 166.852 237.738 167.507C239.801 168.955 236.075 169.269 235.069 168.783C233.937 168.449 233.427 168.882 232.942 169.762C230.558 174.382 226.368 177.762 222.986 181.675C219.049 184.407 238.91 188.802 241.421 190.024C242.833 195.273 236.256 194.911 232.818 193.628C234.955 192.21 237.817 193.271 240.067 192.125C234.637 188.887 227.957 187.59 222.148 184.854C219.061 183.653 216.611 187.48 214.004 188.684C209.384 198.081 226.325 192.28 231.276 193.269C233.125 195.971 218.07 194.725 215.329 195.157C211.506 194.939 214.216 200.111 213.82 202.342C214.319 208.862 213.159 211.339 220.674 207.525C225.519 206.515 238.335 197.415 239.027 200.801C231.531 204.703 223.649 207.772 215.693 210.652C214.326 214.19 235.433 207.117 238.221 204.717C236.52 212.217 223.285 213.379 216.104 214.778C212.805 214.911 216.554 219.37 214.69 220.069C211.883 219.203 214.686 214.852 211.146 215.206C198.571 214.846 206.388 215.753 202.698 221.724C201.208 221.667 201.534 222.95 201.178 223.578C198.125 225.977 197.29 229.668 195.481 232.803C190.407 237.896 181.927 239.384 175.662 243.186C165.103 249.035 177.427 228.146 175.774 221.843C176.856 220.106 176.311 223.994 176.04 224.758C180.506 214.672 179.705 202.138 191.99 197.622C193.941 196.826 195.823 198.42 197.397 196.586C199.238 193.918 193.7 196.106 192.843 194.494C194.542 192.729 198.662 195.565 197.622 191.518C196.224 186.623 198.469 178.996 194.748 175.508C190.574 172.887 176.599 172.573 177.343 168.54C183.281 169.571 189.222 167.325 195.151 166.829C197.904 164.894 196.244 159.314 197.216 156.126C197.139 151.001 181.128 159.504 176.5 159.923C175.686 153.823 196.386 155.236 198.013 150.013C198.391 145.731 201.608 140.706 194.486 142.415C187.438 142.557 181.516 146.8 175.445 149.896C174.608 144.814 182.927 144.559 186.101 142.047C182.737 140.745 178.508 141.618 174.843 141.145Z" fill="#ACE2F3" fill-opacity="0.35"/>
<path fill-rule="evenodd" clip-rule="evenodd" d="M171.278 228.039C170.335 227.259 169.445 232.096 170.744 230.701C170.951 229.82 171.106 228.928 171.278 228.039ZM190.526 191.388C186.295 182.31 187.989 192.886 184.915 194.808C186.446 196.021 190.421 193.214 190.526 191.388ZM162.237 209.115C172.973 203.231 183.527 197.52 182.996 184.174C175.038 191.487 168.118 200.456 162.056 209.3C162.116 209.238 162.176 209.177 162.237 209.115ZM177.553 171.212C198.994 174.741 196.199 173.88 197.664 192.825C197.686 195.362 193.918 192.668 192.843 194.496C193.702 196.103 199.238 193.924 197.399 196.588C195.818 198.427 193.945 196.818 191.989 197.621C179.705 202.139 180.508 214.672 176.041 224.758C177.57 213.812 171.883 242.064 170.753 245.146C158.88 250.603 168.454 237.218 168.856 231.332C168.181 227.33 178.197 208.423 173.338 209.946C163.025 217.382 151.003 222.798 147.216 235.716C145.082 239.924 142.907 244.112 140.749 248.308C131.665 245.396 138.8 239.221 140.654 232.977C134.951 233.831 130.331 243.381 124.114 236.522C130.957 231.334 138.088 226.429 145.126 221.329C148.58 219.566 149.932 216.627 151.275 213.262C154.17 206.817 160.751 202.728 163.874 196.707C166.628 190.205 172.938 185.169 177.958 180.116C178.868 177.692 177.185 174.224 177.553 171.212Z" fill="#3D9EBC"/>
<path fill-rule="evenodd" clip-rule="evenodd" d="M177.961 178.159C179.621 180.946 173.207 183.389 171.953 185.936C167.21 190.217 164.781 195.67 161.303 200.561C146.828 215.587 154.086 217.183 132.912 230.013C123.503 240.698 118.495 232.507 107.433 230.586C100.979 226.733 121.666 214.932 124.12 212.001C136.707 202.751 147.788 191.147 161.014 182.384C170.558 176.362 165.904 171.985 177.961 178.159Z" fill="#ACE2F3" fill-opacity="0.35"/>
<mask id="mask0_613_26443" style="mask-type:alpha" maskUnits="userSpaceOnUse" x="0" y="66" width="80" height="107">
<path d="M0 66.9551H79.0895V172.21H0V66.9551Z" fill="white"/>
</mask>
<g mask="url(#mask0_613_26443)">
<path fill-rule="evenodd" clip-rule="evenodd" d="M76.6956 128.906C64.9669 139.75 83.2661 85.526 71.0784 78.6517C54.7882 58.1267 18.0678 79.1295 22.094 102.774C21.8493 124.046 47.1251 130.418 60.1509 142.865C58.4083 149.359 51.2031 138.042 46.23 139.017C31.2577 135.799 8.45741 139.05 3.46277 155.406C3.38264 154.234 1.44947 153.698 1.24568 154.907C3.4327 156.83 3.65535 153.929 3.23339 158.355C6.00532 179.786 50.3569 159.445 35.6598 171.584C26.0618 171.089 14.9927 174.743 6.1557 168.557C-2.94073 163.168 -1.05985 151.2 5.9804 144.998C16.9137 133.907 32.279 135.888 43.232 134.653C-23.3733 96.2873 64.9485 32.7697 78.9908 89.5675C79.6426 102.597 76.8581 115.762 76.6956 128.906Z" fill="#100F10"/>
</g>
<path fill-rule="evenodd" clip-rule="evenodd" d="M92.9293 213.942C95.5571 206.137 94.7718 196.04 99.9049 189.622C105.236 184.656 145.486 172.491 131.559 182.312C134.654 182.302 127.834 188.395 126.565 189.595C125.383 188.701 125.138 189.992 124.775 190.448C120.129 195.966 116.117 201.559 112.882 207.804C112.269 206.537 109.124 210.632 110.638 211.292C109.566 214.513 107.009 213.82 106.345 216.535C104.657 216.789 104.686 218.218 104.289 219.35C103.197 221.042 101.882 222.668 100.934 224.526C96.3203 231.328 90.8253 218.608 92.9293 213.942Z" fill="#ACE2F3" fill-opacity="0.35"/>
<path fill-rule="evenodd" clip-rule="evenodd" d="M164.477 246.161C160.28 250.189 146.669 254.271 140.75 248.308C144.51 241.025 148.273 233.742 151.839 226.367C152.266 223.948 177.035 205.76 174.918 210.951C170.926 222.654 167.875 234.569 164.377 246.335C164.41 246.277 164.444 246.219 164.477 246.161Z" fill="#ACE2F3" fill-opacity="0.35"/>
<path fill-rule="evenodd" clip-rule="evenodd" d="M239.535 199.119C231.667 202.551 223.958 206.361 215.915 209.398C212.836 210.024 214.58 204.204 213.82 202.343C212.709 194.829 213.047 194.812 220.705 195.111C222.723 194.664 233.347 195.591 231.278 193.269C227.373 192.373 212.86 196.79 213.348 191.446C212.575 188.452 219.511 183.854 222.148 184.854C227.458 188.391 250.234 191.7 232.82 193.627C237.383 195.62 242.161 191.485 239.535 199.119Z" fill="#3D9EBC"/>
<path fill-rule="evenodd" clip-rule="evenodd" d="M201.85 135.75C201.103 141.549 194.162 138.161 191.021 141.56C189.193 143.743 188.834 139.869 186.807 140.239C179.807 139.877 172.889 141.853 173.922 132.819C177.294 129.524 182.574 128.155 185.791 124.843C179.724 124.57 172.49 136.12 173.112 124.989C174.713 123.615 179.31 117.905 174.256 120.586C172.069 124.653 169.396 114.519 179.231 120.201C185.3 122.001 189.576 126.831 194.98 129.866C196.32 131.353 202.223 134.345 201.85 135.75Z" fill="#3D9EBC"/>
<path fill-rule="evenodd" clip-rule="evenodd" d="M197.229 131.46C194.245 118.435 229.715 105.981 243.034 106.161C270.044 110.065 253.204 132.416 239.197 141.389C234.571 145.114 230.133 149.107 225.208 152.456C221.442 150.044 229.246 147.354 230.632 145.272C289.342 102.651 222.587 98.0214 197.229 131.46Z" fill="#100F10"/>
<path fill-rule="evenodd" clip-rule="evenodd" d="M224.06 150.464C225.606 155.203 233.216 157.225 234.667 162.415C232.547 161.286 233.025 165.669 231.657 166.197C228.346 166.115 211.999 167.418 214.278 162.917C215.757 159.458 213.957 151.219 218.989 151.139C221.417 151.129 222.926 150.666 219.979 149.45C219.378 149.284 218.163 149.543 218.113 148.631C218.635 146.641 217.447 147.654 217.036 148.124C212.803 150.656 207.016 149.573 202.207 150.923C200.512 151.177 200.193 151 200.399 149.296C200.581 141.092 204.827 143.565 211.028 144.223C216.448 143.73 219.501 148.396 224.06 150.464Z" fill="#3D9EBC"/>
<path fill-rule="evenodd" clip-rule="evenodd" d="M241.422 190.022C217.103 180.762 218.963 188.645 232.943 169.762C233.77 167.734 236.048 169.36 237.723 168.927C238.666 168.559 238.449 167.548 237.318 167.363C234.516 167.723 234.033 165.007 235.355 162.901C243.354 169.319 244.594 181.275 241.422 190.022Z" fill="#3D9EBC"/>
<path fill-rule="evenodd" clip-rule="evenodd" d="M92.6052 215.535C92.3669 219.489 93.0351 222.845 96.2031 225.479C95.2266 229.102 94.8192 233.842 89.8876 233.8C84.651 234.786 91.6168 228.353 86.7898 226.164C80.7858 217.554 69.8592 223.913 74.3637 233.274C70.9411 245.673 60.5287 211.233 92.6052 215.535Z" fill="#EB5276"/>
<path fill-rule="evenodd" clip-rule="evenodd" d="M103.855 128.629C104.004 139.413 85.1999 146.194 84.0117 132.341C92.0788 135.905 104.16 132.529 95.0615 123.455C98.5075 124.135 100.948 126.826 103.855 128.629Z" fill="#EB5276"/>
<path fill-rule="evenodd" clip-rule="evenodd" d="M215.288 219.887C215.386 218.277 213.427 215.023 216.102 214.777C223.859 214.526 230.549 210.888 237.583 208.198C236.741 213.135 230.684 219.147 225.456 217.145C226.345 218.874 221.841 220.767 220.345 219.214C218.733 220.25 217.039 219.887 215.288 219.887Z" fill="#3D9EBC"/>
<path fill-rule="evenodd" clip-rule="evenodd" d="M190.674 31.9669C180.567 28.2457 215.066 22.3688 214.129 26.789C209.794 32.3234 196.861 29.2799 190.674 31.9669Z" fill="#100F10"/>
<path fill-rule="evenodd" clip-rule="evenodd" d="M199.518 6.91758C198.042 8.61272 184.046 26.2149 185.21 17.1527C186.655 14.6987 198.506 -0.384968 199.518 6.91758Z" fill="#100F10"/>
<path fill-rule="evenodd" clip-rule="evenodd" d="M179.684 2.949C178.12 6.8011 179.812 15.5652 175.16 16.9425C172.151 13.1233 175.676 6.59297 175.638 1.93426C176.014 -1.1326 180.146 -0.373077 179.684 2.949Z" fill="#100F10"/>
<path fill-rule="evenodd" clip-rule="evenodd" d="M238.222 204.716C231.292 208.878 222.882 210.969 214.861 211.712C219.11 208.166 225.869 207.538 230.865 204.722C234.611 203.678 240.79 197.723 238.222 204.716Z" fill="#3D9EBC"/>
<path fill-rule="evenodd" clip-rule="evenodd" d="M203.059 221.32C205.612 219.353 200.765 214.56 206.215 215.217C216.189 214.876 210.58 215.164 214.689 220.07C210.952 221.376 206.96 221.035 203.059 221.32Z" fill="#3D9EBC"/>
<path fill-rule="evenodd" clip-rule="evenodd" d="M129.431 239.731C133.084 237.942 137.126 233.251 140.653 232.976C137.213 239.388 136.688 250.116 129.431 239.731Z" fill="#ACE2F3" fill-opacity="0.35"/>
<path fill-rule="evenodd" clip-rule="evenodd" d="M95.0614 123.453C88.5008 123.649 86.9575 128.721 92.9898 131.688C79.4095 133.696 82.9668 119.151 95.0614 123.453Z" fill="#EB5276"/>
<path fill-rule="evenodd" clip-rule="evenodd" d="M79.8439 223.367C89.0328 226.312 72.6301 225.921 78.8945 235.157C73.4494 233.678 72.8804 223.433 79.8439 223.367Z" fill="#EB5276"/>
<path fill-rule="evenodd" clip-rule="evenodd" d="M85.4868 230.242C85.7768 236.73 79.1731 235.049 79.0674 230.158C80.1854 226.789 85.8432 225.287 85.4868 230.242Z" fill="#EB5276"/>
<path fill-rule="evenodd" clip-rule="evenodd" d="M98.5116 227.109C101.342 227.947 104.743 229.129 107.434 230.586C102.091 230.724 94.5157 235.944 98.5116 227.109Z" fill="#EB5276"/>
<path fill-rule="evenodd" clip-rule="evenodd" d="M95.031 130.381C91.9605 130.816 88.2648 126.201 92.4523 125.048C95.3441 124.235 100.04 130.215 95.031 130.381Z" fill="#EB5276"/>
<path fill-rule="evenodd" clip-rule="evenodd" d="M201.376 223.473C201.137 222.406 201.6 221.838 202.697 221.724C202.969 222.816 202.164 223.139 201.376 223.473Z" fill="#3D9EBC"/>
<path fill-rule="evenodd" clip-rule="evenodd" d="M200.472 224.283C200.708 224.048 200.944 223.812 201.178 223.578C200.941 223.813 200.706 224.048 200.472 224.283Z" fill="#3D9EBC"/>
<path fill-rule="evenodd" clip-rule="evenodd" d="M241.746 188.997C241.857 188.773 241.969 188.55 242.079 188.329C241.967 188.552 241.857 188.774 241.746 188.997Z" fill="#ACE2F3" fill-opacity="0.35"/>
<path fill-rule="evenodd" clip-rule="evenodd" d="M242.152 187.195C241.884 187.104 242.133 187.03 242.281 186.931C242.339 187.071 242.302 187.153 242.152 187.195Z" fill="#ACE2F3" fill-opacity="0.35"/>
<path fill-rule="evenodd" clip-rule="evenodd" d="M105.674 229.396C96.7777 228.22 99.623 225.304 104.042 220.14C104.537 218.532 104.691 216.972 106.568 216.252C106.912 213.869 109.997 214.148 110.729 211.111C108.568 211.329 113.29 205.304 112.739 208.365C115.682 201.781 120.115 196.157 124.775 190.449C125.138 189.992 125.383 188.701 126.563 189.595C129.413 187.438 131.596 184.025 133.521 181.21L133.514 181.217C133.666 181.068 133.819 180.919 133.972 180.771C134.057 180.688 134.33 180.423 134.407 180.348L134.871 179.898L134.859 179.91C159.902 164.662 127.316 193.503 124.556 201.023C120.928 205.495 113.089 215.816 123.335 206.232C132.873 200.968 162.619 168.248 169.583 174.602C163.132 182.206 153.739 186.512 146.441 193.311C140.207 200.914 131.048 205.291 124.121 212C117.872 217.543 109.127 221.173 105.674 229.396Z" fill="#3D9EBC"/>
<path fill-rule="evenodd" clip-rule="evenodd" d="M63.0056 133.068C65.5015 135.981 67.4061 139.306 62.3859 140.748C55.9227 130.839 49.9993 120.37 47.242 108.863C44.9272 103.997 30.71 102.428 29.4307 96.0568C29.6576 95.0859 30.6045 95.2489 31.2761 95.478C52.8166 108.636 43.9069 100.054 42.8053 83.1475C46.3302 66.4827 51.9951 121.122 54.2061 112.328C54.6398 103.384 55.9126 90.5599 62.418 84.6396C65.0984 90.5968 55.2954 103.592 57.1583 112.511C57.5551 117.204 56.5462 122.509 59.4234 126.56C59.75 128.485 64.1826 132.195 60.9755 132.403C60.6983 133.525 62.2889 133.148 63.0056 133.068Z" fill="#100F10"/>
<path fill-rule="evenodd" clip-rule="evenodd" d="M150.79 173.827C153.593 173.923 159.67 174.467 158.902 170.04C157.544 167.62 153.002 173.159 150.79 173.827ZM164.177 173.988C147.375 184.334 133.768 199.37 117.781 210.766C124.898 197.808 135.955 187.18 145.249 175.625C146.945 172.681 160.522 167.525 158.086 165.06C150.216 163.332 146.204 159.622 141.487 168.207C137.636 166.351 146.354 162.557 142.409 161.515C131.05 160.297 130.839 156.33 142.479 159.794C147.693 161.25 151.502 151.028 155.508 148.133C163.315 139.676 158.894 148.567 154.77 151.66C145.609 161.636 145.72 161.245 159.296 163.29C159.407 166.152 159.493 169.016 159.641 171.877C159.845 173.458 162.9 173.032 164.177 173.988Z" fill="#ACE2F3" fill-opacity="0.35"/>
<path fill-rule="evenodd" clip-rule="evenodd" d="M159.451 144.168C154.417 148.901 150.213 154.369 145.699 159.559C141.882 161.219 137.291 157.477 132.944 158.198C121.253 150.051 125.247 149.094 134.779 141.522C140.93 143.973 156.441 137.332 159.378 142.522C159.326 142.892 159.496 143.617 159.451 144.168Z" fill="#3D9EBC"/>
<path fill-rule="evenodd" clip-rule="evenodd" d="M141.486 168.206C146.199 159.624 150.231 163.331 158.085 165.061C160.646 166.017 155.829 167.899 155.035 168.779C148.345 173.276 145.777 177.166 141.486 168.206Z" fill="#3D9EBC"/>
<path fill-rule="evenodd" clip-rule="evenodd" d="M135.191 160.763C136.774 160.14 145.268 160.809 142.985 163.227C140.025 169.34 138.243 163.984 135.191 160.763Z" fill="#3D9EBC"/>
<path fill-rule="evenodd" clip-rule="evenodd" d="M143.54 173.608C143.338 174.264 142.948 174.396 142.507 173.856C142.522 173.178 143.013 172.94 143.54 173.608Z" fill="#3D9EBC"/>
<path fill-rule="evenodd" clip-rule="evenodd" d="M175.446 149.896C182.015 146.401 188.519 142.084 196.264 142.314C201.265 139.729 198.662 152.812 195.286 152.417C186.064 152.231 174.466 164.497 175.446 149.896Z" fill="#3D9EBC"/>
<path fill-rule="evenodd" clip-rule="evenodd" d="M176.499 159.926C183.29 157.637 190.242 155.816 197.125 153.87C197.411 157.785 196.547 161.691 196.349 165.605C193.05 168.749 185.561 167.526 180.857 168.921C175.333 169.944 177.432 163.412 176.499 159.926Z" fill="#3D9EBC"/>
<path fill-rule="evenodd" clip-rule="evenodd" d="M159.269 122.684C160.533 145.785 161.138 138.213 136.18 139.893C139.575 137.621 142.59 132.826 146.605 132.535C148.527 127.865 155.244 125.992 159.269 122.684Z" fill="#3D9EBC"/>
<path fill-rule="evenodd" clip-rule="evenodd" d="M159.296 163.289C157.187 163.028 146.051 161.996 148.405 159.171C160.807 144.104 159.646 144.783 159.296 163.289Z" fill="#3D9EBC"/>
<path fill-rule="evenodd" clip-rule="evenodd" d="M142.494 114.914C141.91 113.18 144.984 113.376 146.051 113.881C146.097 115.663 149.126 115.615 146.562 118.652C144.727 119.477 148.083 124.861 144.715 122.023C143.961 121.695 143.149 120.874 144.276 121.944C142.84 125.001 140.904 121.31 139.476 120.526C136.439 119.501 141.107 117.929 142.066 117.103C142.176 116.868 144.728 115.106 144.464 116.478C146.193 115.196 143.436 115.295 142.494 114.914Z" fill="#EB5276"/>
<path fill-rule="evenodd" clip-rule="evenodd" d="M118.697 35.1206C116.965 33.6672 117.888 31.6978 118.784 30.094C119.726 29.9837 122.055 32.7093 121.383 30.3688C117.633 26.9191 123.493 28.7757 122.917 32.9795C126.209 25.9534 131.005 37.4955 125.199 33.2252C124.133 38.9158 122.129 34.71 118.697 35.1206Z" fill="#EB5276"/>
<path fill-rule="evenodd" clip-rule="evenodd" d="M136.18 139.891C142.741 141.733 155.386 136.493 159.174 140.71C155.977 139.689 130.52 144.61 136.18 139.891Z" fill="#ACE2F3" fill-opacity="0.35"/>
<path fill-rule="evenodd" clip-rule="evenodd" d="M174.844 141.144C178.507 141.616 182.738 140.746 186.102 142.045C179.576 143.891 173.965 151.903 174.844 141.144Z" fill="#3D9EBC"/>
<path fill-rule="evenodd" clip-rule="evenodd" d="M173.747 130.685C177.73 128.876 181.365 125.135 185.791 124.844C183.974 127.396 180.147 127.642 178.082 130.212C175.748 130.557 173.406 134.499 173.747 130.685Z" fill="#ACE2F3" fill-opacity="0.35"/>
<path fill-rule="evenodd" clip-rule="evenodd" d="M110.674 75.4208C116.303 75.2225 112.374 80.2386 116.659 78.4227C117.699 81.2171 112.436 80.9678 112.058 78.8438C107.847 80.3436 111.294 77.4729 110.674 75.4208Z" fill="#EB5276"/>
<path fill-rule="evenodd" clip-rule="evenodd" d="M122.8 44.725C122.869 44.2144 123.891 43.9077 122.907 43.1373C121.891 40.4266 128.644 42.3928 125.802 44.8277C122.788 50.3241 120.363 43.1042 122.94 45.0558C122.893 44.9456 122.847 44.8353 122.8 44.725Z" fill="#EB5276"/>
<path fill-rule="evenodd" clip-rule="evenodd" d="M109.409 97.7258C114.918 99.1634 102.692 103.472 103.65 100.016C104.946 96.7032 107.466 101.829 109.409 97.7258Z" fill="#EB5276"/>
<path fill-rule="evenodd" clip-rule="evenodd" d="M117.95 57.5386C118.048 55.2899 119.149 54.6467 120.067 57.0147C119.96 57.8369 121.034 59.7797 120.031 60.4875C117.496 60.7809 117.427 63.8935 116.228 59.6589C117.188 58.4973 120.366 59.5643 117.95 57.5386Z" fill="#EB5276"/>
<path fill-rule="evenodd" clip-rule="evenodd" d="M126.348 53.5178C124.988 56.8911 126.161 55.9565 123.197 55.204C120.996 55.5 118.647 51.579 121.82 53.1852C122.282 53.4217 122.784 53.8896 122.795 52.8677C124.64 53.0159 124.507 54.7452 126.348 53.5178Z" fill="#EB5276"/>
<path fill-rule="evenodd" clip-rule="evenodd" d="M124.286 60.5942C128.24 62.9545 123.781 67.4661 122.038 63.14C121.841 61.5678 124.265 62.1362 124.286 60.5942Z" fill="#EB5276"/>
<path fill-rule="evenodd" clip-rule="evenodd" d="M172.681 122.391C173.592 121.315 175.127 119.03 176.746 120.07C176.074 122.143 172.397 127.211 172.681 122.391Z" fill="#ACE2F3" fill-opacity="0.35"/>
<path fill-rule="evenodd" clip-rule="evenodd" d="M165.814 122.373C170.909 116.973 167.724 126.74 165.624 126.147C164.933 124.826 165.757 123.829 165.833 122.353L165.814 122.373Z" fill="#EB5276"/>
<path fill-rule="evenodd" clip-rule="evenodd" d="M111.663 61.1598C106.751 60.3584 114.065 55.691 115.241 59.4439C111.157 59.4842 114.194 60.597 111.663 61.1598Z" fill="#EB5276"/>
<path fill-rule="evenodd" clip-rule="evenodd" d="M108.739 39.7615C108.538 40.1405 107.275 39.5274 107.862 40.6433C106.901 40.8756 105.915 41.0724 106.153 42.4167C106.091 43.0507 105.443 42.805 105.313 42.3541C105.576 41.4954 104.403 37.5753 106.272 39.2666C106.829 39.721 107.521 39.2077 107.462 38.3237C109.109 37.9321 109.715 38.2976 108.739 39.7615Z" fill="#EB5276"/>
<path fill-rule="evenodd" clip-rule="evenodd" d="M105.838 73.215C106.163 72.8689 106.806 72.4748 106.76 72.1848C106.805 69.841 110.701 72.9859 108.279 73.9516C106.75 73.2712 105.654 74.7445 104.36 74.8609C103.42 73.0766 104.91 73.9643 105.838 73.215Z" fill="#EB5276"/>
<path fill-rule="evenodd" clip-rule="evenodd" d="M103.827 87.8316C104.42 86.3098 105.216 87.1595 106.398 86.6406C107.597 83.7969 110.836 90.3114 103.827 87.8316Z" fill="#EB5276"/>
<path fill-rule="evenodd" clip-rule="evenodd" d="M168.349 153.846C167.008 156.514 165.668 159.183 164.328 161.851C163.436 160.4 166.945 155.049 168.349 153.846Z" fill="#EB5276"/>
<path fill-rule="evenodd" clip-rule="evenodd" d="M115.902 82.4127C116.471 84.4563 114.363 83.8422 112.951 84.321C111.142 84.2689 112.088 83.1633 112.202 82.0601C113.411 82.6694 114.652 81.9465 115.902 82.4127Z" fill="#EB5276"/>
<path fill-rule="evenodd" clip-rule="evenodd" d="M106.516 67.5409C101.406 68.8812 105.873 62.4925 106.351 65.3819C105.189 66.2278 107.247 66.7835 106.516 67.5409Z" fill="#EB5276"/>
<path fill-rule="evenodd" clip-rule="evenodd" d="M168.349 153.846C167.718 153.276 170.118 148.193 171.153 148.123C170.83 150.281 169.294 151.942 168.349 153.846Z" fill="#ACE2F3" fill-opacity="0.35"/>
<path fill-rule="evenodd" clip-rule="evenodd" d="M162.895 116.642C163.56 115.752 166.703 111.714 165.936 114.557C165.391 115.668 164.515 117.143 164.066 118.038C162.707 118.1 162.124 117.747 162.895 116.642Z" fill="#EB5276"/>
<path fill-rule="evenodd" clip-rule="evenodd" d="M149.028 27.4415C147.868 28.7627 149.785 29.6098 148.574 30.9669C148.033 29.9694 146.748 25.3813 149.028 27.4415Z" fill="#EB5276"/>
<path fill-rule="evenodd" clip-rule="evenodd" d="M138.087 29.2198C139.64 30.4939 136.741 30.7977 135.717 30.7982C135.693 27.2211 135.452 28.4631 138.087 29.2198Z" fill="#EB5276"/>
<path fill-rule="evenodd" clip-rule="evenodd" d="M170.545 162.851C171.044 161.471 171.522 160.084 172.065 158.721C173.523 157.257 171.574 163.524 170.545 162.851Z" fill="#EB5276"/>
<path fill-rule="evenodd" clip-rule="evenodd" d="M119.344 37.447C120.861 37.5782 122.464 39.7402 120.261 39.7786C118.837 39.0735 117.303 38.4812 119.344 37.447Z" fill="#EB5276"/>
<path fill-rule="evenodd" clip-rule="evenodd" d="M145.929 125.659C144.48 126.657 144.107 125.807 143.056 125.033C144.399 123.376 144.742 124.086 145.929 125.659Z" fill="#EB5276"/>
<path fill-rule="evenodd" clip-rule="evenodd" d="M109.075 85.3396C110.264 85.4517 110.782 84.9044 110.711 83.7761C112.682 85.8529 108.805 88.6288 109.075 85.3396Z" fill="#EB5276"/>
<path fill-rule="evenodd" clip-rule="evenodd" d="M108.136 58.1421C108.34 59.2045 106.7 59.5009 106.106 59.2819C104.646 57.7421 107.329 56.0306 108.136 58.1421Z" fill="#EB5276"/>
<path fill-rule="evenodd" clip-rule="evenodd" d="M121.032 61.9174C121.986 63.4194 120.451 64.1214 119.742 64.7316C118.588 65.098 119.551 61.9699 120.511 61.7938C120.555 61.7509 120.883 61.8956 121.032 61.9174Z" fill="#EB5276"/>
<path fill-rule="evenodd" clip-rule="evenodd" d="M117.773 66.7402C118.139 67.289 117.362 68.6886 118.997 68.2926C119.503 69.3427 117.284 70.6414 117.008 69.1853C117.215 68.5618 117.189 66.7487 117.773 66.7402Z" fill="#EB5276"/>
<path fill-rule="evenodd" clip-rule="evenodd" d="M114.417 30.4334C115.167 30.3892 115.995 30.7719 115.59 31.4052C115.04 34.8899 113.633 33.0116 114.417 30.4334Z" fill="#EB5276"/>
<path fill-rule="evenodd" clip-rule="evenodd" d="M130.551 29.1671C132.183 28.8845 132.015 30.8115 132.085 31.896C130.469 32.8394 130.926 30.1995 130.551 29.1671Z" fill="#EB5276"/>
<path fill-rule="evenodd" clip-rule="evenodd" d="M111.062 68.5781C111.638 69.3703 113.483 69.3941 113.155 70.43C112.656 70.7155 108.895 69.3636 111.062 68.5781Z" fill="#EB5276"/>
<path fill-rule="evenodd" clip-rule="evenodd" d="M115.316 45.9653C114.387 46.0786 114.678 45.4476 114.685 44.9897C115.924 42.8999 118.779 45.3341 115.316 45.9653Z" fill="#EB5276"/>
<path fill-rule="evenodd" clip-rule="evenodd" d="M109.587 90.2817C109.487 91.5179 107.047 91.3695 107.751 89.7748C108.28 88.6779 108.827 90.278 109.587 90.2817Z" fill="#EB5276"/>
<path fill-rule="evenodd" clip-rule="evenodd" d="M165.833 122.354C165.147 123.064 164.461 123.773 163.775 124.483C163.647 124.002 165.19 120.88 165.833 122.354Z" fill="#ACE2F3" fill-opacity="0.35"/>
<path fill-rule="evenodd" clip-rule="evenodd" d="M139.846 125.992C139.686 127.417 139.899 127.857 139.163 128.769C138.319 127.447 138.414 127.178 139.846 125.992Z" fill="#EB5276"/>
<path fill-rule="evenodd" clip-rule="evenodd" d="M164.345 113.349C163.961 114.176 163.721 115.177 162.398 114.865C162.354 113.24 162.474 113.147 164.345 113.349Z" fill="#EB5276"/>
<path fill-rule="evenodd" clip-rule="evenodd" d="M143.018 130.374C143.266 131.014 141.618 133.334 141.354 132.147C142.014 131.645 141.217 129.836 143.018 130.374Z" fill="#EB5276"/>
<path fill-rule="evenodd" clip-rule="evenodd" d="M109.845 49.0632C111.158 48.3168 111.371 48.8148 111.658 50.0972C110.479 50.537 110.127 50.1996 109.845 49.0632Z" fill="#EB5276"/>
<path fill-rule="evenodd" clip-rule="evenodd" d="M112.004 132.363C113.899 131.232 112.701 133.217 112.405 134.279C111.392 135.236 111.672 132.86 112.004 132.363Z" fill="#EB5276"/>
<path fill-rule="evenodd" clip-rule="evenodd" d="M112.704 66.0624C112.115 66.8546 111.558 67.1582 111.273 66.2062C111.672 65.4214 112.112 65.159 112.704 66.0624Z" fill="#EB5276"/>
<path fill-rule="evenodd" clip-rule="evenodd" d="M136.679 32.1907C136.293 32.4494 135.906 32.7083 135.52 32.9661C135.098 32.051 136.016 32.3147 136.679 32.1907Z" fill="#EB5276"/>
<path fill-rule="evenodd" clip-rule="evenodd" d="M122.962 37.7949C123.551 37.917 124.529 37.6809 124.915 38.0634C124.032 38.4688 122.39 39.3233 122.962 37.7949Z" fill="#EB5276"/>
<path fill-rule="evenodd" clip-rule="evenodd" d="M113.128 72.1162C112.827 72.862 112.569 73.1324 111.784 72.7221C112.079 72.2001 112.225 71.3654 113.128 72.1162Z" fill="#EB5276"/>
<path fill-rule="evenodd" clip-rule="evenodd" d="M140.95 134.555C140.169 134.114 140.398 133.982 140.741 133.438C141.431 133.699 141.204 133.955 140.95 134.555Z" fill="#EB5276"/>
<path fill-rule="evenodd" clip-rule="evenodd" d="M107.462 38.324C105.658 38.7995 106.601 36.8446 107.609 38.1734C107.609 38.1734 107.462 38.324 107.462 38.324Z" fill="#EB5276"/>
<path fill-rule="evenodd" clip-rule="evenodd" d="M166.276 120.631C166.633 120.304 166.901 119.142 167.359 119.326C167.009 119.761 166.595 120.198 166.276 120.631Z" fill="#ACE2F3" fill-opacity="0.35"/>
<path fill-rule="evenodd" clip-rule="evenodd" d="M124.551 30.8394C123.656 30.7627 123.564 30.2549 123.822 29.5586C124.862 28.4763 124.911 30.1558 124.551 30.8394Z" fill="#EB5276"/>
<path fill-rule="evenodd" clip-rule="evenodd" d="M113.405 33.3278C113.307 33.6175 113.209 33.9071 113.108 34.1957C112.552 33.5248 112.401 33.3167 113.405 33.3278Z" fill="#EB5276"/>
<path fill-rule="evenodd" clip-rule="evenodd" d="M114.498 70.6526C114.523 70.9878 114.548 71.3232 114.572 71.6564C113.855 71.2613 113.754 71.0933 114.498 70.6526Z" fill="#EB5276"/>
<path fill-rule="evenodd" clip-rule="evenodd" d="M141.61 122.823C141.296 123.369 141.014 124.078 140.687 124.544C140.851 123.934 140.4 122.832 141.61 122.823Z" fill="#EB5276"/>
<path fill-rule="evenodd" clip-rule="evenodd" d="M109.004 74.9518L109.12 74.8252C110.21 75.4516 108.647 76.7723 109.004 74.9518Z" fill="#EB5276"/>
<path fill-rule="evenodd" clip-rule="evenodd" d="M166.718 128.556C166.449 128.886 166.098 129.306 165.964 128.704C166.248 128.247 166.435 127.775 166.718 128.556Z" fill="#ACE2F3" fill-opacity="0.35"/>
<path fill-rule="evenodd" clip-rule="evenodd" d="M114.083 119.347C114.001 118.665 113.667 118.352 114.421 118.225C114.694 118.772 114.624 118.848 114.083 119.347Z" fill="#EB5276"/>
<path fill-rule="evenodd" clip-rule="evenodd" d="M165.85 116.833C165.98 116.596 166.799 116.781 167.167 116.695C166.946 117.726 166.354 117.834 165.85 116.833Z" fill="#EB5276"/>
<path fill-rule="evenodd" clip-rule="evenodd" d="M103.953 87.9735C103.714 88.3002 103.544 89.0917 103.22 88.4802C103.427 88.3263 103.748 87.6455 103.953 87.9735Z" fill="#EB5276"/>
<path fill-rule="evenodd" clip-rule="evenodd" d="M113.504 120.127C112.772 120.576 112.24 119.866 112.898 119.478C113.06 119.651 113.222 119.825 113.504 120.127Z" fill="#EB5276"/>
<path fill-rule="evenodd" clip-rule="evenodd" d="M141.598 125.094C141.966 125.38 141.739 125.475 141.418 125.658C141.243 125.368 141.227 125.209 141.598 125.094Z" fill="#EB5276"/>
<path fill-rule="evenodd" clip-rule="evenodd" d="M114.278 126.777C114.22 127.195 114.355 127.712 114.186 128.079C114.25 127.762 114.056 126.694 114.278 126.777Z" fill="#EB5276"/>
<path fill-rule="evenodd" clip-rule="evenodd" d="M110.875 87.5237C111.246 87.579 111.616 87.6344 111.987 87.6898C111.441 87.909 110.996 88.3148 110.875 87.5237Z" fill="#EB5276"/>
<path fill-rule="evenodd" clip-rule="evenodd" d="M139.541 135.128C139.492 134.989 139.44 134.906 139.647 134.886C139.695 135.024 139.744 135.108 139.541 135.128Z" fill="#EB5276"/>
<path fill-rule="evenodd" clip-rule="evenodd" d="M122.457 60.8061C122.118 60.5849 122.766 60.671 122.939 60.7028C122.778 60.7372 122.617 60.7716 122.457 60.8061Z" fill="#EB5276"/>
<path fill-rule="evenodd" clip-rule="evenodd" d="M164.65 130.868C164.535 130.938 164.452 130.937 164.361 130.834C164.458 130.845 164.554 130.856 164.65 130.868Z" fill="#ACE2F3" fill-opacity="0.35"/>
<path fill-rule="evenodd" clip-rule="evenodd" d="M167.167 116.695C167.236 116.635 167.305 116.575 167.374 116.515C167.302 116.568 167.237 116.748 167.167 116.695Z" fill="#EB5276"/>
<path fill-rule="evenodd" clip-rule="evenodd" d="M111.891 132.496C111.81 132.37 111.729 132.244 111.648 132.118C111.767 132.2 111.886 132.282 112.004 132.363L111.891 132.496Z" fill="#EB5276"/>
<path fill-rule="evenodd" clip-rule="evenodd" d="M104.349 74.8494L104.282 74.9333C104.283 74.9243 104.385 74.8576 104.349 74.8494Z" fill="#EB5276"/>
<path fill-rule="evenodd" clip-rule="evenodd" d="M114.018 73.501L113.832 73.4999C113.79 73.22 113.879 73.3909 114.018 73.501Z" fill="#EB5276"/>
<path fill-rule="evenodd" clip-rule="evenodd" d="M114.249 128.022C114.312 128.101 114.375 128.18 114.437 128.259C114.363 128.175 114.11 128.115 114.249 128.022Z" fill="#EB5276"/>
<path fill-rule="evenodd" clip-rule="evenodd" d="M165.263 129.998C165.174 130.127 165.063 130.136 165.029 129.979C165.09 129.83 165.196 129.857 165.263 129.998Z" fill="#ACE2F3" fill-opacity="0.35"/>
<path fill-rule="evenodd" clip-rule="evenodd" d="M140.706 124.563C140.639 124.624 140.571 124.685 140.504 124.746C140.576 124.693 140.635 124.543 140.706 124.563Z" fill="#EB5276"/>
<path fill-rule="evenodd" clip-rule="evenodd" d="M159.409 142.754L159.263 142.651C159.361 142.452 159.54 142.585 159.409 142.754Z" fill="#ACE2F3" fill-opacity="0.35"/>
<path fill-rule="evenodd" clip-rule="evenodd" d="M122.799 29.0691C123.033 28.6166 123.275 29.0251 122.779 29.0704C122.78 29.0702 122.799 29.0691 122.799 29.0691Z" fill="#EB5276"/>
<path fill-rule="evenodd" clip-rule="evenodd" d="M114.649 126.27C114.713 126.211 114.776 126.151 114.84 126.092C114.773 126.146 114.719 126.336 114.649 126.27Z" fill="#EB5276"/>
<path fill-rule="evenodd" clip-rule="evenodd" d="M146.431 27.5113C146.291 27.4897 146.094 27.5438 146.315 27.4163L146.431 27.5113Z" fill="#EB5276"/>
<path fill-rule="evenodd" clip-rule="evenodd" d="M114.189 126.691C114.35 126.592 114.529 126.284 114.681 126.304C114.524 126.409 114.346 126.894 114.189 126.691Z" fill="#EB5276"/>
<path fill-rule="evenodd" clip-rule="evenodd" d="M111.42 135.218C111.323 135.365 111.192 135.381 111.144 135.209C111.206 135.046 111.338 135.068 111.42 135.218Z" fill="#EB5276"/>
<path fill-rule="evenodd" clip-rule="evenodd" d="M110.42 87.0352C110.51 87.0914 110.601 87.1476 110.69 87.2027C110.599 87.1461 110.509 87.0905 110.42 87.0352Z" fill="#EB5276"/>
<path fill-rule="evenodd" clip-rule="evenodd" d="M166.268 120.623C166.183 120.849 166.179 121.08 165.972 120.784C166.071 120.722 166.202 120.693 166.268 120.623Z" fill="#ACE2F3" fill-opacity="0.35"/>
<path fill-rule="evenodd" clip-rule="evenodd" d="M113.779 30.16C113.932 30.1539 114.085 30.1478 114.237 30.1404C114.083 30.1458 113.931 30.153 113.779 30.16Z" fill="#EB5276"/>
<path fill-rule="evenodd" clip-rule="evenodd" d="M204.986 165.819C195.03 168.564 199.723 161.4 199.507 155.24C198.384 152.219 216.736 149.449 214.626 153.368C212.432 160.494 215.124 167.651 204.986 165.819Z" fill="#3D9EBC"/>
<path fill-rule="evenodd" clip-rule="evenodd" d="M216.161 167.364C237.355 167.611 232.216 168.798 219.462 181.645C217.334 182.569 215.742 180.735 213.796 180.535C212.788 180.431 213.171 179.069 213.24 178.101C214.182 174.842 211.242 167.53 216.161 167.364Z" fill="#3D9EBC"/>
<path fill-rule="evenodd" clip-rule="evenodd" d="M207.919 195.17C211.464 195.204 211.678 194.613 211.637 198.315C210.958 202.203 214.224 208.342 211.124 211.077C209.503 211.079 209.003 213.108 207.375 212.442C206.118 214.43 204.719 212.243 203.398 212.541C202.123 211.778 202.519 209.549 202.143 208.253C201.168 202.354 198.347 193.77 207.919 195.17Z" fill="#3D9EBC"/>
<path fill-rule="evenodd" clip-rule="evenodd" d="M199.003 181.041C199.09 177.231 198.002 176.667 202.745 178.215C205.688 179.882 211.532 179.26 211.623 183.424C212.74 189.241 206.625 190.925 202.655 193.535C197.6 195.337 200.198 183.655 199.003 181.041Z" fill="#3D9EBC"/>
<path fill-rule="evenodd" clip-rule="evenodd" d="M208.414 139.708C213.766 135.457 218.455 130.467 224.689 127.444C227 125.56 245.343 116.969 237.701 125.384C229.533 126.073 209.731 145.853 208.414 139.708Z" fill="#100F10"/>
<path fill-rule="evenodd" clip-rule="evenodd" d="M212.059 168.986C211.967 183.071 211.545 179.052 200.164 175.648C197.807 175.063 197.586 168.329 200.21 168.123C203.34 168.545 211.055 165.366 212.059 168.986Z" fill="#3D9EBC"/>
<path fill-rule="evenodd" clip-rule="evenodd" d="M196.313 171.467C196.391 174.807 196.332 174.292 193.485 173.368C190.75 172.205 187.295 171.951 184.966 170.223C188.29 170.035 197.09 165.501 196.313 171.467Z" fill="#3D9EBC"/>
<path fill-rule="evenodd" clip-rule="evenodd" d="M199.558 206.291C198.238 209.403 197.598 202.176 196.241 201.093C195.567 199.876 196.593 199.536 197.409 199.259C199.647 199.255 198.682 204.49 199.558 206.291Z" fill="#3D9EBC"/>
<path fill-rule="evenodd" clip-rule="evenodd" d="M209.283 140.93C217.023 143.394 205.317 142.911 202.576 141.478C204.623 140.622 207.079 141.183 209.283 140.93Z" fill="#3D9EBC"/>
<path fill-rule="evenodd" clip-rule="evenodd" d="M213.565 182.068C217.688 183.018 217.395 183.914 214.17 186.018C212.281 187.212 212.679 182.764 213.565 182.068Z" fill="#3D9EBC"/>
<path fill-rule="evenodd" clip-rule="evenodd" d="M211.733 192.569C211.558 192.963 211.349 194.046 211.008 194.086C203.624 194.89 212.699 188.659 211.733 192.569Z" fill="#3D9EBC"/>
<path fill-rule="evenodd" clip-rule="evenodd" d="M212.445 142.946C213.246 142.906 213.803 143.223 214.056 143.983C213.519 143.637 212.982 143.291 212.445 142.946Z" fill="#3D9EBC"/>
<path fill-rule="evenodd" clip-rule="evenodd" d="M162.229 209.108C168.219 200.218 175.12 191.463 182.996 184.173C183.532 197.501 172.954 203.268 162.229 209.108Z" fill="#ACE2F3" fill-opacity="0.35"/>
<path fill-rule="evenodd" clip-rule="evenodd" d="M190.525 191.387C190.423 193.214 186.448 196.015 184.915 194.807C187.986 192.886 186.297 182.309 190.525 191.387Z" fill="#ACE2F3" fill-opacity="0.35"/>
<path fill-rule="evenodd" clip-rule="evenodd" d="M171.277 228.038C171.105 228.927 170.95 229.819 170.743 230.7C169.445 232.095 170.333 227.259 171.277 228.038Z" fill="#ACE2F3" fill-opacity="0.35"/>
<path fill-rule="evenodd" clip-rule="evenodd" d="M162.236 209.115C162.175 209.177 162.115 209.238 162.055 209.3C162.041 209.187 162.139 209.122 162.236 209.115Z" fill="#ACE2F3" fill-opacity="0.35"/>
<path fill-rule="evenodd" clip-rule="evenodd" d="M57.8526 157.387C57.9258 153.209 51.8899 153.436 53.3484 157.558C54.0929 155.464 56.4437 156.213 56.6742 158.169C56.6922 160.205 57.8239 158.574 57.8526 157.387ZM59.114 144.893C67.0754 150.03 63.7574 161.158 56.72 165.48C53.6702 168.097 47.6133 166.389 45.0591 163.521C42.6864 159.007 55.1725 147.661 59.114 144.893Z" fill="#EB5276"/>
<path fill-rule="evenodd" clip-rule="evenodd" d="M3.46274 155.408C2.73867 155.575 1.69499 156.056 1.24609 154.909C1.44653 153.698 3.3871 154.239 3.46274 155.408Z" fill="#EB5276"/>
<path fill-rule="evenodd" clip-rule="evenodd" d="M127.722 179.552C129.561 174.128 137.646 168.346 141.519 176.181C137.253 178.111 132.39 179.094 127.722 179.552Z" fill="#EB5276"/>
<path fill-rule="evenodd" clip-rule="evenodd" d="M132.508 181.542C132.996 180.59 135.418 178.298 134.407 180.348C134.317 180.436 134.102 180.644 133.959 180.783C133.86 180.879 133.657 181.077 133.513 181.217C133.288 181.445 132.818 181.99 132.508 181.542Z" fill="#3D9EBC"/>
<path fill-rule="evenodd" clip-rule="evenodd" d="M132.254 182.175C132.022 182.221 131.79 182.267 131.559 182.313C131.812 182.182 132.054 181.815 132.254 182.175Z" fill="#3D9EBC"/>
<path fill-rule="evenodd" clip-rule="evenodd" d="M132.619 182.086C131.943 182.316 132.074 181.827 132.509 181.543C132.743 181.684 132.693 181.861 132.619 182.086Z" fill="#3D9EBC"/>
<path fill-rule="evenodd" clip-rule="evenodd" d="M164.477 246.161C164.443 246.219 164.409 246.277 164.376 246.335C164.412 246.276 164.439 246.213 164.477 246.161Z" fill="#3D9EBC"/>
<path fill-rule="evenodd" clip-rule="evenodd" d="M63.0057 133.066C62.2874 133.141 60.7006 133.53 60.9749 132.401C61.9779 132.048 62.6941 131.907 63.0057 133.066Z" fill="#EB5276"/>
<path fill-rule="evenodd" clip-rule="evenodd" d="M52.7853 150.413C47.4827 158.088 36.0693 154.258 27.9685 158C24.207 158.475 19.7147 161.835 16.1875 160.147C18.1402 155.59 28.0929 154.932 32.9057 153.015C35.7784 150.766 22.7519 149.992 22.7834 146.267C27.2979 144.966 32.4119 148.808 36.6136 150.329C40.6431 153.635 47.6861 149.926 52.7853 150.413Z" fill="#100F10"/>
<path fill-rule="evenodd" clip-rule="evenodd" d="M112.875 207.799C112.829 207.987 112.784 208.176 112.738 208.365C112.779 208.177 112.85 207.982 112.875 207.799Z" fill="#ACE2F3" fill-opacity="0.35"/>
<path fill-rule="evenodd" clip-rule="evenodd" d="M133.069 181.648C133.22 181.502 133.371 181.355 133.521 181.209C133.371 181.355 133.22 181.502 133.069 181.648Z" fill="#ACE2F3" fill-opacity="0.35"/>
<path fill-rule="evenodd" clip-rule="evenodd" d="M132.621 182.084C132.636 181.795 132.768 181.659 133.068 181.649C132.919 181.794 132.77 181.939 132.621 182.084Z" fill="#ACE2F3" fill-opacity="0.35"/>
<path fill-rule="evenodd" clip-rule="evenodd" d="M133.96 180.784C134.114 180.634 134.268 180.484 134.422 180.334C134.268 180.484 134.114 180.634 133.96 180.784Z" fill="#ACE2F3" fill-opacity="0.35"/>
<path fill-rule="evenodd" clip-rule="evenodd" d="M134.407 180.349C134.562 180.199 134.716 180.049 134.871 179.899C134.717 180.049 134.562 180.199 134.407 180.349Z" fill="#ACE2F3" fill-opacity="0.35"/>
<path fill-rule="evenodd" clip-rule="evenodd" d="M110.638 211.292C110.668 211.232 110.699 211.171 110.729 211.111C110.702 211.174 110.646 211.231 110.638 211.292Z" fill="#ACE2F3" fill-opacity="0.35"/>
<path fill-rule="evenodd" clip-rule="evenodd" d="M133.514 181.216C133.667 181.067 133.819 180.918 133.972 180.77C133.819 180.918 133.667 181.067 133.514 181.216Z" fill="#ACE2F3" fill-opacity="0.35"/>
<path fill-rule="evenodd" clip-rule="evenodd" d="M150.79 173.827C152.996 173.16 157.546 167.621 158.903 170.038C159.672 174.466 153.591 173.924 150.79 173.827Z" fill="#3D9EBC"/>
<path fill-rule="evenodd" clip-rule="evenodd" d="M84.0591 160.969C79.528 172.516 98.5095 182.46 100.285 167.452C101.339 158.67 86.4861 160.504 90.0965 168.504C90.9613 170.62 95.1983 171.87 92.6149 168.806C90.7457 167.278 90.8608 165.052 92.9715 163.82C93.3861 164.973 93.455 166.098 94.7231 166.71C93.4424 165.385 95.2193 163.285 96.7887 164.045C99.0282 165.806 98.931 168.254 95.9342 169.155C94.1873 170.443 96.0895 170.439 97.1848 170.986C91.3117 178.595 82.1677 166.661 86.2197 160.238C90.6509 151.664 110.451 151.822 109.975 163.726C110.369 194.021 67.7157 179.274 84.0591 160.969Z" fill="#EB5276"/>
<path fill-rule="evenodd" clip-rule="evenodd" d="M83.3838 160.326C84.4077 159.515 84.2376 159.96 84.0576 160.969C83.8338 160.755 83.6087 160.54 83.3838 160.326Z" fill="#EB5276"/>
<path fill-rule="evenodd" clip-rule="evenodd" d="M65.1148 191.813C59.839 222.817 29.4691 195.482 47.6447 179.427C48.2494 179.254 49.0255 179.606 48.2696 180.228C38.4897 186.522 49.5184 209.366 58.4543 196.971C63.1985 187.605 52.047 181.967 46.2866 190.446C43.1654 175.6 65.9855 178.728 65.1148 191.813Z" fill="#EB5276"/>
<path fill-rule="evenodd" clip-rule="evenodd" d="M51.7987 193.737C49.3913 191.385 54.5886 189.175 56.0156 190.858C59.0216 195.572 48.0488 198.928 48.2854 192.517C48.0136 188.648 53.9498 185.544 56.4104 188.954C55.0983 189.657 53.3007 189.104 52.0792 189.764C50.4091 190.352 49.5172 194.228 51.7987 193.737Z" fill="#EB5276"/>
<path fill-rule="evenodd" clip-rule="evenodd" d="M52.13 198.011C53.246 197.617 57.5273 194.588 56.4071 197.096C54.0585 201.451 47.8015 196.851 52.13 198.011Z" fill="#EB5276"/>
<path fill-rule="evenodd" clip-rule="evenodd" d="M50.0549 197.569C49.889 197.643 49.7519 197.78 49.623 197.568C49.7887 197.494 49.926 197.357 50.0549 197.569Z" fill="#EB5276"/>
<path fill-rule="evenodd" clip-rule="evenodd" d="M127.533 49.7126C130.371 35.0624 160.057 44.4053 150.887 57.6138C143.199 65.6179 138.668 56.5317 139.968 70.772C139.626 73.1593 137.14 72.3597 136.319 70.6929C135.656 69.9303 136.659 67.2156 134.86 67.743C133.058 68.0695 134.592 65.763 135.65 65.9788C136.494 63.8325 133.844 62.3063 135.9 60.1757C138.91 56.2887 149.836 58.2175 148.1 51.6025C146.761 49.3944 144.627 46.7196 141.964 46.4016C138.472 46.9885 131.889 45.4278 132.187 50.6763C131.416 56.083 126.539 54.8549 127.533 49.7126Z" fill="#100F10"/>
<path fill-rule="evenodd" clip-rule="evenodd" d="M133.282 86.8008C132.857 82.598 133.936 75.6655 140.026 77.3746C144.103 79.6582 141.609 87.4566 136.112 85.1329C135.313 84.8727 135.157 84.733 134.761 85.4326C134.477 85.9517 132.838 85.819 133.282 86.8008Z" fill="#100F10"/>
<path fill-rule="evenodd" clip-rule="evenodd" d="M124.863 37.9184C121.01 37.8497 126.486 33.3527 125.784 35.5875C124.825 32.9552 128.557 35.3866 127.911 32.9236C126.1 22.1142 138.033 36.2943 124.863 37.9184Z" fill="#100F10"/>
<path fill-rule="evenodd" clip-rule="evenodd" d="M120.175 85.2174C119.323 86.6172 116.876 86.4865 117.95 88.0556C119.617 90.1797 114.956 90.7341 115.89 92.5348C113.892 94.5708 113.023 90.3802 113.343 88.7681C113.05 87.3223 115.371 87.2578 115.071 85.5962C117.438 86.1517 118.304 84.0699 120.175 85.2174Z" fill="#100F10"/>
<path fill-rule="evenodd" clip-rule="evenodd" d="M118.571 95.2638C116.64 96.5385 115.99 96.2621 114.116 95.1916C116.287 93.4304 123.313 90.3342 118.571 95.2638Z" fill="#EB5276"/>
<path fill-rule="evenodd" clip-rule="evenodd" d="M132.317 54.1038C133.773 55.6289 131.743 56.9714 131.457 58.5419C130.963 58.5099 129.784 58.7797 129.682 58.1605C130.733 56.8958 130.142 54.6392 132.317 54.1038Z" fill="#EB5276"/>
<path fill-rule="evenodd" clip-rule="evenodd" d="M116.952 44.4214C116.197 44.6156 115.072 43.4186 114.685 44.9913C114.561 45.0807 114.43 45.0691 114.335 44.9477C114.817 44.3837 114.579 44.1076 113.931 43.9955C112.262 40.3805 119.583 41.8606 116.952 44.4214Z" fill="#100F10"/>
<path fill-rule="evenodd" clip-rule="evenodd" d="M127.534 49.7131C127.599 50.0599 127.827 50.4816 127.701 50.7414C126.499 53.5502 131.527 56.5502 126.347 53.5184C126.911 52.6409 126.168 50.083 127.534 49.7131Z" fill="#EB5276"/>
<path fill-rule="evenodd" clip-rule="evenodd" d="M128.974 75.3258C127.333 76.9512 125.893 75.1697 127.127 73.4419C128.11 73.6858 128.404 74.772 128.974 75.3258Z" fill="#EB5276"/>
<path fill-rule="evenodd" clip-rule="evenodd" d="M145.167 30.7905C147.96 28.1831 146.416 35.0079 144.097 33.7951C143.91 32.5648 145.83 32.4634 145.167 30.7905Z" fill="#100F10"/>
<path fill-rule="evenodd" clip-rule="evenodd" d="M113.345 98.7826C110.577 99.7542 114.177 96.3009 115.293 97.7847C115.934 98.9942 114.125 99.0901 113.345 98.7826Z" fill="#EB5276"/>
<path fill-rule="evenodd" clip-rule="evenodd" d="M131.815 51.9995C132.393 49.3341 134.144 50.938 132.894 52.9402C132.757 52.4086 132.252 52.2508 131.815 51.9995Z" fill="#EB5276"/>
<path fill-rule="evenodd" clip-rule="evenodd" d="M135.725 90.4996C134.915 89.3443 134.707 89.0235 135.43 87.9883C137.099 88.6075 136.705 88.8404 135.725 90.4996Z" fill="#EB5276"/>
<path fill-rule="evenodd" clip-rule="evenodd" d="M145.167 30.7903C145.231 31.693 145.47 32.6783 144.116 32.9143C144.124 31.8427 143.48 29.873 145.167 30.7903Z" fill="#EB5276"/>
<path fill-rule="evenodd" clip-rule="evenodd" d="M126.597 85.2477C125.579 84.7497 125.046 84.352 126.434 84.1584C127.153 84.4113 127.539 84.7874 126.597 85.2477Z" fill="#EB5276"/>
<path fill-rule="evenodd" clip-rule="evenodd" d="M134.857 35.8245C133.766 35.8365 132.616 36.5895 131.604 36.4308C132.703 35.682 133.896 34.1459 134.857 35.8245Z" fill="#EB5276"/>
<path fill-rule="evenodd" clip-rule="evenodd" d="M119.628 43.0102C121.412 42.6957 121.946 41.6771 121.345 44.0993C121.139 44.643 120.743 44.8926 120.417 44.0239C120.393 43.5773 118.948 43.3785 119.628 43.0102Z" fill="#EB5276"/>
<path fill-rule="evenodd" clip-rule="evenodd" d="M118.571 95.2623C119.079 93.5224 120.75 95.4639 120.313 96.5998C119.732 96.1541 119.152 95.7082 118.571 95.2623Z" fill="#100F10"/>
<path fill-rule="evenodd" clip-rule="evenodd" d="M126.472 48.9207C126.458 48.2605 125.74 47.3731 126.816 47.2839C126.679 47.7763 127.17 48.9569 126.472 48.9207Z" fill="#EB5276"/>
<path fill-rule="evenodd" clip-rule="evenodd" d="M113.931 43.9958C114.579 44.1079 114.817 44.384 114.335 44.948C113.156 44.7669 112.454 44.481 113.931 43.9958Z" fill="#EB5276"/>
<path fill-rule="evenodd" clip-rule="evenodd" d="M136.127 35.3142C135.741 35.719 135.494 35.7183 135.029 35.5086C135.426 34.9592 135.538 34.7051 136.127 35.3142Z" fill="#EB5276"/>
<path fill-rule="evenodd" clip-rule="evenodd" d="M128.933 75.3533C129.224 75.5145 130.114 75.7445 129.571 76.0446C129.376 75.8404 129.187 75.3921 128.933 75.3533Z" fill="#EB5276"/>
<path fill-rule="evenodd" clip-rule="evenodd" d="M116.862 72.3499C116.607 72.4756 116.406 72.757 116.185 72.4194C116.491 72.1686 116.622 71.8066 116.862 72.3499Z" fill="#EB5276"/>
<path fill-rule="evenodd" clip-rule="evenodd" d="M121.031 61.9155C120.85 61.866 120.669 61.8166 120.488 61.7671C120.669 61.8166 120.85 61.866 121.031 61.9155Z" fill="#100F10"/>
<path fill-rule="evenodd" clip-rule="evenodd" d="M133.236 86.8456L133.193 86.7744C133.251 86.7934 133.319 86.7863 133.236 86.8456Z" fill="#100F10"/>
<path fill-rule="evenodd" clip-rule="evenodd" d="M119.345 43.2073C119.259 43.0565 119.173 42.9055 119.087 42.7546C119.36 42.8961 119.876 43.0144 119.345 43.2073Z" fill="#EB5276"/>
<path fill-rule="evenodd" clip-rule="evenodd" d="M144.276 121.944C144.113 121.715 143.42 121.506 143.729 121.239C143.888 121.474 144.195 121.711 144.276 121.944Z" fill="#100F10"/>
<path fill-rule="evenodd" clip-rule="evenodd" d="M104.405 80.2889C104.457 80.0574 104.508 79.826 104.559 79.5947C104.893 79.9524 104.871 80.1045 104.405 80.2889Z" fill="#100F10"/>
<path fill-rule="evenodd" clip-rule="evenodd" d="M109.521 116.942C110.026 116.479 110.347 115.691 110.889 116.524C110.423 117.115 110.174 117.662 109.521 116.942Z" fill="#100F10"/>
<path fill-rule="evenodd" clip-rule="evenodd" d="M110.391 116.043C110.518 115.45 110.985 115.35 111.517 115.231C111.698 116.013 110.953 116.946 110.391 116.043Z" fill="#100F10"/>
</svg>
