<svg width="864" height="991" viewBox="0 0 864 991" fill="none" xmlns="http://www.w3.org/2000/svg">
<path d="M864.001 0H576.111V248H864.001V0Z" fill="#E5D6CA"/>
<path d="M864.001 248H576.111V496.286H864.001V248Z" fill="#FAEFE4"/>
<path d="M287.889 496H0V744.286H287.889V496Z" fill="#C9B9AD"/>
<path d="M287.889 0H0V248H287.889V0Z" fill="#E5D6CA"/>
<path d="M863.337 744H575.447V992H863.337V744Z" fill="#DECFC4"/>
<path d="M576.11 0H287.889V248H576.11V0Z" fill="#FAEFE4"/>
<path d="M287.889 248H0V496.286H287.889V248Z" fill="#CFBEB0"/>
<path d="M576.11 248H287.889V496.286H576.11V248Z" fill="#EBDCD2"/>
<path d="M287.889 744H0V992H287.889V744Z" fill="#D9C8B8"/>
<path d="M864.001 496H576.111V744.286H864.001V496Z" fill="#CFBEB0"/>
<path d="M576.11 496H287.889V744.286H576.11V496Z" fill="#EDDED1"/>
<path d="M841.713 496.285L814.006 426.559C810.417 418.264 801.006 412.869 789.584 411.445C789.401 411.393 789.222 411.373 789.043 411.325L652.941 411.433C652.679 411.505 652.416 411.568 652.154 411.645C641.336 413.307 632.513 418.585 629.063 426.568L601.363 496.285H841.713Z" fill="#F7D19E"/>
<path d="M813.697 417.718C798.157 395.773 768.1 395.438 766.459 366.817C771.364 352.858 771.712 340.426 770.112 328.653C766.984 310.009 755.425 293.344 746.4 289.047C737.382 283.326 714.038 280.246 698.973 288.475C684.031 297.603 675.61 311.27 673.299 328.667C671.462 341.322 672.93 353.361 678.944 366.957C676.231 394.057 647.326 396.242 632.124 417.733C627.562 425.17 623.514 432.922 622.598 442.619C681.743 474.098 746.622 482.201 823.21 442.619C822.307 432.907 818.259 425.153 813.697 417.718Z" fill="#3D9EBC"/>
<path d="M698.484 363.562C704.172 380.559 704.02 405.396 720.191 408.334C733.014 409.581 737.158 385.19 743.102 365.141L698.484 363.562Z" fill="#DB7D3E"/>
<path d="M690.951 358.364C686.123 358.364 682.191 353.478 682.191 347.474C682.191 341.47 686.123 336.584 690.951 336.584C695.779 336.584 699.71 341.47 699.71 347.474C699.71 353.478 695.782 358.364 690.951 358.364ZM690.951 339.101C687.239 339.101 684.991 342.857 684.991 347.474C684.991 352.091 687.239 355.849 690.951 355.849C694.663 355.849 696.622 352.091 696.622 347.474C696.622 342.857 694.653 339.101 690.951 339.101Z" fill="#FFC559"/>
<path d="M752.008 358.364C747.176 358.364 743.248 353.478 743.248 347.474C743.248 341.47 747.176 336.584 752.008 336.584C756.839 336.584 760.764 341.47 760.764 347.474C760.764 353.478 756.836 358.364 752.008 358.364ZM752.008 339.101C748.292 339.101 746.047 342.857 746.047 347.474C746.047 352.091 748.292 355.849 752.008 355.849C755.723 355.849 757.676 352.091 757.676 347.474C757.676 342.857 755.72 339.101 752.008 339.101Z" fill="#FFC559"/>
<path d="M721.061 300.2C717.588 298.298 689.331 308.129 690.353 322.743C690.307 331.436 694.491 359.666 698.485 363.556C704.369 370.058 716.084 374.772 721.108 374.972L722.436 374.926C727.477 374.729 739.175 370.063 745.062 363.556C749.047 359.666 753.237 331.436 753.188 322.743C754.682 308.79 729.187 299.774 721.061 300.2Z" fill="#BC732E"/>
<path d="M690.572 319.648C698.522 321.493 701.218 317.417 708.121 310.289C714.224 303.215 731.498 302.852 737.674 310.766C743.146 317.228 743.701 320.255 752.706 319.348C751.335 288.684 691.299 290.38 690.572 319.648Z" fill="#662928"/>
<path d="M568.117 744.287C566.317 725.694 553.776 684.321 510.058 676.326L458.998 668.071L406.344 668.093L355.295 676.32C311.577 684.315 299.022 725.694 297.219 744.287H568.117Z" fill="#04475C"/>
<path d="M438.367 525.216C435.236 525.165 422.628 525.165 419.496 525.216C370.569 524.381 327.979 589.665 365.216 625.926C377.674 639.267 406.991 644.33 414.36 642.548C415.14 642.357 416.734 628.858 417.132 628.664C422.777 623.973 425.656 622.254 428.943 620.123C432.227 622.254 435.1 623.973 440.754 628.664C441.15 628.858 442.747 642.357 443.524 642.548C450.885 644.33 480.199 639.267 492.667 625.926C529.884 589.665 487.295 524.381 438.367 525.216Z" fill="#2D1E30"/>
<path d="M459.891 667.989C459.891 674.766 448.107 680.258 432.454 680.258C416.801 680.258 405.013 674.766 405.013 667.989L407.085 628.109L404.86 596.189L403.764 580.457C403.725 579.915 403.821 579.371 404.047 578.864C404.272 578.356 404.62 577.896 405.069 577.514C406.019 576.656 407.301 576.37 408.586 576.37H456.046C457.188 576.37 458.327 576.598 459.181 577.365C459.583 577.715 459.897 578.133 460.101 578.593C460.306 579.053 460.397 579.545 460.369 580.037L457.819 625.232L459.891 667.989Z" fill="#8F512A"/>
<path d="M405.062 581.526C405.515 581.112 406.061 580.783 406.668 580.558C407.274 580.333 407.928 580.218 408.588 580.219H456.238C456.825 580.216 457.407 580.316 457.948 580.513C458.489 580.71 458.978 580.999 459.386 581.363C459.858 581.799 460.2 582.327 460.382 582.902L460.565 579.656C460.594 579.15 460.504 578.644 460.299 578.17C460.094 577.695 459.779 577.262 459.372 576.896C458.966 576.53 458.477 576.24 457.936 576.042C457.395 575.845 456.812 575.745 456.225 575.748H408.588C407.929 575.747 407.276 575.863 406.669 576.087C406.063 576.312 405.517 576.64 405.064 577.054C404.61 577.467 404.26 577.955 404.034 578.489C403.809 579.023 403.712 579.592 403.75 580.159L403.963 583.18C404.173 582.562 404.55 581.995 405.062 581.526Z" fill="#66391E"/>
<path d="M459.891 669.628L457.995 633L423.85 635.96L449.019 677.803C453.25 677.002 459.764 673.275 459.891 669.628Z" fill="#66391E"/>
<path d="M436.315 580.153C436.316 580.145 436.316 580.138 436.315 580.13L436.295 580.093L436.315 580.153Z" fill="#CC8348"/>
<path d="M434.498 580.153C434.498 580.145 434.498 580.138 434.498 580.13L434.479 580.093C434.482 580.114 434.489 580.134 434.498 580.153V580.153Z" fill="#CC8348"/>
<path d="M455.866 600.133V603.486C455.866 605.119 454.824 607.167 453.655 608.423C452.486 609.679 450.487 610.711 448.94 610.711L431.749 610.786L414.559 610.711C413.015 610.711 411.016 609.664 409.844 608.423C408.672 607.181 407.626 605.119 407.632 603.486V600.133H400.732L401.45 627.579C401.403 630.354 402.474 633.056 404.478 635.228C407.662 640.511 441.864 650.883 459.064 635.182C461.083 633.017 461.8 629.73 461.794 626.91L462.79 600.142L455.866 600.133Z" fill="#8F512A"/>
<path d="M404.438 596.203C409.12 600.977 412.337 609.733 408.469 612.548C404.601 615.362 395.117 611.166 390.439 606.398C385.76 601.629 387.656 598.085 391.524 595.271C395.393 592.456 399.743 591.432 404.438 596.203Z" fill="#8F512A"/>
<path d="M457.613 596.203C452.934 600.977 449.716 609.733 453.581 612.548C457.447 615.362 466.933 611.166 471.615 606.398C476.297 601.629 474.394 598.085 470.529 595.271C466.664 592.456 462.291 591.432 457.613 596.203Z" fill="#8F512A"/>
<path d="M398.014 592.682L402.241 598.975C403.446 600.119 405.312 600.094 404.871 596.818L404.226 590.465L398.014 592.682Z" fill="#2D1E30"/>
<path d="M466.157 592.682L461.93 598.975C460.724 600.119 458.855 600.094 459.297 596.818L459.961 590.465L466.157 592.682Z" fill="#2D1E30"/>
<path d="M109.037 555.443C121.566 568.315 97.2727 584.722 97.5782 635.961C94.3706 719.2 186.157 678.081 189.733 743.559L260.772 744.286C261.104 725.272 268.316 681.556 238.143 656.756C218 641.819 208.474 631.012 201.504 606.985C196.669 566.367 153.602 530.611 109.037 555.443Z" fill="#FFD079"/>
<path d="M173.508 593.171C182.228 611.732 167.943 634.376 194.095 649.236C241.735 670.72 243.335 711.962 236.352 741.759L144.111 697.895L145.592 617.23L173.508 593.171Z" fill="#FFC05A"/>
<path d="M210.117 680.985C209.931 680.951 161.684 669.054 161.684 669.054H119.257C119.257 669.054 71.0101 680.951 70.8241 680.985C42.5299 690.49 39.5514 720.542 26.0801 743.711H254.864C241.403 720.542 238.414 690.49 210.117 680.985Z" fill="#3D9EBC"/>
<path d="M161.358 668.741L157.393 624.146H122.604L120.203 668.769C134.167 674.984 147.885 674.975 161.358 668.741Z" fill="#E38C46"/>
<path d="M160.07 653.254L157.4 623.926H122.605L121.914 636.252L160.07 653.254Z" fill="#C06827"/>
<path d="M167.305 606.579C162.46 604.828 160.976 598.463 163.984 592.368C166.992 586.272 173.358 582.742 178.203 584.496C183.047 586.249 184.535 592.605 181.523 598.707C178.511 604.808 172.153 608.326 167.305 606.579Z" fill="#D17D3B"/>
<path d="M178.978 608.771C178.978 609.502 178.726 610.218 178.254 610.826C177.782 611.434 177.112 611.908 176.327 612.188C175.543 612.468 174.679 612.541 173.846 612.398C173.014 612.256 172.249 611.903 171.648 611.386C171.048 610.869 170.639 610.21 170.473 609.492C170.307 608.775 170.392 608.031 170.717 607.356C171.042 606.68 171.593 606.102 172.299 605.696C173.005 605.289 173.835 605.072 174.684 605.072C175.248 605.072 175.807 605.167 176.328 605.353C176.849 605.539 177.322 605.811 177.721 606.155C178.12 606.498 178.436 606.906 178.652 607.355C178.867 607.804 178.978 608.285 178.978 608.771V608.771Z" fill="white"/>
<path d="M147.15 560.308C144.045 560.259 141.173 560.248 138.42 560.274H137.836C135.097 560.248 132.191 560.274 129.103 560.308C119.327 560.797 105.511 566.278 105.527 581.421C103.681 590.18 101.307 616.267 111.7 624.765C118.64 632.506 132.334 637.065 137.444 637.194L138.829 637.148C144.062 636.931 158.466 631.845 164.576 624.765C174.601 614.545 173.711 589.044 170.746 581.421C167.608 566.607 156.537 560.837 147.15 560.308Z" fill="#E38C46"/>
<path d="M171.509 584.02C171.312 583.141 171.054 582.272 170.736 581.42C167.608 566.606 156.537 560.825 147.16 560.307H146.546L131.713 574.189C137.079 575.848 149.943 566.546 153.422 567.263C161.232 569.332 166.681 575.607 171.616 585.101C171.582 584.729 171.539 584.386 171.509 584.02Z" fill="#D17D3B"/>
<path d="M157.062 538.124C157.062 540.585 156.215 542.991 154.628 545.037C153.041 547.083 150.785 548.678 148.146 549.62C145.506 550.562 142.602 550.808 139.8 550.328C136.998 549.848 134.425 548.663 132.404 546.923C130.384 545.183 129.009 542.965 128.451 540.552C127.894 538.138 128.18 535.636 129.273 533.363C130.367 531.089 132.218 529.146 134.593 527.778C136.969 526.411 139.761 525.681 142.618 525.681C146.449 525.681 150.123 526.992 152.832 529.326C155.541 531.659 157.062 534.824 157.062 538.124Z" fill="#FFD079"/>
<path d="M153.146 559.851C148.65 569.494 144.181 567.454 123.65 581.545C86.7925 612.438 146.671 684.895 112.311 743.623H45.3789C60.0423 720.602 88.5125 678.825 79.9389 645.107C69.7482 605.578 76.9504 573.264 109.598 555.935L153.146 559.851Z" fill="#FFD079"/>
<path d="M858.113 991.998C856.313 973.405 843.768 932.032 800.05 924.037L748.991 915.782L696.341 915.805L645.291 924.031C601.573 932.041 589.015 973.405 587.215 991.998H858.113Z" fill="#C54160"/>
<path d="M726.627 818.738V818.71L726.607 818.67C726.613 818.693 726.619 818.716 726.627 818.738Z" fill="#CF8548"/>
<path d="M694.654 876.724V914.456C694.654 922.236 705.891 928.546 723.875 928.546C741.859 928.546 753.095 922.236 753.095 914.456V876.724H694.654Z" fill="#F6A55C"/>
<path d="M753.679 914.079V878.152L715.107 882.46L743.382 925.129C749.956 922.549 753.679 918.562 753.679 914.079Z" fill="#D18343"/>
<path d="M744.612 811.504H706.791C700.088 811.504 694.654 816.185 694.654 821.959V868.27C694.654 874.044 700.088 878.725 706.791 878.725H744.612C751.314 878.725 756.748 874.044 756.748 868.27V821.959C756.748 816.185 751.314 811.504 744.612 811.504Z" fill="#F6A55C"/>
<path d="M754.423 851.03C754.182 852.656 754.699 854.298 755.862 855.595C757.025 856.893 758.739 857.739 760.626 857.949V857.949C762.513 858.158 764.42 857.713 765.926 856.712C767.432 855.71 768.415 854.234 768.659 852.609L770.651 839.322C770.894 837.695 770.377 836.052 769.213 834.754C768.05 833.456 766.336 832.609 764.448 832.4V832.4C762.561 832.191 760.654 832.637 759.148 833.639C757.642 834.641 756.659 836.117 756.416 837.743L754.423 851.03Z" fill="#F6A55C"/>
<path d="M727.291 831.84V831.814L727.268 831.777C727.278 831.814 727.284 831.814 727.291 831.84Z" fill="#CF8548"/>
<path d="M696.752 851.029C696.993 852.655 696.476 854.297 695.314 855.594C694.152 856.892 692.439 857.738 690.552 857.949V857.949C688.665 858.158 686.758 857.713 685.252 856.711C683.746 855.71 682.763 854.234 682.52 852.608L680.527 839.322C680.285 837.695 680.802 836.052 681.965 834.754C683.128 833.456 684.842 832.609 686.73 832.399V832.399C688.618 832.192 690.523 832.638 692.029 833.64C693.535 834.641 694.518 836.117 694.763 837.743L696.752 851.029Z" fill="#F6A55C"/>
<path d="M760.732 836.489L754.048 836.56L754.078 851.06C754.078 852.808 752.889 854.996 751.558 856.337C750.226 857.679 747.945 858.792 746.188 858.797L725.445 858.877L705.585 858.797C703.825 858.797 701.547 857.682 700.212 856.337C698.877 854.993 697.685 852.808 697.692 851.06L697.722 836.56L690.161 836.489L690.045 863.903C690.158 872.407 699.389 892.459 702.331 893.652C704.635 895.966 708.53 897.656 711.559 897.656L738.355 897.633C741.384 897.611 745.282 895.943 747.583 893.629C751.033 891.126 761.884 869.261 760.865 863.88L760.732 836.489Z" fill="#B86C26"/>
<path d="M726.618 831.84V831.817L726.598 831.78C726.601 831.814 726.608 831.814 726.618 831.84Z" fill="#CF8548"/>
<path d="M698.194 823.897C713.375 810.25 723.35 825.579 749.775 823.416L749.702 823.276C729.251 821.56 714.647 804.091 699.967 819.36C698.954 820.716 698.221 822.45 697.666 824.589C697.839 824.352 698.008 824.114 698.194 823.897Z" fill="#D18343"/>
<path d="M761.088 806.356C754.57 804.789 747.52 799.886 740.484 794.056C727.152 781.917 704.197 783.41 698.051 803.888C680.336 803.104 682.232 815.95 684.311 833.465L689.384 833.642L690.005 846.116H697.689C698.423 832.672 697.573 824.551 700.85 820.172C715.527 804.903 730.131 822.349 750.582 824.059C753.238 828.705 754.417 835.824 754.161 846.019L760.679 846.136L761.038 833.021L766.533 833.15C774.516 811.914 769.781 808.072 761.088 806.356Z" fill="#78302F"/>
<path d="M738.152 869.573C738.152 870.635 737.662 871.654 736.79 872.405C735.919 873.156 734.736 873.578 733.503 873.578H715.905C714.672 873.578 713.489 873.156 712.617 872.405C711.746 871.654 711.256 870.635 711.256 869.573V869.573C711.256 868.511 711.746 867.492 712.617 866.741C713.489 865.99 714.672 865.568 715.905 865.568H733.503C734.736 865.568 735.919 865.99 736.79 866.741C737.662 867.492 738.152 868.511 738.152 869.573V869.573Z" fill="#F6A55C"/>
<path d="M222.865 185.642C220.846 185.482 204.851 142.332 205.382 130.533C204.632 122.875 203.785 115.227 203.001 107.572C202.303 100.376 200.837 93.2515 198.621 86.2876C196.357 79.3024 192.887 72.3887 187.953 66.4848C185.349 63.3458 182.286 60.5087 178.841 58.0437C174.571 55.0259 169.833 53.0722 164.633 51.6162C156.242 49.2707 146.37 50.186 138.48 53.4355C129.98 56.9309 123.139 62.5574 117.611 69.0764C107.098 81.4735 102.336 96.5652 99.6134 111.537C97.2924 120.839 85.4215 167.713 75.6426 185.642H222.865Z" fill="#A63C30"/>
<path d="M223.472 183.639C223.282 183.605 173.81 171.339 173.81 171.339H130.311C130.311 171.339 80.8351 183.593 80.6492 183.639C51.6378 193.365 48.5829 224.295 34.7695 247.999H269.351C255.541 224.295 252.486 193.365 223.472 183.639Z" fill="#FFB1C3"/>
<path d="M173.161 171.054L169.1 125.287H133.425L130.961 171.054C145.277 177.433 159.344 177.433 173.161 171.054Z" fill="#DA8B46"/>
<path d="M171.626 155.217L168.886 125.145H133.211L132.5 137.782L171.626 155.217Z" fill="#BF712C"/>
<path d="M127.745 101.831C128.344 103.173 128.301 104.666 127.625 105.981C126.949 107.296 125.696 108.327 124.139 108.848V108.848C122.581 109.364 120.849 109.327 119.322 108.745C117.795 108.164 116.599 107.084 115.994 105.744L112.547 98.0523C111.948 96.7097 111.991 95.2173 112.667 93.902C113.343 92.5868 114.597 91.5561 116.153 91.0356V91.0356C117.712 90.5195 119.444 90.5567 120.971 91.139C122.498 91.7212 123.694 92.8011 124.298 94.142L127.745 101.831Z" fill="#BF712C"/>
<path d="M178.293 101.831C177.694 103.173 177.737 104.666 178.413 105.981C179.089 107.296 180.343 108.327 181.899 108.848V108.848C183.457 109.364 185.189 109.327 186.716 108.745C188.243 108.164 189.44 107.084 190.044 105.744L193.491 98.0523C194.09 96.7097 194.047 95.2173 193.371 93.902C192.695 92.5868 191.442 91.5561 189.885 91.0356V91.0356C188.327 90.5195 186.594 90.5567 185.067 91.139C183.541 91.7212 182.344 92.8011 181.74 94.142L178.293 101.831Z" fill="#BF712C"/>
<path d="M116.644 109.268C116.696 110.377 117.128 111.447 117.886 112.344C118.644 113.242 119.694 113.925 120.903 114.308C122.112 114.691 123.426 114.756 124.678 114.496C125.93 114.235 127.065 113.661 127.938 112.845C128.811 112.029 129.384 111.009 129.583 109.913C129.783 108.816 129.601 107.694 129.06 106.687C128.519 105.68 127.643 104.834 126.544 104.256C125.444 103.677 124.17 103.393 122.883 103.438C122.029 103.468 121.19 103.642 120.414 103.951C119.638 104.26 118.941 104.698 118.361 105.239C117.782 105.781 117.332 106.415 117.037 107.106C116.743 107.798 116.609 108.532 116.644 109.268V109.268Z" fill="#FCCD01"/>
<path d="M177.581 108.879C177.633 109.988 178.065 111.058 178.823 111.955C179.581 112.852 180.631 113.535 181.84 113.919C183.048 114.302 184.362 114.367 185.614 114.107C186.866 113.847 188 113.273 188.874 112.457C189.747 111.642 190.32 110.622 190.52 109.526C190.72 108.43 190.538 107.307 189.998 106.3C189.457 105.293 188.582 104.446 187.483 103.868C186.384 103.289 185.111 103.004 183.824 103.049C182.099 103.11 180.473 103.759 179.302 104.852C178.132 105.945 177.513 107.393 177.581 108.879V108.879Z" fill="#FCCD01"/>
<path d="M152.88 66.2886C142.995 75.5821 132.293 84.2207 119.602 91.2716C121.577 104.049 125.685 121.126 129.025 124.287C135.606 131.326 148.284 136.123 153.65 136.169H155.071C160.424 135.771 172.644 130.119 178.587 122.679C181.327 119.661 183.216 104.129 184.289 91.8151C172.77 84.3182 162.238 75.7585 152.88 66.2886V66.2886Z" fill="#DA8B46"/>
<path d="M152.88 74.283C162.463 83.9341 172.823 87.7757 183.917 95.0069C184.05 93.6367 184.172 92.2809 184.289 90.9622C172.77 83.4635 162.237 74.9018 152.88 65.4299C142.995 74.7235 132.293 83.362 119.602 90.413C119.801 91.683 120.017 92.9874 120.266 94.3347C132.658 87.3523 143.164 83.4135 152.88 74.283Z" fill="#BF712C"/>
<path d="M563.583 248C561.747 229.044 556.942 186.855 512.351 178.706L460.292 170.287L406.605 170.313L354.553 178.7C309.981 186.852 305.157 229.044 303.311 248H563.583Z" fill="#98F4EF" fill-opacity="0.5"/>
<path d="M463.547 172.39C463.547 179.087 451.022 184.516 434.99 184.516C418.959 184.516 406.434 179.081 406.434 172.39V86.6715H463.547V172.39Z" fill="#F6A55C"/>
<path d="M407.098 147.027L463.284 174.178C463.474 173.594 463.566 172.99 463.557 172.384V144.195L407.098 147.027Z" fill="#AB6127"/>
<path d="M472.842 84.9541H465.537V98.9702H472.842V84.9541Z" fill="#1E2642"/>
<path d="M461.035 112.538C460.576 115.667 463.073 118.545 466.607 118.934C467.459 119.024 468.323 118.967 469.149 118.767C469.976 118.567 470.748 118.227 471.421 117.768C472.094 117.309 472.654 116.739 473.069 116.091C473.484 115.444 473.746 114.732 473.839 113.997L475.622 101.711C476.08 98.5792 473.583 95.7045 470.047 95.3126C469.195 95.2246 468.332 95.283 467.507 95.4842C466.682 95.6855 465.912 96.0256 465.241 96.485C464.569 96.9444 464.01 97.514 463.596 98.1607C463.182 98.8073 462.921 99.5183 462.828 100.253L461.035 112.538Z" fill="#F6A55C"/>
<path d="M404.441 92.0895C425.029 97.0466 446.944 97.2382 467.531 92.3927V83.2393H404.441V92.0895Z" fill="#D07D38"/>
<path d="M406.432 84.9541H397.467V98.9702H406.432V84.9541Z" fill="#1E2642"/>
<path d="M436.889 95.4475C436.89 95.4399 436.89 95.4322 436.889 95.4246V95.3903V95.4475Z" fill="#CF8548"/>
<path d="M473.61 82.9279L397.348 83.0108L397.324 65.0701C397.301 53.9316 413.831 44.8869 435.417 44.8611C457.004 44.8354 473.563 53.8515 473.58 64.9872L473.61 82.9279Z" fill="#2E2232"/>
<path d="M409.202 112.539C409.654 115.668 407.16 118.546 403.627 118.935C402.776 119.023 401.913 118.965 401.088 118.764C400.263 118.563 399.493 118.223 398.821 117.764C398.15 117.305 397.591 116.736 397.177 116.089C396.763 115.443 396.501 114.732 396.408 113.998L394.622 101.712C394.167 98.5799 396.664 95.7052 400.197 95.3133C401.049 95.2245 401.913 95.2822 402.739 95.483C403.565 95.6838 404.337 96.0238 405.01 96.4832C405.682 96.9426 406.242 97.5124 406.658 98.1595C407.073 98.8066 407.335 99.5183 407.429 100.253L409.202 112.539Z" fill="#F6A55C"/>
<path d="M467.636 98.3992L460.706 98.465L460.736 117.164C460.736 118.78 459.666 120.805 458.468 122.044C457.269 123.282 455.22 124.315 453.643 124.332L434.998 124.406L416.357 124.332C414.776 124.332 412.728 123.296 411.529 122.044C410.33 120.791 409.258 118.78 409.264 117.164L409.291 98.465L403.284 98.3992L403.178 138.731C403.178 141.52 404.981 144.79 407.049 146.929C413.93 153.403 455.752 155.605 463.87 146.929C465.936 144.79 467.745 141.52 467.742 138.731L467.636 98.3992Z" fill="#D07D38"/>
<path d="M416.246 83.2393H402.781V106.409H409.422C409.107 92.9647 411.348 84.9555 416.246 83.2393Z" fill="#1E2642"/>
<path d="M397.467 83.2393V90.4304C399.127 91.606 405.615 92.8074 409.799 93.6083C410.676 88.7456 412.678 84.9555 415.059 83.2393H397.467Z" fill="#131726"/>
<path d="M453.99 83.2393H467.375L467.658 106.409H460.801C461.126 92.9647 458.898 84.9555 453.99 83.2393Z" fill="#1E2642"/>
<path d="M472.844 83.2393V90.4304C467.531 91.606 464.563 92.8303 460.203 93.6284C459.29 88.7656 457.57 84.9555 455.086 83.2393H472.844Z" fill="#131726"/>
<path d="M483.801 80.0933H386.178V86.6723H483.801V80.0933Z" fill="#759E9F"/>
<path d="M436.282 95.4475C436.281 95.4399 436.281 95.4322 436.282 95.4246L436.262 95.3903C436.268 95.4103 436.272 95.4303 436.282 95.4475Z" fill="#CF8548"/>
<path d="M687.179 580.929H686.967V581.07L687.179 580.929Z" fill="#662E3C"/>
<path d="M702.081 546.483C692.857 550.202 685.432 556.169 679.432 563.094C670.062 572.819 667.575 589.67 671.131 598.309C691.897 642.517 754.828 627.834 764.77 598.789C770.746 587.94 762.319 567.519 755.774 560.342C752.938 557 749.613 553.987 745.882 551.377C741.234 548.171 736.107 546.097 730.462 544.552C721.357 542.052 710.648 543.036 702.081 546.483Z" fill="#602133"/>
<path d="M737.578 608.987C758.301 621.306 770.972 635.589 773.934 647.602C759.5 661.241 745.231 661.813 732.567 663.301C723.505 643.93 726.547 628.303 729.911 612.576L737.578 608.987Z" fill="#602133"/>
<path d="M790.573 678.748C790.381 678.711 740.051 666.197 740.051 666.197H695.792C695.792 666.197 645.463 678.711 645.27 678.748C615.754 688.663 612.646 720.17 598.594 744.287H837.25C823.197 720.17 820.093 688.663 790.573 678.748Z" fill="#E2F5FB"/>
<path d="M739.387 666.068L735.26 619.572H698.97L696.463 666.103C711.022 672.594 725.33 672.583 739.387 666.068Z" fill="#EFB077"/>
<path d="M737.823 649.893L735.04 619.3H698.743L698.02 632.155L737.823 649.893Z" fill="#D08D55"/>
<path d="M692.17 596.164C692.781 597.529 692.738 599.048 692.05 600.387C691.362 601.725 690.086 602.773 688.501 603.301C686.918 603.829 685.156 603.795 683.602 603.205C682.049 602.615 680.831 601.517 680.216 600.154L676.723 592.317C676.11 590.953 676.151 589.435 676.836 588.097C677.52 586.759 678.793 585.71 680.375 585.18V585.18C681.958 584.651 683.72 584.686 685.274 585.276C686.827 585.866 688.045 586.963 688.66 588.326L692.17 596.164Z" fill="#D08D55"/>
<path d="M744.607 596.165C743.995 597.531 744.039 599.05 744.728 600.388C745.416 601.727 746.694 602.774 748.279 603.301V603.301C749.862 603.83 751.623 603.795 753.176 603.205C754.729 602.615 755.947 601.518 756.561 600.155L760.071 592.329C760.682 590.963 760.639 589.444 759.951 588.106C759.263 586.768 757.986 585.72 756.401 585.192V585.192C754.818 584.664 753.056 584.698 751.503 585.288C749.95 585.878 748.732 586.975 748.117 588.338L744.607 596.165Z" fill="#D08D55"/>
<path d="M718.753 559.421C708.699 568.861 697.811 577.662 684.9 584.836C686.893 597.834 691.087 615.209 694.487 618.424C701.181 625.575 714.078 630.466 719.537 630.515H720.985C726.43 630.111 738.862 624.362 744.892 616.785C747.678 613.715 749.604 597.906 750.693 585.386C738.98 577.76 728.27 569.053 718.753 559.421V559.421Z" fill="#EFB077"/>
<path d="M718.753 566.381C728.658 576.678 739.971 582.076 750.71 587.723C750.846 586.327 750.594 586.736 750.71 585.394C738.99 577.766 728.274 569.057 718.753 559.421C708.699 568.861 697.811 577.662 684.9 584.836C685.1 586.129 684.934 585.005 685.173 586.364C694.696 582.299 708.128 576.352 718.753 566.381Z" fill="#D08D55"/>
<path d="M685.738 600.043C685.738 600.331 685.639 600.613 685.453 600.852C685.267 601.091 685.003 601.278 684.694 601.388C684.385 601.499 684.046 601.527 683.718 601.471C683.39 601.415 683.089 601.276 682.852 601.073C682.616 600.869 682.455 600.61 682.39 600.327C682.325 600.045 682.358 599.752 682.486 599.486C682.614 599.22 682.831 598.993 683.109 598.833C683.387 598.673 683.713 598.587 684.048 598.587C684.27 598.587 684.489 598.625 684.694 598.698C684.899 598.771 685.086 598.878 685.243 599.014C685.4 599.149 685.524 599.309 685.609 599.486C685.694 599.663 685.738 599.852 685.738 600.043V600.043Z" fill="white"/>
<path d="M754.314 600.043C754.314 600.331 754.215 600.613 754.029 600.852C753.843 601.091 753.579 601.278 753.271 601.388C752.962 601.499 752.622 601.527 752.294 601.471C751.966 601.415 751.665 601.276 751.429 601.073C751.192 600.869 751.031 600.61 750.966 600.327C750.901 600.045 750.934 599.752 751.062 599.486C751.19 599.22 751.407 598.993 751.685 598.833C751.963 598.673 752.289 598.587 752.624 598.587C752.846 598.587 753.065 598.625 753.271 598.698C753.476 598.771 753.662 598.878 753.819 599.014C753.976 599.149 754.1 599.309 754.185 599.486C754.27 599.663 754.314 599.852 754.314 600.043Z" fill="white"/>
<path d="M505.384 431.925C505.194 431.891 455.722 419.625 455.722 419.625H413.219C413.219 419.625 362.747 431.879 362.561 431.925C333.55 441.671 330.495 472.592 316.682 496.285H551.263C537.453 472.581 534.398 441.651 505.384 431.925Z" fill="#EB5276"/>
<path d="M447.7 314.094C413.498 310.553 398.184 321.299 389.431 341.969C384.142 359.235 379.729 391.094 414.637 392.473C427.149 393.174 440.033 393.411 452.534 393.185C483.967 394.575 488.346 365.021 483.01 344.961C476.947 320.925 457.495 315.816 447.7 314.094Z" fill="#36263B"/>
<path d="M459.614 352.73C453.587 357.83 451.057 364.051 453.969 366.626C456.881 369.2 464.106 367.146 470.136 362.049C476.166 356.952 476.937 352.212 474.035 349.638C471.132 347.063 465.644 347.624 459.614 352.73Z" fill="#D07D38"/>
<path d="M409.357 352.508C415.334 357.657 417.775 363.904 414.846 366.453C411.917 369.001 404.702 366.884 398.735 361.73C392.768 356.575 392.051 351.833 394.986 349.284C397.921 346.736 403.387 347.345 409.357 352.508Z" fill="#D07D38"/>
<path d="M408.869 368.79C409.274 369.843 394.727 397.712 394.727 397.712C401.182 403.808 415.397 403.865 422.805 397.712L408.869 368.79Z" fill="#D66D62"/>
<path d="M412.646 368.264C412.646 369.097 412.359 369.91 411.823 370.602C411.286 371.294 410.523 371.834 409.63 372.152C408.737 372.47 407.755 372.554 406.807 372.391C405.86 372.228 404.989 371.827 404.306 371.239C403.623 370.65 403.158 369.9 402.97 369.083C402.782 368.267 402.88 367.421 403.25 366.652C403.62 365.883 404.247 365.226 405.05 364.764C405.854 364.302 406.799 364.056 407.765 364.057C409.06 364.057 410.301 364.501 411.216 365.29C412.132 366.079 412.646 367.149 412.646 368.264V368.264Z" fill="#FFD079"/>
<path d="M459.846 368.79C459.441 369.843 473.988 397.712 473.988 397.712C467.533 403.808 453.318 403.865 445.91 397.712L459.846 368.79Z" fill="#D66D62"/>
<path d="M456.07 368.264C456.07 369.097 456.357 369.91 456.894 370.602C457.431 371.294 458.194 371.834 459.086 372.152C459.979 372.47 460.961 372.554 461.909 372.391C462.857 372.228 463.727 371.827 464.41 371.239C465.093 370.65 465.558 369.9 465.746 369.083C465.934 368.267 465.837 367.421 465.467 366.652C465.096 365.883 464.47 365.226 463.666 364.764C462.862 364.302 461.918 364.056 460.951 364.057C459.657 364.057 458.415 364.501 457.5 365.29C456.584 366.079 456.07 367.149 456.07 368.264V368.264Z" fill="#FFD079"/>
<path d="M454.487 421.251C443.941 426.114 425.396 426.657 414.91 421.649L418.277 382.95L449.822 383.09L454.487 421.251Z" fill="#F6A55C"/>
<path d="M452.75 409.686L449.821 383.09L418.276 382.95L417.582 394.117L452.75 409.686Z" fill="#D07D38"/>
<path d="M442.384 325.405C439.635 325.348 437.071 325.328 434.651 325.339H434.133C431.709 325.302 429.152 325.302 426.403 325.339C417.739 325.734 405.483 330.523 405.4 343.901C405.304 352.265 408.996 378.466 412.646 382.231C418.015 388.524 428.747 393.1 433.376 393.303L434.601 393.269C439.25 393.097 450.018 388.652 455.467 382.419C459.156 378.701 463.161 352.528 463.161 344.164C463.247 330.771 451.041 325.874 442.384 325.405Z" fill="#F6A55C"/>
<path d="M405.592 341.221C405.519 341.744 405.467 342.284 405.436 342.84L462.94 348.521C463.083 346.805 463.16 345.303 463.16 344.15C463.19 342.201 462.909 340.258 462.323 338.375L444.445 328.032L405.592 341.221Z" fill="#D07D38"/>
<path d="M402.873 342.478L442.009 342.653L443.397 329.718L447.119 342.927L466.979 343.285C475.423 314.972 406.323 301.92 402.873 342.478Z" fill="#36263B"/>
<path d="M462.11 292.12C461.788 287.51 459.886 283.085 456.644 279.406C453.403 275.727 448.968 272.958 443.9 271.45C438.833 269.943 433.36 269.763 428.173 270.935C422.987 272.106 418.321 274.576 414.764 278.033C411.208 281.489 408.921 285.776 408.193 290.352C407.464 294.928 408.328 299.587 410.673 303.74C413.019 307.893 416.741 311.354 421.37 313.685C425.999 316.015 431.326 317.111 436.678 316.834C440.232 316.65 443.708 315.865 446.91 314.523C450.111 313.181 452.974 311.309 455.336 309.014C457.698 306.719 459.511 304.046 460.674 301.148C461.836 298.249 462.324 295.181 462.11 292.12V292.12Z" fill="#36263B"/>
<path d="M278.68 991.999C276.787 972.448 270.571 928.943 224.602 920.539L170.916 911.858L115.553 911.884L61.8763 920.534C15.907 928.94 12.6661 972.448 10.7734 991.999H278.68Z" fill="#72767F" fill-opacity="0.5"/>
<path d="M173.998 914.027C173.998 920.932 161.31 926.53 144.777 926.53C128.244 926.53 115.557 920.932 115.557 914.027V884.733H173.998V914.027Z" fill="#91512A"/>
<path d="M115.912 887.88L173.785 915.881C173.959 915.276 174.031 914.652 173.998 914.03V884.951L115.912 887.88Z" fill="#723E24"/>
<path d="M117.011 841.715C125.196 845.365 129.077 852.911 125.674 858.571C122.27 864.232 112.88 865.857 104.695 862.207C96.5096 858.557 95.1914 852.153 98.5916 846.492C101.992 840.831 108.825 838.065 117.011 841.715Z" fill="#91512A"/>
<path d="M171.34 841.715C163.152 845.365 159.273 852.911 162.674 858.571C166.074 864.232 175.468 865.857 183.653 862.207C191.838 858.557 193.156 852.153 189.756 846.492C186.356 840.831 179.519 838.065 171.34 841.715Z" fill="#91512A"/>
<path d="M105.952 860.365C106.836 860.365 107.553 859.748 107.553 858.987C107.553 858.225 106.836 857.608 105.952 857.608C105.068 857.608 104.352 858.225 104.352 858.987C104.352 859.748 105.068 860.365 105.952 860.365Z" fill="#FAEFE4"/>
<path d="M185.064 858.686C185.064 858.958 184.97 859.225 184.795 859.452C184.619 859.678 184.369 859.855 184.076 859.959C183.784 860.064 183.462 860.091 183.152 860.038C182.841 859.985 182.556 859.853 182.332 859.661C182.108 859.468 181.956 859.222 181.894 858.955C181.832 858.687 181.864 858.41 181.985 858.158C182.106 857.906 182.311 857.691 182.575 857.539C182.838 857.388 183.147 857.307 183.464 857.307C183.888 857.307 184.295 857.452 184.596 857.711C184.896 857.969 185.064 858.32 185.064 858.686V858.686Z" fill="#FAEFE4"/>
<path d="M107.663 844.115H181.581C181.674 843.256 184.655 818.991 184.655 818.991C184.655 805.104 173.054 793.771 158.755 793.771H130.498C116.186 793.771 104.598 805.055 104.598 818.943L107.533 841.111C107.52 842.112 107.586 843.256 107.663 844.115Z" fill="#2D1E30"/>
<path d="M146.768 815.432C146.769 815.424 146.769 815.417 146.768 815.409L146.748 815.372C146.768 815.395 146.768 815.415 146.768 815.432Z" fill="#CF8548"/>
<path d="M146.155 815.432C146.154 815.424 146.154 815.417 146.155 815.409L146.135 815.372C146.141 815.395 146.145 815.415 146.155 815.432Z" fill="#CF8548"/>
<path d="M107.013 836.964H125.186V833.531H106.531L107.013 836.964Z" fill="#66391E"/>
<path d="M106.088 830.099H125.185V826.667H105.604L106.088 830.099Z" fill="#66391E"/>
<path d="M105.163 823.235H125.186V819.802H104.682L105.163 823.235Z" fill="#66391E"/>
<path d="M182.179 836.964H163.371V833.531H182.67L182.179 836.964Z" fill="#66391E"/>
<path d="M183.122 830.099H163.371V826.667H183.616L183.122 830.099Z" fill="#66391E"/>
<path d="M184.068 823.235H163.371V819.802H184.559L184.068 823.235Z" fill="#66391E"/>
<path d="M176.446 825.456C176.448 822.92 175.301 820.485 173.249 818.668C171.218 816.879 168.45 815.851 165.545 815.807H123.707C120.964 815.853 118.353 816.829 116.441 818.525C114.507 820.221 113.424 822.503 113.426 824.881L114.486 844.151L108.768 844.171L111.932 878.754C111.932 881.758 113.875 885.29 116.103 887.593C118.331 889.896 122.103 891.572 125.028 891.598L164.151 891.632C167.083 891.612 170.851 889.916 173.083 887.627C175.314 885.339 177.253 881.778 177.25 878.774L180.434 844.04L175.613 843.888L176.446 825.456Z" fill="#91512A"/>
<path d="M116.437 822.614C117.394 821.8 118.529 821.158 119.776 820.725C121.023 820.291 122.358 820.075 123.702 820.088H165.541C168.118 820.06 170.621 820.831 172.594 822.26C174.568 823.688 175.88 825.679 176.293 827.871L176.442 824.57C176.444 822.04 175.297 819.61 173.244 817.799C171.215 816.008 168.446 814.98 165.541 814.939H123.702C120.962 814.976 118.351 815.944 116.437 817.633C114.504 819.325 113.421 821.604 113.422 823.978L113.598 827.23C113.973 825.477 114.964 823.866 116.437 822.614V822.614Z" fill="#844624"/>
<path d="M174.956 844.173L171.636 856.598C171.131 858.496 169.894 860.19 168.127 861.404C166.36 862.618 164.167 863.279 161.907 863.28H127.665C125.405 863.279 123.213 862.618 121.446 861.404C119.678 860.19 118.441 858.496 117.936 856.598L114.616 844.175H108.064L111.239 878.752C111.239 881.756 113.181 885.289 115.406 887.591C117.631 889.894 121.41 891.596 124.335 891.596H165.317C168.246 891.596 171.958 889.894 174.183 887.591C176.407 885.289 178.363 881.759 178.35 878.755L181.514 844.175L174.956 844.173Z" fill="#844624"/>
<path d="M765.38 91.8209C771.766 118.709 795.976 135.188 809.733 147.582C849.735 179.802 830.32 230.418 774.658 233.227L712.816 164.631L765.38 91.8209Z" fill="#2E2232"/>
<path d="M691.799 166.011C609.094 81.9567 713.369 19.7937 751.435 61.7849C767.434 80.7925 789.339 133.01 699.519 169.337L691.799 166.011Z" fill="#2E2232"/>
<path d="M790.229 183.639C790.039 183.605 740.57 171.339 740.57 171.339H697.071C697.071 171.339 647.595 183.593 647.413 183.639C618.398 193.385 615.343 224.306 601.533 247.999H836.108C822.298 224.294 819.243 193.364 790.229 183.639Z" fill="#E7E7E7" fill-opacity="0.75"/>
<path d="M740.234 171.054L736.177 125.287H700.498L698.037 171.054C712.353 177.433 726.419 177.433 740.234 171.054Z" fill="#F6A55C"/>
<path d="M738.913 155.216L736.177 125.147H700.502L699.791 137.782L738.913 155.216Z" fill="#D18343"/>
<path d="M684.892 106.957C685.554 107.608 686.359 108.141 687.261 108.523C688.163 108.906 689.143 109.132 690.147 109.187C691.15 109.243 692.156 109.127 693.107 108.847C694.058 108.567 694.936 108.128 695.69 107.555V107.555C696.446 106.984 697.064 106.29 697.508 105.513C697.952 104.736 698.213 103.891 698.277 103.027C698.342 102.163 698.207 101.296 697.882 100.477C697.556 99.6576 697.046 98.9016 696.381 98.2525L690.869 92.8549C690.206 92.2036 689.401 91.6715 688.499 91.289C687.597 90.9065 686.616 90.6811 685.613 90.6258C684.61 90.5706 683.604 90.6865 682.652 90.9669C681.701 91.2473 680.824 91.6867 680.07 92.2599V92.2599C679.315 92.8307 678.697 93.5243 678.254 94.301C677.81 95.0777 677.548 95.9222 677.484 96.786C677.42 97.6499 677.555 98.5162 677.88 99.3353C678.205 100.154 678.715 100.91 679.38 101.559L684.892 106.957Z" fill="#D18343"/>
<path d="M679.555 114.214C679.555 112.952 679.989 111.718 680.803 110.668C681.617 109.619 682.774 108.801 684.128 108.318C685.481 107.835 686.971 107.709 688.408 107.955C689.845 108.201 691.165 108.809 692.201 109.701C693.237 110.594 693.943 111.731 694.229 112.969C694.514 114.207 694.368 115.49 693.807 116.656C693.246 117.822 692.297 118.819 691.079 119.52C689.86 120.221 688.428 120.595 686.963 120.595C684.999 120.593 683.116 119.92 681.727 118.724C680.339 117.527 679.557 115.906 679.555 114.214ZM681.374 114.214C681.374 115.166 681.702 116.097 682.316 116.888C682.93 117.68 683.803 118.297 684.824 118.661C685.845 119.026 686.969 119.121 688.053 118.935C689.137 118.75 690.133 118.291 690.914 117.618C691.696 116.945 692.228 116.087 692.444 115.153C692.659 114.219 692.549 113.251 692.126 112.372C691.703 111.492 690.987 110.74 690.068 110.211C689.148 109.682 688.068 109.4 686.963 109.4C685.481 109.4 684.059 109.908 683.011 110.81C681.963 111.713 681.373 112.937 681.371 114.214H681.374Z" fill="#FFEFE0"/>
<path d="M750.97 106.957C750.308 107.608 749.503 108.14 748.601 108.522C747.7 108.905 746.72 109.13 745.717 109.186C744.714 109.241 743.708 109.126 742.757 108.846C741.806 108.566 740.929 108.127 740.175 107.555V107.555C739.419 106.984 738.801 106.29 738.357 105.514C737.912 104.737 737.651 103.892 737.586 103.028C737.522 102.163 737.656 101.297 737.981 100.477C738.306 99.6579 738.816 98.9018 739.481 98.2525L744.993 92.8549C745.656 92.2036 746.461 91.6715 747.363 91.289C748.265 90.9065 749.246 90.6811 750.249 90.6258C751.252 90.5706 752.258 90.6865 753.21 90.9669C754.161 91.2473 755.038 91.6867 755.792 92.2599V92.2599C756.547 92.8307 757.165 93.5243 757.608 94.301C758.052 95.0777 758.313 95.9222 758.378 96.786C758.442 97.6499 758.307 98.5162 757.982 99.3353C757.657 100.154 757.147 100.91 756.482 101.559L750.97 106.957Z" fill="#D18343"/>
<path d="M748.898 120.595C747.433 120.595 746.001 120.221 744.783 119.52C743.564 118.819 742.615 117.822 742.054 116.656C741.493 115.49 741.347 114.207 741.633 112.969C741.918 111.731 742.624 110.594 743.66 109.701C744.696 108.809 746.016 108.201 747.453 107.955C748.89 107.709 750.38 107.835 751.733 108.318C753.087 108.801 754.244 109.619 755.058 110.668C755.872 111.718 756.306 112.952 756.306 114.214C756.304 115.906 755.522 117.527 754.134 118.724C752.745 119.92 750.862 120.593 748.898 120.595V120.595ZM748.898 109.4C747.793 109.4 746.713 109.682 745.794 110.211C744.875 110.74 744.158 111.492 743.735 112.372C743.312 113.251 743.202 114.219 743.417 115.153C743.633 116.087 744.165 116.945 744.947 117.618C745.728 118.291 746.724 118.75 747.808 118.935C748.892 119.121 750.016 119.026 751.037 118.661C752.058 118.297 752.931 117.68 753.545 116.888C754.159 116.097 754.487 115.166 754.487 114.214C754.485 112.937 753.896 111.714 752.848 110.811C751.8 109.909 750.38 109.401 748.898 109.4Z" fill="#FFEFE0"/>
<path d="M727.378 59.9442C724.267 59.8956 721.375 59.887 718.632 59.9128H718.047C715.301 59.887 712.403 59.8956 709.301 59.9442C699.506 60.4362 685.666 65.9111 685.672 81.0428C685.622 90.5023 689.989 120.116 694.126 124.347C700.243 131.421 712.406 136.552 717.646 136.767L719.034 136.718C724.273 136.504 736.436 131.421 742.556 124.347C746.704 120.116 751.053 90.5023 751.004 81.0428C751.007 65.9111 737.157 60.4362 727.378 59.9442Z" fill="#F6A55C"/>
<path d="M689.45 92.6778C695.427 91.0846 713.786 78.1554 718.94 75.2463C721.171 73.9877 723.605 73.0667 726.341 73.0838C729.579 73.1039 732.74 74.5284 735.34 76.0187C743.764 80.7784 747.251 85.5925 750.236 90.8043C750.339 89.8946 750.435 89.005 750.518 88.1498C747.466 82.8808 744.033 75.7784 735.34 70.8699C732.74 69.3796 729.579 67.9551 726.341 67.9351C723.605 67.9179 721.171 68.8389 718.94 70.0975C713.786 73.0066 709.46 76.8625 704.814 80.295C700.169 83.7275 695.427 87.9381 689.45 89.5314C688.421 89.8174 686.389 89.9747 685.359 90.052C685.469 91.0588 685.592 92.1 685.728 93.1641C686.634 93.0754 688.544 92.921 689.45 92.6778Z" fill="#D18343"/>
<path d="M719.335 53.3958C689.231 54.1566 684.509 71.0618 683.035 90.8503C685.187 91.0977 687.376 90.9406 689.45 90.3898C695.427 88.7965 700.196 84.5631 704.814 81.1534C709.433 77.7438 713.78 73.865 718.94 70.956C721.171 69.6974 723.605 68.7763 726.341 68.7935C729.579 68.8135 732.74 70.238 735.34 71.7283C744.485 76.8943 747.812 84.4859 750.993 89.8177C762.173 85.7502 749.542 51.2333 719.335 53.3958Z" fill="#2E2232"/>
<path d="M280.56 496.287C278.761 477.694 266.219 436.321 222.501 428.326L171.441 420.071L118.788 420.093L67.738 428.32C24.02 436.315 11.4652 477.694 9.66211 496.287H280.56Z" fill="#F4E5DA"/>
<path d="M155.45 426.091H133.389V482.587H155.45V426.091Z" stroke="white" stroke-width="3" stroke-linecap="round" stroke-linejoin="round"/>
<path d="M174.99 419.391C174.99 427.091 164.394 430.203 146.599 430.203C128.805 430.203 118.209 427.091 118.209 419.391V380.884C114.224 362.577 106.554 345.826 113.73 321.512H178.669C182.627 339.819 183.955 358.049 174.99 377.577V419.391Z" fill="#D4843B"/>
<path d="M177.039 411.545V384.897L138.869 386.762L166.503 425.061C172.997 422.506 177.039 415.981 177.039 411.545Z" fill="#BF6F26"/>
<path d="M151.108 326.376C151.109 326.366 151.109 326.357 151.108 326.347L151.088 326.307C151.093 326.33 151.1 326.353 151.108 326.376V326.376Z" fill="#D4843B"/>
<path d="M113.537 332.383C135.914 329.595 158.64 329.595 181.017 332.383L180.429 324.088C158.132 321.671 135.834 321.771 113.537 324.088V332.383Z" fill="#BF6F26"/>
<path d="M178.487 323.469L176.87 351.865C173.443 353.224 171.109 355.887 170.92 361.116L170.222 368.247L165.534 367.906L165.643 366.799C165.896 364.225 165.311 361.568 163.867 359.48C162.422 357.391 160.347 356.244 158.185 356.087H134.789C132.624 356.244 130.559 357.386 129.101 359.48C127.643 361.573 127.075 364.214 127.328 366.799L127.437 367.906L122.749 368.247L122.051 361.116C121.862 355.887 119.528 353.224 116.101 351.865L114.484 323.469L105.369 324.402L110.24 376.485C110.413 378.381 111.041 380.225 112.087 381.9C112.983 383.39 114.338 384.639 116.001 385.512L140.457 394.697C142.742 395.701 150.206 395.701 152.494 394.697L176.95 385.512C178.614 384.639 179.968 383.39 180.865 381.9C181.91 380.225 182.538 378.381 182.711 376.485L187.609 324.402L178.487 323.469Z" fill="#36263B"/>
<path d="M157.724 365.565C157.724 366.54 157.275 367.475 156.475 368.164C155.674 368.853 154.589 369.241 153.457 369.241H139.335C138.204 369.241 137.118 368.853 136.318 368.164C135.518 367.475 135.068 366.54 135.068 365.565V365.565C135.068 364.59 135.518 363.655 136.318 362.966C137.118 362.277 138.204 361.889 139.335 361.889H153.457C154.589 361.889 155.674 362.277 156.475 362.966C157.275 363.655 157.724 364.59 157.724 365.565V365.565Z" fill="#D4843B"/>
<path d="M117.455 325.174C125.591 323.81 137.213 323.481 146.218 323.303L148.094 323.34V287.124C143.199 287.17 137.85 287.725 135.476 288.174C105.389 294.679 89.5099 320.326 90.1973 352.136C82.3808 386.324 29.4882 411.196 15.9902 471.222C25.8688 459.494 30.3415 444.048 62.3746 434.077L116.947 421.145C118.94 410.275 120.504 384.531 113.537 362.949C104.701 332.688 109.181 326.267 117.455 325.174Z" fill="#FFFBF8"/>
<path d="M174.469 325.174C166.334 323.81 154.685 323.481 145.677 323.303L143.777 323.34V287.124C148.758 287.17 154.048 287.725 156.422 288.174C186.509 294.679 202.401 320.326 201.714 352.136C209.524 386.324 260.437 411.196 273.942 471.222C264.063 459.494 261.586 444.048 229.553 434.077L174.99 421.145C172.998 410.275 171.434 384.531 178.4 362.949C187.223 332.688 182.744 326.267 174.469 325.174Z" fill="#FFFBF8"/>
<path d="M194.167 312.904C194.167 315.098 191.763 316.869 188.814 316.863L101.926 316.901C98.9778 316.778 96.7264 314.898 96.8892 312.716C97.0552 310.527 99.5721 308.851 102.517 308.974L188.851 308.928C191.8 308.928 194.184 310.713 194.184 312.904H194.167Z" fill="#342538"/>
<path d="M191.418 305.8C191.418 307.994 189.133 309.765 186.324 309.759L103.663 309.805C100.86 309.679 98.7152 307.803 98.8713 305.62C99.0273 303.432 101.425 301.756 104.227 301.882L186.347 301.824C189.15 301.824 191.421 303.609 191.418 305.8Z" fill="#342538"/>
<path d="M175.988 423.918C156.065 434.948 136.142 434.627 116.219 423.918L117.215 410.76C137.825 421.564 157.041 421.238 174.992 410.76L175.988 423.918Z" fill="#FFFBF8"/>
<path d="M576.111 742H288V990.286H576.111V742Z" fill="#CFBEB0"/>
<path d="M311.161 989.142C313.4 985.942 315.856 982.857 318.515 979.905C322.171 976.207 325.686 972.408 329.029 968.541C335.154 959.96 336.868 948.389 337.473 941.498C337.443 933.581 337.104 925.672 338.301 917.757C340.295 904.061 348.755 898.077 353.378 893.217C360.117 887.193 372.525 877.121 384.804 854.427C374.426 878.12 362.586 887.568 357.82 893.329C353.464 898.374 345.482 908.775 344.841 922.562C344.418 930.537 345.525 938.369 346.329 946.255C346.186 954.15 340.541 965.1 335.898 971.247C334.968 974.107 331.548 981.702 329.113 989.139H442.991C486.081 959.676 520.179 858.077 482.536 806.406C459.972 777.801 410.887 789.666 396.714 819.323C394.973 822.273 393.618 825.381 392.673 828.588C377.168 870.723 357.219 886.2 349.712 893.054C345.086 897.917 336.633 903.763 334.645 917.462C333.449 925.377 333.788 933.269 333.818 941.187C333.213 948.08 331.492 959.611 325.374 968.198C322.031 972.065 318.509 975.921 314.86 979.639C312.082 982.643 309.572 985.822 307.35 989.15L311.161 989.142Z" fill="#FFEFE0"/>
<path d="M517.9 924.934C517.707 924.896 467.419 912.482 467.419 912.482H423.196C423.196 912.482 372.908 924.896 372.715 924.934C343.222 934.831 340.119 966.207 326.079 990.286H564.536C550.499 966.207 547.392 934.831 517.9 924.934Z" fill="#FFB1C3" fill-opacity="0.6"/>
<path d="M466.754 912.093L462.63 865.571H426.362L423.859 912.076C438.41 918.556 452.708 918.561 466.754 912.093Z" fill="#D48A48"/>
<path d="M465.906 898.975L462.411 865.497H426.146L426.086 883.946L465.906 898.975Z" fill="#BA7032"/>
<path d="M420.57 842.956C422.581 845.702 421.74 849.395 418.699 851.209C417.979 851.638 417.163 851.936 416.304 852.083C415.444 852.231 414.558 852.226 413.701 852.068C412.844 851.909 412.034 851.602 411.32 851.164C410.606 850.726 410.004 850.167 409.551 849.521L404.025 841.969C402.031 839.223 402.855 835.531 405.899 833.717C406.619 833.288 407.434 832.99 408.294 832.843C409.153 832.695 410.039 832.7 410.896 832.858C411.752 833.016 412.562 833.324 413.276 833.762C413.989 834.2 414.591 834.759 415.044 835.405L420.57 842.956Z" fill="#BF712C"/>
<path d="M430.46 808.113C422.79 819.99 418.46 823.614 410.688 832.945C412.754 846.961 417.061 865.714 420.564 869.186C427.462 876.91 440.745 882.179 446.377 882.23H447.866C453.475 881.795 466.286 875.594 472.52 867.424C475.391 864.112 477.375 853.98 478.501 840.451C472.972 822.169 439.2 834.861 430.46 808.113Z" fill="#D48A48"/>
<path d="M430.46 814.083C439.01 840.233 471.47 828.694 478.079 845.262C478.228 843.818 478.366 842.326 478.495 840.785C472.972 822.501 439.206 835.19 430.46 808.445C422.79 820.322 418.46 823.946 410.688 833.274C410.913 834.81 411.166 836.403 411.442 838.025C418.746 829.335 423.043 825.565 430.46 814.083Z" fill="#C17840"/>
</svg>
